<?xml version="1.0" standalone="no"?>
<!DOCTYPE svg PUBLIC "-//W3C//DTD SVG 1.1//EN" "http://www.w3.org/Graphics/SVG/1.1/DTD/svg11.dtd" >
<svg xmlns="http://www.w3.org/2000/svg" xmlns:xlink="http://www.w3.org/1999/xlink" version="1.1">
<metadata>
Created by FontForge 20190801 at Fri Mar 29 19:15:47 2013
 By Jimmy Wärting
Futura was designed for Bauer company in 1927 by Paul Renner. This is a sans serif face based on geometrical shapes, representative of the aesthetics of the Bauhaus school of the 1920s-30s. Issued by the Bauer Foundry in a wide range of weights and widths, Futura became a very popular choice for text and display setting. Originally Cyrillic version of eight styles was developed at ParaType (ParaGraph) in 1995 by Vladimir Yefimov. Additional Cyrillic styles were developed in 2007-2009 by Isabella Chaeva. Simultaneously the old eight styles were partly revised to match the whole family. Now the new Futura is an uniform type system consisted of seven weights with corresponding obliques plus eight condensed styles. All these fonts are coordinated in letterforms, metrics, and weights to better working together.
</metadata>
<defs>
<font id="FuturaPTCond-Book" horiz-adv-x="500" >
  <font-face 
    font-family="Futura PT Cond Book"
    font-weight="400"
    font-stretch="condensed"
    units-per-em="1000"
    panose-1="2 11 4 6 2 2 4 2 2 3"
    ascent="763"
    descent="-237"
    x-height="447"
    cap-height="667"
    bbox="-219 -250 750 913"
    underline-thickness="50"
    underline-position="-100"
    stemh="57"
    stemv="57"
    unicode-range="U+0020-FB02"
  />
<missing-glyph horiz-adv-x="233" 
 />
    <glyph glyph-name="afii10017.var.accented" unicode="&#x410;`" horiz-adv-x="325" 
d="M324 0h-66l-25 137h-141l-25 -137h-66l132 667h58zM223 191l-44 235c-10 52 -16 104 -19 157c-9 -132 -35 -262 -58 -392h121zM277 817l-115 -103l-35 26l96 120z" />
    <glyph glyph-name="afii10022.var.accented" unicode="&#x415;`" horiz-adv-x="301" 
d="M263 0h-208v667h208v-57h-146v-235h142v-57h-142v-261h146v-57zM265 817l-115 -103l-35 26l96 120z" />
    <glyph glyph-name="afii10026.var.accented" unicode="&#x418;`" horiz-adv-x="393" 
d="M55 0v667h62v-452c0 -23 -2 -47 -6 -84c14 47 17 60 24 81l142 455h62v-667h-62v431c0 35 4 79 6 105c-17 -65 -20 -72 -27 -94l-139 -442h-62zM311 817l-115 -103l-35 26l96 120z" />
    <glyph glyph-name="afii10032.var.accented" unicode="&#x41e;`" horiz-adv-x="404" 
d="M366 336c0 -112 -4 -345 -163 -345c-156 0 -165 231 -165 342c0 110 10 343 164 343c157 0 164 -228 164 -340zM303 358c0 68 -1 258 -100 258c-104 0 -102 -211 -102 -282c0 -70 -1 -283 102 -283c75 0 89 98 94 155c5 50 6 101 6 152zM317 817l-115 -103l-35 26l96 120
z" />
    <glyph glyph-name="afii10037.var.accented" unicode="&#x423;`" horiz-adv-x="341" 
d="M8 667h68l64 -211c15 -48 25 -81 39 -143c11 59 21 97 34 145l56 209h64l-188 -667h-62l64 224zM285 817l-115 -103l-35 26l96 120z" />
    <glyph glyph-name="afii10045.var.accented" unicode="&#x42b;`" horiz-adv-x="483" 
d="M429 0h-62v667h62v-667zM117 667v-289h37c33 0 78 -5 114 -40c44 -43 49 -112 49 -149c0 -61 -11 -125 -56 -161c-34 -27 -71 -28 -107 -28h-99v667h62zM117 53h33c16 0 51 1 73 23c24 24 30 72 30 103c0 40 -6 93 -35 119c-24 22 -57 23 -71 23h-30v-268zM356 817
l-115 -103l-35 26l96 120z" />
    <glyph glyph-name="afii10047.var.accented" unicode="&#x42d;`" horiz-adv-x="332" 
d="M18 24v76c33 -41 67 -49 91 -49c23 0 43 7 60 25c26 27 40 80 46 105c9 41 14 97 15 137h-169v57h168c0 35 -4 77 -12 112c-3 14 -18 72 -48 102c-13 13 -35 27 -66 27c-43 0 -71 -30 -85 -49v77c38 27 67 32 95 32c45 0 77 -15 106 -45c62 -64 75 -168 75 -280
c0 -63 -5 -127 -17 -182c-19 -88 -50 -126 -67 -142c-30 -28 -62 -36 -100 -36c-28 0 -60 6 -92 33zM231 817l-115 -103l-35 26l96 120z" />
    <glyph glyph-name="afii10048.var.accented" unicode="&#x42e;`" horiz-adv-x="568" 
d="M202 344h-85v-344h-62v667h62v-266h87c0 52 10 179 72 239c25 24 55 36 90 36s65 -12 90 -36c61 -59 74 -179 74 -306c0 -129 -13 -248 -74 -307c-25 -24 -55 -36 -90 -36s-65 12 -90 36c-61 59 -74 178 -74 307v10zM265 333c0 -86 1 -210 50 -260c13 -13 29 -22 51 -22
s38 9 51 22c43 45 50 147 50 260c0 160 -19 229 -50 261c-13 13 -29 22 -51 22s-38 -9 -51 -22c-49 -50 -50 -174 -50 -261zM399 817l-115 -103l-35 26l96 120z" />
    <glyph glyph-name="afii10049.var.accented" unicode="&#x42f;`" horiz-adv-x="357" 
d="M16 0l148 314c-6 0 -56 3 -90 36c-22 21 -42 62 -42 133c0 49 7 108 43 144c30 31 76 40 128 40h100v-667h-68v320l-148 -320h-71zM235 369v241h-36c-22 0 -53 -1 -74 -22c-23 -23 -27 -72 -27 -103c0 -33 4 -73 30 -96c20 -18 46 -20 63 -20h44zM293 817l-115 -103
l-35 26l96 120z" />
    <glyph glyph-name="afii10023.var.accented" unicode="&#x401;`" horiz-adv-x="298" 
d="M263 0h-208v667h208v-57h-146v-235h142v-57h-142v-261h146v-57zM222 832l-84 -109l-21 14l69 123zM114 773c0 -18 -15 -34 -34 -34s-33 16 -33 34s14 34 33 34s34 -16 34 -34zM271 773c0 -18 -14 -34 -33 -34c-18 0 -34 16 -34 34s16 34 34 34c19 0 33 -16 33 -34z" />
    <glyph glyph-name="afii10065.var.accented" unicode="&#x430;`" horiz-adv-x="327" 
d="M277 0h-57v36c-20 -27 -41 -43 -76 -43c-102 0 -105 143 -105 222c0 91 3 239 110 239c32 0 51 -12 71 -37v30h57v-447zM226 226c0 89 -5 183 -63 183c-65 0 -66 -114 -66 -159c0 -37 0 -72 3 -108c4 -39 10 -103 62 -103c15 0 26 4 36 15c28 28 28 133 28 172zM280 610
l-115 -103l-35 26l96 120z" />
    <glyph glyph-name="afii10070.var.accented" unicode="&#x435;`" horiz-adv-x="313" 
d="M219 152h57c-3 -72 -25 -159 -113 -159c-115 0 -130 143 -130 229c0 81 17 232 126 232c105 0 121 -135 121 -214c0 -9 -1 -19 -1 -28h-189v-10c0 -45 7 -156 71 -156c50 0 57 68 58 106zM91 260h133c-2 40 -7 142 -64 142c-58 0 -67 -101 -69 -142zM273 610l-115 -103
l-35 26l96 120z" />
    <glyph glyph-name="afii10074.var.accented" unicode="&#x438;`" horiz-adv-x="336" 
d="M286 0h-56v278c0 8 0 19 2 64c-6 -28 -13 -47 -21 -67l-105 -275h-56v447h56v-276c0 -23 0 -37 -2 -69c11 41 14 47 21 66l105 279h56v-447zM285 610l-115 -103l-35 26l96 120z" />
    <glyph glyph-name="afii10080.var.accented" unicode="&#x43e;`" horiz-adv-x="323" 
d="M289 221c0 -85 -10 -228 -125 -228s-131 144 -131 231s16 230 131 230c116 0 125 -147 125 -233zM231 224c0 45 -2 178 -68 178c-69 0 -71 -136 -71 -183s3 -173 71 -173c66 0 68 133 68 178zM278 610l-115 -103l-35 26l96 120z" />
    <glyph glyph-name="afii10085.var.accented" unicode="&#x443;`" horiz-adv-x="289" 
d="M283 447l-160 -627h-60l50 192l-106 435h57l56 -248c9 -37 16 -75 21 -112c4 28 11 55 18 84l65 276h59zM261 610l-115 -103l-35 26l96 120z" />
    <glyph glyph-name="afii10093.var.accented" unicode="&#x44b;`" horiz-adv-x="425" 
d="M375 0h-56v447h56v-447zM50 0v447h56v-171h20c52 0 89 -16 110 -36c19 -18 38 -51 38 -110c0 -24 -3 -68 -31 -97c-29 -30 -68 -33 -97 -33h-96zM106 52h32c18 0 42 1 58 16c12 11 21 31 21 68c0 18 -2 43 -20 64c-20 24 -43 26 -66 26h-25v-174zM329 610l-115 -103
l-35 26l96 120z" />
    <glyph glyph-name="afii10095.var.accented" unicode="&#x44d;`" horiz-adv-x="280" 
d="M36 19v72c7 -13 18 -25 28 -32c12 -9 25 -13 40 -13c19 0 32 7 43 19c31 33 38 101 38 144h-117v52h116c-2 38 -10 97 -38 123c-11 11 -27 18 -44 18c-12 0 -26 -4 -39 -14c-9 -7 -20 -18 -27 -29v70c28 22 58 25 74 25c33 0 58 -11 79 -32c45 -44 57 -115 57 -189
c0 -86 -16 -167 -62 -211c-24 -22 -47 -29 -76 -29c-20 0 -43 3 -72 26zM226 610l-115 -103l-35 26l96 120z" />
    <glyph glyph-name="afii10096.var.accented" unicode="&#x44e;`" horiz-adv-x="453" 
d="M107 261h57c2 47 15 128 52 165c22 21 47 28 75 28s52 -7 74 -28c47 -45 54 -126 54 -202c0 -79 -7 -157 -54 -203c-22 -21 -42 -28 -73 -28c-24 0 -51 4 -76 28c-42 41 -53 131 -53 189h-56v-210h-57v447h57v-186zM290 402c-12 0 -23 -4 -33 -14
c-15 -15 -37 -53 -37 -164s22 -149 37 -164c10 -10 21 -14 33 -14c13 0 24 4 34 14c7 8 36 41 36 164s-29 156 -36 164c-10 10 -21 14 -34 14zM343 610l-115 -103l-35 26l96 120z" />
    <glyph glyph-name="afii10097.var.accented" unicode="&#x44f;`" horiz-adv-x="296" 
d="M20 0l110 187c-29 1 -57 13 -76 31c-16 16 -32 44 -32 90c0 51 19 85 38 104c33 32 71 35 110 35h76v-447h-56v185l-104 -185h-66zM190 234v161h-29c-17 0 -41 -1 -58 -18c-14 -14 -21 -42 -21 -67s7 -46 20 -59c17 -16 42 -17 56 -17h32zM265 610l-115 -103l-35 26
l96 120z" />
    <glyph glyph-name="afii10071.var.accented" unicode="&#x451;`" horiz-adv-x="313" 
d="M219 152h57c-3 -72 -25 -159 -113 -159c-115 0 -130 143 -130 229c0 81 17 232 126 232c105 0 121 -135 121 -214c0 -9 -1 -19 -1 -28h-189v-10c0 -45 7 -156 71 -156c50 0 57 68 58 106zM91 260h133c-3 40 -7 142 -64 142c-58 0 -67 -101 -69 -142zM223 618l-90 -103
l-22 18l71 120zM107 563c0 -20 -16 -37 -37 -37s-37 17 -37 37c0 21 16 37 37 37s37 -16 37 -37zM280 563c0 -20 -16 -37 -37 -37s-37 17 -37 37c0 21 16 37 37 37s37 -16 37 -37z" />
    <glyph glyph-name="fi" unicode="fi" horiz-adv-x="350" 
d="M200 395h-77v-395h-56v395h-51v52h51v179c0 57 15 114 83 114c17 0 34 -3 50 -10v-62c-12 10 -25 20 -41 20c-33 0 -36 -30 -36 -55v-186h77v-52zM298 0h-57v447h57v-447zM311 587c0 -22 -18 -41 -41 -41s-42 19 -42 41c0 24 18 43 42 43c23 0 41 -20 41 -43z" />
    <glyph glyph-name="fl" unicode="fl" horiz-adv-x="349" 
d="M200 395h-77v-395h-56v395h-51v52h51v179c0 57 15 114 83 114c17 0 34 -3 50 -10v-62c-12 10 -25 20 -41 20c-33 0 -36 -30 -36 -55v-186h77v-52zM298 0h-57v729h57v-729z" />
    <glyph glyph-name=".notdef" horiz-adv-x="233" 
 />
    <glyph glyph-name="space" unicode=" " horiz-adv-x="233" 
 />
    <glyph glyph-name="exclam" unicode="!" horiz-adv-x="237" 
d="M148 167h-60v500h60v-500zM163 38c0 -25 -20 -45 -45 -45c-24 0 -45 21 -45 45c0 25 20 45 45 45s45 -20 45 -45z" />
    <glyph glyph-name="quotedbl" unicode="&#x22;" horiz-adv-x="305" 
d="M248 667l-10 -269h-42l-10 269h62zM119 667l-10 -269h-42l-10 269h62z" />
    <glyph glyph-name="numbersign" unicode="#" horiz-adv-x="600" 
d="M569 466l-8 -52h-111l-23 -148h112l-8 -52h-112l-32 -214h-59l33 214h-149l-32 -214h-58l32 214h-114l8 52h114l23 148h-114l7 52h115l30 201h58l-31 -201h149l31 201h58l-30 -201h111zM391 414h-149l-22 -148h149z" />
    <glyph glyph-name="dollar" unicode="$" horiz-adv-x="366" 
d="M306 636l-31 -47c-26 17 -56 30 -88 30c-60 0 -98 -43 -98 -102c0 -177 245 -135 245 -341c0 -91 -49 -167 -132 -182v-85h-49v83c-49 8 -76 22 -112 57l36 43c28 -23 60 -44 97 -44c63 0 102 56 102 125c0 158 -245 127 -245 340c0 83 41 140 122 160v78h49v-76
c38 -2 73 -18 104 -39z" />
    <glyph glyph-name="percent" unicode="%" horiz-adv-x="514" 
d="M425 667l-289 -667h-46l289 667h46zM386 296c-11 0 -18 -3 -24 -10c-13 -14 -17 -44 -17 -119c0 -76 4 -106 17 -120c6 -7 13 -10 24 -10c10 0 17 2 24 10c13 14 17 44 17 120c0 75 -4 105 -17 119c-6 7 -13 10 -24 10zM474 166c0 -63 -2 -122 -32 -151
c-18 -18 -39 -20 -56 -20s-37 2 -55 20c-30 29 -32 88 -32 151s2 122 32 151c18 18 38 20 55 20s38 -2 56 -20c30 -29 32 -88 32 -151zM127 630c-11 0 -18 -3 -24 -10c-13 -14 -17 -44 -17 -119c0 -76 4 -106 17 -120c6 -7 13 -10 24 -10c10 0 17 2 24 10
c13 14 17 44 17 120c0 75 -4 105 -17 119c-6 7 -13 10 -24 10zM215 500c0 -63 -2 -122 -32 -151c-18 -18 -39 -20 -56 -20s-37 2 -55 20c-30 29 -32 88 -32 151s2 122 32 151c18 18 38 20 55 20s38 -2 56 -20c30 -29 32 -88 32 -151z" />
    <glyph glyph-name="ampersand" unicode="&#x26;" horiz-adv-x="444" 
d="M386 192l41 -42c-18 -24 -38 -47 -59 -69l41 -81h-65l-20 37c-32 -29 -66 -46 -110 -46c-98 0 -161 89 -161 181c0 83 40 138 99 192c-27 48 -61 111 -61 180c0 74 58 132 132 132c70 0 120 -55 120 -124c0 -92 -63 -150 -118 -198l115 -218c17 18 32 36 46 56zM283 554
c0 36 -26 68 -63 68c-42 0 -72 -35 -72 -76c0 -61 26 -105 49 -145c42 34 86 83 86 153zM296 90l-117 220c-36 -38 -68 -85 -68 -139c0 -56 38 -120 100 -120c33 0 61 18 85 39z" />
    <glyph glyph-name="quotesingle" unicode="'" horiz-adv-x="175" 
d="M119 667l-10 -269h-42l-10 269h62z" />
    <glyph glyph-name="parenleft" unicode="(" horiz-adv-x="260" 
d="M220 -158l-48 -23c-75 132 -119 308 -119 459s44 327 119 459l48 -23c-60 -138 -110 -284 -110 -436s50 -298 110 -436z" />
    <glyph glyph-name="parenright" unicode=")" horiz-adv-x="260" 
d="M40 714l49 23c76 -134 118 -305 118 -459s-42 -325 -118 -459l-49 23c70 137 110 281 110 436s-40 299 -110 436z" />
    <glyph glyph-name="asterisk" unicode="*" horiz-adv-x="367" 
d="M326 613l-114 -37l70 -97l-29 -21l-70 97l-70 -97l-29 21l71 97l-114 37l11 34l114 -37v119h35v-119l114 37z" />
    <glyph glyph-name="plus" unicode="+" 
d="M467 305h-189v-176h-56v176h-189v53h189v175h56v-175h189v-53z" />
    <glyph glyph-name="comma" unicode="," horiz-adv-x="177" 
d="M137 55l-88 -197l-43 20l69 205z" />
    <glyph glyph-name="hyphen" unicode="-" horiz-adv-x="238" 
d="M188 233h-138v58h138v-58z" />
    <glyph glyph-name="period" unicode="." horiz-adv-x="177" 
d="M133 38c0 -25 -20 -45 -45 -45c-24 0 -45 21 -45 45c0 25 20 45 45 45s45 -20 45 -45z" />
    <glyph glyph-name="slash" unicode="/" horiz-adv-x="408" 
d="M409 729l-390 -902h-58l391 902h57z" />
    <glyph glyph-name="zero" unicode="0" horiz-adv-x="366" 
d="M333 356c0 -102 -3 -365 -151 -365c-139 0 -149 230 -149 328c0 106 12 357 161 357c138 0 139 -225 139 -320zM273 378c0 55 -1 241 -82 241c-91 0 -98 -232 -98 -296c0 -65 5 -159 29 -219c12 -29 29 -56 64 -56c32 0 47 24 57 50c28 73 30 200 30 280z" />
    <glyph glyph-name="one" unicode="1" horiz-adv-x="366" 
d="M224 0h-62v609h-86v58h148v-667z" />
    <glyph glyph-name="two" unicode="2" horiz-adv-x="366" 
d="M47 485c0 96 21 191 135 191c88 0 136 -64 136 -148c0 -98 -45 -183 -88 -268l-102 -201h182v-59h-273l137 282c38 77 81 158 81 246c0 45 -18 91 -70 91c-69 0 -77 -67 -77 -122v-12h-61z" />
    <glyph glyph-name="three" unicode="3" horiz-adv-x="366" 
d="M107 511h-57c1 83 31 165 127 165c95 0 133 -67 133 -154c0 -64 -13 -123 -76 -153c77 -33 85 -117 85 -190c0 -95 -26 -188 -139 -188c-103 0 -138 72 -138 165v27h61c0 -57 2 -132 78 -132c73 0 78 86 78 140c0 77 -22 147 -112 147h-30v55h26c34 0 59 2 82 29
c21 25 25 64 25 96c0 49 -15 98 -73 98c-63 0 -69 -56 -70 -105z" />
    <glyph glyph-name="four" unicode="4" horiz-adv-x="366" 
d="M323 179h-50v-179h-61v179h-175v63l175 425h61v-431h50v-57zM95 236h117c0 45 -1 90 -1 135c0 66 2 132 8 198c-10 -39 -23 -77 -38 -115z" />
    <glyph glyph-name="five" unicode="5" horiz-adv-x="366" 
d="M155 609l-24 -204c12 2 23 3 35 3c113 0 152 -116 152 -211c0 -98 -44 -206 -166 -206c-38 0 -74 11 -104 33l17 61c26 -20 57 -34 90 -34c79 0 100 89 100 147c0 69 -23 150 -112 150c-32 0 -59 -7 -82 -12l39 331h199v-58h-144z" />
    <glyph glyph-name="six" unicode="6" horiz-adv-x="366" 
d="M264 667l-87 -205c-16 -37 -21 -41 -46 -107c26 19 47 23 65 23c38 0 63 -17 76 -29c43 -41 48 -125 48 -169c0 -75 -17 -128 -46 -156c-17 -17 -47 -33 -89 -33c-36 0 -64 11 -86 32c-47 45 -53 120 -53 176c0 46 5 84 17 130c11 41 25 73 41 112l95 226h65zM106 185
c0 -40 7 -95 33 -120c11 -11 31 -20 49 -20s36 9 47 21c10 11 25 38 25 118c0 69 -13 103 -30 121c-11 11 -27 20 -47 20c-22 0 -38 -11 -47 -21c-10 -11 -30 -41 -30 -119z" />
    <glyph glyph-name="seven" unicode="7" horiz-adv-x="366" 
d="M329 667l-205 -667h-65l188 609h-192v58h274z" />
    <glyph glyph-name="eight" unicode="8" horiz-adv-x="366" 
d="M323 188c0 -95 -30 -197 -144 -197c-111 0 -137 109 -137 199c0 66 16 151 85 179c-54 34 -70 82 -70 143c0 85 39 164 134 164c94 0 126 -84 126 -165c0 -59 -16 -111 -70 -142c67 -37 76 -112 76 -181zM257 507c0 47 -12 112 -71 112c-57 0 -69 -57 -69 -103
c0 -47 10 -119 71 -119c58 0 69 64 69 110zM263 197c0 53 -10 144 -80 144s-80 -98 -80 -150s10 -143 79 -143c77 0 81 93 81 149z" />
    <glyph glyph-name="nine" unicode="9" horiz-adv-x="366" 
d="M102 0l130 312c-20 -14 -41 -23 -66 -23c-101 0 -120 122 -120 200c0 89 25 187 133 187c110 0 141 -101 141 -193c0 -83 -21 -165 -53 -241l-101 -242h-64zM260 482c0 53 -12 141 -82 141c-63 0 -73 -98 -73 -145c0 -51 10 -136 78 -136s77 89 77 140z" />
    <glyph glyph-name="colon" unicode=":" horiz-adv-x="177" 
d="M133 409c0 -25 -20 -45 -45 -45c-24 0 -45 21 -45 45c0 25 20 45 45 45s45 -20 45 -45zM133 38c0 -25 -20 -45 -45 -45c-24 0 -45 21 -45 45c0 25 20 45 45 45s45 -20 45 -45z" />
    <glyph glyph-name="semicolon" unicode=";" horiz-adv-x="177" 
d="M137 409c0 -25 -20 -45 -45 -45s-45 20 -45 45s20 45 45 45s45 -20 45 -45zM137 55l-88 -197l-43 20l69 205z" />
    <glyph glyph-name="less" unicode="&#x3c;" 
d="M467 106l-434 198v50l434 198v-57l-372 -166l372 -166v-57z" />
    <glyph glyph-name="equal" unicode="=" 
d="M467 390h-434v51h434v-51zM467 243h-434v51h434v-51z" />
    <glyph glyph-name="greater" unicode="&#x3e;" 
d="M467 304l-434 -198v57l372 166l-372 166v57l434 -198v-50z" />
    <glyph glyph-name="question" unicode="?" horiz-adv-x="332" 
d="M53 498v47c0 76 32 131 115 131c33 0 68 -11 88 -39c24 -33 23 -77 23 -116c0 -88 -2 -190 -116 -194v-160h-59v214c11 0 22 -1 33 -1c15 0 37 1 51 9c34 21 30 104 30 140c0 37 -3 93 -52 93c-62 0 -53 -82 -53 -124h-60zM181 38c0 -25 -20 -45 -45 -45
c-24 0 -45 21 -45 45c0 25 20 45 45 45s45 -20 45 -45z" />
    <glyph glyph-name="at" unicode="@" horiz-adv-x="733" 
d="M607 77l13 -38c-73 -35 -148 -52 -229 -52c-204 0 -358 137 -358 345c0 194 153 343 346 343c172 0 316 -118 316 -296c0 -32 -5 -64 -15 -95c-20 -64 -73 -142 -148 -142c-42 0 -70 29 -72 70c-28 -45 -71 -73 -125 -73c-90 0 -140 78 -140 161c0 100 67 204 175 204
c59 0 96 -29 114 -84l14 71h42l-41 -216c-3 -16 -7 -31 -7 -47c0 -26 14 -50 43 -50c57 0 95 73 109 120c7 26 11 53 11 80c0 158 -124 257 -276 257c-171 0 -304 -133 -304 -304c0 -78 29 -157 83 -214c63 -67 142 -91 232 -91c79 0 146 18 217 51zM466 356
c0 57 -30 105 -92 105c-82 0 -131 -85 -131 -159c0 -61 33 -120 100 -120c88 0 123 101 123 174z" />
    <glyph glyph-name="A" unicode="A" horiz-adv-x="325" 
d="M324 0h-66l-25 137h-141l-25 -137h-66l132 667h58zM223 191l-44 235c-10 52 -16 104 -19 157c-9 -132 -35 -262 -58 -392h121z" />
    <glyph glyph-name="B" unicode="B" horiz-adv-x="351" 
d="M55 667h97c34 0 70 -2 98 -23c40 -30 51 -100 51 -147c0 -68 -16 -124 -82 -155c86 -23 98 -84 98 -164c0 -55 -9 -114 -55 -150c-32 -25 -66 -28 -105 -28h-102v667zM117 372h33c81 0 88 56 88 122c0 63 -3 119 -82 119h-39v-241zM117 53h33c85 0 103 52 103 127
c0 67 -20 137 -100 137h-36v-264z" />
    <glyph glyph-name="C" unicode="C" horiz-adv-x="320" 
d="M302 81v-62c-26 -17 -56 -28 -87 -28c-48 0 -92 27 -120 65c-51 70 -57 177 -57 260c0 123 14 360 184 360c28 0 56 -6 80 -21v-68c-23 15 -48 29 -77 29c-120 0 -124 -196 -124 -280c0 -65 7 -191 44 -244c18 -26 43 -41 75 -41c30 0 58 14 82 30z" />
    <glyph glyph-name="D" unicode="D" horiz-adv-x="371" 
d="M55 667h78c128 0 172 -52 191 -174c8 -56 9 -113 9 -170c0 -81 -1 -205 -55 -270c-37 -44 -86 -53 -141 -53h-82v667zM117 57h29c120 0 123 134 123 224c0 56 0 113 -5 173c-7 80 -23 156 -121 156h-26v-553z" />
    <glyph glyph-name="E" unicode="E" horiz-adv-x="301" 
d="M263 0h-208v667h208v-57h-146v-235h142v-57h-142v-261h146v-57z" />
    <glyph glyph-name="F" unicode="F" horiz-adv-x="295" 
d="M267 610h-150v-235h142v-57h-142v-318h-62v667h212v-57z" />
    <glyph glyph-name="G" unicode="G" horiz-adv-x="374" 
d="M336 352v-134c0 -32 0 -65 -5 -97c-12 -76 -56 -130 -137 -130c-50 0 -90 21 -115 64c-38 66 -41 218 -41 295c0 114 3 326 162 326c82 0 116 -54 135 -126l-61 -24c-8 42 -23 90 -74 90c-98 0 -99 -175 -99 -243c0 -70 -1 -193 21 -257c13 -38 33 -65 76 -65
c73 0 76 84 76 138v106h-91v57h153z" />
    <glyph glyph-name="H" unicode="H" horiz-adv-x="385" 
d="M331 0h-62v344h-152v-344h-62v667h62v-266h152v266h62v-667z" />
    <glyph glyph-name="I" unicode="I" horiz-adv-x="171" 
d="M117 0h-62v667h62v-667z" />
    <glyph glyph-name="J" unicode="J" horiz-adv-x="224" 
d="M169 667v-571c0 -10 0 -19 -1 -29c-5 -54 -44 -77 -95 -77c-26 0 -49 7 -72 18v64c19 -16 37 -28 62 -28c43 0 44 35 44 67v556h62z" />
    <glyph glyph-name="K" unicode="K" horiz-adv-x="329" 
d="M321 0h-70l-134 336v-336h-62v667h62v-303l134 303h69l-144 -318z" />
    <glyph glyph-name="L" unicode="L" horiz-adv-x="263" 
d="M261 0h-206v667h62v-610h144v-57z" />
    <glyph glyph-name="M" unicode="M" horiz-adv-x="499" 
d="M478 0h-61l-47 433c-4 40 -4 81 -6 121c-2 -41 -7 -81 -14 -121l-74 -433h-51c-27 166 -60 331 -79 498c-2 19 -2 37 -4 56v-23c0 -32 -2 -65 -6 -97l-54 -434h-61l94 667h53l72 -458c5 -35 11 -70 13 -105c2 35 6 69 12 103l78 460h53z" />
    <glyph glyph-name="N" unicode="N" horiz-adv-x="387" 
d="M332 0h-54l-148 440c-10 31 -19 62 -27 94c4 -35 6 -70 6 -105v-429h-54v667h54l151 -453c9 -26 16 -53 24 -79c-4 27 -6 55 -6 82v450h54v-667z" />
    <glyph glyph-name="O" unicode="O" horiz-adv-x="404" 
d="M366 336c0 -112 -4 -345 -163 -345c-156 0 -165 231 -165 342c0 110 10 343 164 343c157 0 164 -228 164 -340zM303 358c0 68 -1 258 -100 258c-104 0 -102 -211 -102 -282c0 -70 -1 -283 102 -283c75 0 89 98 94 155c5 50 6 101 6 152z" />
    <glyph glyph-name="P" unicode="P" horiz-adv-x="329" 
d="M55 667h80c134 0 169 -59 169 -185c0 -117 -45 -163 -162 -163h-25v-319h-62v667zM117 376h41c78 0 83 55 83 118c0 70 -14 116 -94 116h-30v-234z" />
    <glyph glyph-name="Q" unicode="Q" horiz-adv-x="404" 
d="M366 -18l-49 -31l-40 62c-23 -16 -48 -22 -76 -22c-153 0 -163 233 -163 342c0 110 10 343 164 343c155 0 164 -225 164 -336c0 -83 -5 -210 -49 -282zM234 188l46 -72c20 68 23 142 23 213c0 42 -1 84 -5 126c-5 57 -19 161 -95 161c-104 0 -102 -211 -102 -282
c0 -72 -2 -283 103 -283c15 0 28 3 40 13l-59 92z" />
    <glyph glyph-name="R" unicode="R" horiz-adv-x="376" 
d="M353 0h-71l-155 326v-326h-68v667h84c39 0 80 0 115 -19c60 -32 72 -98 72 -160c0 -92 -31 -160 -132 -168zM127 375h41c80 0 93 47 93 117c0 77 -16 118 -101 118h-33v-235z" />
    <glyph glyph-name="S" unicode="S" horiz-adv-x="326" 
d="M278 640v-78c-27 32 -55 54 -99 54c-61 0 -96 -52 -96 -109c0 -154 228 -144 228 -329c0 -96 -65 -188 -167 -188c-38 0 -75 13 -105 35v80c29 -30 64 -54 108 -54c65 0 101 59 101 119c0 153 -228 142 -228 329c0 91 56 177 154 177c40 0 72 -13 104 -36z" />
    <glyph glyph-name="T" unicode="T" horiz-adv-x="265" 
d="M263 610h-100v-610h-62v610h-100v57h262v-57z" />
    <glyph glyph-name="U" unicode="U" horiz-adv-x="390" 
d="M335 667v-491c0 -31 -1 -62 -9 -92c-17 -62 -68 -93 -131 -93s-113 31 -131 93c-9 30 -9 62 -9 93v490h62v-499c0 -56 7 -117 78 -117c87 0 78 93 78 154v462h62z" />
    <glyph glyph-name="V" unicode="V" horiz-adv-x="326" 
d="M325 667l-135 -667h-55l-134 667h64l84 -442c8 -44 11 -89 15 -134c4 44 9 88 17 132l80 444h64z" />
    <glyph glyph-name="W" unicode="W" horiz-adv-x="506" 
d="M504 667l-117 -667h-57l-65 433c-6 41 -10 83 -12 124c-2 -13 -2 -25 -3 -38c-1 -30 -6 -59 -11 -88l-75 -431h-56l-107 667h64l60 -420c4 -25 6 -50 8 -75c1 -17 1 -33 4 -50c4 44 12 87 19 130l71 415h54l62 -422c4 -24 6 -49 9 -73c2 -17 4 -33 7 -50
c5 42 11 84 17 126l65 419h63z" />
    <glyph glyph-name="X" unicode="X" horiz-adv-x="318" 
d="M317 0h-66l-66 189c-11 31 -20 63 -26 95c-7 -33 -17 -65 -28 -97l-63 -187h-67l130 339l-130 328h67l59 -165c14 -38 25 -77 32 -117c6 39 19 76 32 113l60 169h66l-127 -328z" />
    <glyph glyph-name="Y" unicode="Y" horiz-adv-x="316" 
d="M315 667l-122 -378v-289h-62v289l-130 378h67l62 -191c8 -24 23 -78 32 -123c4 26 10 59 29 122l57 192h67z" />
    <glyph glyph-name="Z" unicode="Z" horiz-adv-x="279" 
d="M271 667l-187 -610h169v-57h-245l185 610h-167v57h245z" />
    <glyph glyph-name="bracketleft" unicode="[" horiz-adv-x="267" 
d="M234 -173h-161v902h161v-46h-102v-810h102v-46z" />
    <glyph glyph-name="backslash" unicode="\" horiz-adv-x="408" 
d="M-1 729h57l391 -902h-58z" />
    <glyph glyph-name="bracketright" unicode="]" horiz-adv-x="267" 
d="M194 -173h-161v46h102v810h-102v46h161v-902z" />
    <glyph glyph-name="asciicircum" unicode="^" 
d="M469 372h-64l-156 250l-155 -250h-63l182 295h74z" />
    <glyph glyph-name="underscore" unicode="_" 
d="M500 -124h-500v50h500v-50z" />
    <glyph glyph-name="grave" unicode="`" 
d="M285 533l-35 -26l-115 103l54 43z" />
    <glyph glyph-name="a" unicode="a" horiz-adv-x="327" 
d="M277 0h-57v36c-20 -27 -41 -43 -76 -43c-102 0 -105 143 -105 222c0 91 3 239 110 239c32 0 51 -12 71 -37v30h57v-447zM226 226c0 89 -5 183 -63 183c-65 0 -66 -114 -66 -159c0 -37 0 -72 3 -108c4 -39 10 -103 62 -103c15 0 26 4 36 15c28 28 28 133 28 172z" />
    <glyph glyph-name="b" unicode="b" horiz-adv-x="321" 
d="M106 729v-312c20 25 39 37 72 37c109 0 110 -142 110 -222c0 -96 -3 -239 -105 -239c-35 0 -56 17 -77 43v-36h-56v729h56zM230 247c0 45 -1 162 -66 162c-58 0 -63 -94 -63 -183c0 -39 0 -144 28 -172c10 -11 21 -15 36 -15c52 0 58 64 62 103c3 35 3 70 3 105z" />
    <glyph glyph-name="c" unicode="c" horiz-adv-x="246" 
d="M226 86v-70c-18 -14 -42 -23 -64 -23c-105 0 -129 143 -129 223c0 85 18 238 132 238c21 0 42 -6 61 -17v-66c-15 16 -33 31 -56 31c-71 0 -78 -131 -78 -181c0 -48 9 -175 77 -175c25 0 44 21 57 40z" />
    <glyph glyph-name="d" unicode="d" horiz-adv-x="321" 
d="M271 0h-56v36c-20 -27 -42 -43 -77 -43c-103 0 -105 149 -105 227c0 87 0 234 111 234c32 0 51 -12 71 -37v312h56v-729zM220 223c0 94 -5 186 -63 186c-64 0 -65 -115 -65 -159c0 -37 0 -72 3 -108c3 -39 9 -103 61 -103c15 0 27 4 37 15c27 27 27 132 27 169z" />
    <glyph glyph-name="e" unicode="e" horiz-adv-x="313" 
d="M219 152h57c-3 -72 -25 -159 -113 -159c-115 0 -130 143 -130 229c0 81 17 232 126 232c105 0 121 -135 121 -214c0 -9 -1 -19 -1 -28h-189v-10c0 -45 7 -156 71 -156c50 0 57 68 58 106zM91 260h133c-2 40 -7 142 -64 142c-58 0 -67 -101 -69 -142z" />
    <glyph glyph-name="f" unicode="f" horiz-adv-x="204" 
d="M200 395h-77v-395h-56v395h-51v52h51v179c0 57 15 114 83 114c17 0 34 -3 50 -10v-62c-12 10 -25 20 -41 20c-33 0 -36 -30 -36 -55v-186h77v-52z" />
    <glyph glyph-name="g" unicode="g" horiz-adv-x="331" 
d="M281 447v-496c0 -81 -31 -131 -117 -131c-78 0 -116 49 -116 124c0 6 0 12 1 17h57c0 -45 5 -88 61 -88c55 0 57 44 57 87v72c-20 -22 -41 -32 -71 -32c-113 0 -114 152 -114 233c0 75 8 221 111 221c32 0 54 -13 74 -38v31h57zM230 250c0 47 0 158 -68 158
c-60 0 -65 -103 -65 -196c0 -48 1 -166 70 -166c50 0 57 59 60 96s3 72 3 108z" />
    <glyph glyph-name="h" unicode="h" horiz-adv-x="330" 
d="M280 0h-56v325c0 36 -1 83 -50 83c-21 0 -42 -11 -53 -29c-15 -23 -15 -52 -15 -78v-301h-56v729h56v-318c22 25 52 43 87 43c73 0 87 -52 87 -115v-339z" />
    <glyph glyph-name="i" unicode="i" horiz-adv-x="155" 
d="M106 0h-57v447h57v-447zM119 587c0 -22 -18 -41 -41 -41s-42 19 -42 41c0 24 18 43 42 43c23 0 41 -20 41 -43z" />
    <glyph glyph-name="j" unicode="j" horiz-adv-x="159" 
d="M110 -180h-58v627h58v-627zM123 587c0 -22 -19 -41 -42 -41s-42 19 -42 41c0 24 18 43 42 43s42 -19 42 -43z" />
    <glyph glyph-name="k" unicode="k" horiz-adv-x="300" 
d="M316 0h-71l-139 214v-214h-56v729h56v-464l112 182h63l-128 -200z" />
    <glyph glyph-name="l" unicode="l" horiz-adv-x="157" 
d="M107 0h-57v729h57v-729z" />
    <glyph glyph-name="m" unicode="m" horiz-adv-x="508" 
d="M458 343v-343h-56v331c0 37 -6 77 -52 77c-65 0 -68 -73 -68 -122v-286h-57v330c0 33 -3 78 -47 78c-70 0 -72 -79 -72 -131v-277h-56v447h56v-37c24 25 51 44 87 44c38 0 65 -19 82 -52c24 32 50 52 92 52c72 0 91 -47 91 -111z" />
    <glyph glyph-name="n" unicode="n" horiz-adv-x="330" 
d="M280 0h-56v325c0 36 -1 83 -50 83c-21 0 -42 -11 -53 -29c-15 -22 -15 -52 -15 -78v-301h-56v447h56v-36c22 25 52 43 87 43c75 0 87 -62 87 -123v-331z" />
    <glyph glyph-name="o" unicode="o" horiz-adv-x="323" 
d="M289 221c0 -85 -10 -228 -125 -228s-131 144 -131 231s16 230 131 230c116 0 125 -147 125 -233zM231 224c0 45 -2 178 -68 178c-69 0 -71 -136 -71 -183s3 -173 71 -173c66 0 68 133 68 178z" />
    <glyph glyph-name="p" unicode="p" horiz-adv-x="321" 
d="M106 447v-30c19 25 39 37 71 37c110 0 111 -141 111 -222c0 -96 -3 -239 -105 -239c-35 0 -56 17 -77 43v-216h-56v627h56zM230 247c0 45 -1 162 -66 162c-58 0 -63 -94 -63 -183c0 -39 0 -144 28 -172c10 -11 21 -15 36 -15c52 0 58 64 62 103c3 35 3 70 3 105z" />
    <glyph glyph-name="q" unicode="q" horiz-adv-x="327" 
d="M277 -180h-57v216c-20 -27 -41 -43 -76 -43c-102 0 -105 143 -105 222c0 92 0 239 110 239c32 0 51 -12 71 -37v30h57v-627zM226 226c0 94 -6 183 -63 183c-65 0 -66 -114 -66 -159c0 -37 0 -72 3 -108c4 -39 10 -103 62 -103c15 0 26 4 36 15c28 28 28 133 28 172z" />
    <glyph glyph-name="r" unicode="r" horiz-adv-x="195" 
d="M182 454v-65c-75 0 -76 -60 -76 -118v-271h-56v447h56v-58c15 33 37 63 76 65z" />
    <glyph glyph-name="s" unicode="s" horiz-adv-x="249" 
d="M219 425v-69c-20 24 -45 46 -77 46c-33 0 -55 -27 -55 -59c0 -87 144 -103 144 -224c0 -69 -49 -126 -120 -126c-30 0 -59 12 -83 31v66c22 -23 47 -44 79 -44c40 0 65 32 65 69c0 88 -144 118 -144 226c0 65 46 113 111 113c30 0 55 -11 80 -29z" />
    <glyph glyph-name="t" unicode="t" horiz-adv-x="199" 
d="M198 395h-75v-395h-56v395h-48v52h48v127h56v-127h75v-52z" />
    <glyph glyph-name="u" unicode="u" horiz-adv-x="332" 
d="M282 447v-338c0 -72 -45 -116 -116 -116s-116 44 -116 116v338h56v-303c0 -46 2 -98 62 -98c58 0 58 60 58 104v297h56z" />
    <glyph glyph-name="v" unicode="v" horiz-adv-x="276" 
d="M269 447l-99 -447h-61l-102 447h58l59 -267c7 -32 12 -64 16 -96c5 31 10 63 16 94l55 269h58z" />
    <glyph glyph-name="w" unicode="w" horiz-adv-x="439" 
d="M429 447l-98 -447h-58c-19 124 -41 248 -57 372c-4 -24 -5 -46 -9 -70l-49 -302h-58l-90 447h57l50 -271c6 -31 10 -63 13 -94c2 30 8 61 13 92l45 273h58c19 -121 42 -243 56 -365c5 31 9 63 15 95l55 270h57z" />
    <glyph glyph-name="x" unicode="x" horiz-adv-x="279" 
d="M272 0h-63l-49 127c-8 22 -17 44 -22 66c-4 -22 -12 -45 -20 -67l-48 -126h-63l102 229l-91 218h62c22 -62 49 -124 63 -189c13 66 41 127 66 189h63l-100 -218z" />
    <glyph glyph-name="y" unicode="y" horiz-adv-x="289" 
d="M283 447l-160 -627h-60l50 192l-106 435h57l56 -248c9 -37 16 -75 21 -112c4 28 11 55 18 84l65 276h59z" />
    <glyph glyph-name="z" unicode="z" horiz-adv-x="271" 
d="M266 447l-180 -395h151v-52h-232l176 395h-153v52h238z" />
    <glyph glyph-name="braceleft" unicode="{" 
d="M361 -173h-17c-106 0 -134 50 -134 149v185c0 46 -8 82 -58 95v45c48 13 58 47 58 92v200c0 109 49 136 151 136v-48c-70 -1 -95 -20 -95 -92v-199c0 -54 -9 -89 -61 -113c51 -25 61 -63 61 -116v-190c0 -73 21 -96 95 -96v-48z" />
    <glyph glyph-name="bar" unicode="|" 
d="M278 -250h-56v1000h56v-1000z" />
    <glyph glyph-name="braceright" unicode="}" horiz-adv-x="501" 
d="M164 -173h-17v48c74 0 95 23 95 96v190c0 53 10 91 61 116c-52 24 -61 59 -61 113v199c0 72 -25 91 -95 92v48c102 0 151 -27 151 -136v-200c0 -45 10 -79 58 -92v-45c-50 -13 -58 -49 -58 -95v-185c0 -99 -28 -149 -134 -149z" />
    <glyph glyph-name="asciitilde" unicode="~" horiz-adv-x="667" 
d="M537 721l36 -21c-28 -56 -70 -106 -138 -106c-74 0 -143 70 -212 70c-46 0 -74 -39 -94 -75l-35 22c28 56 63 108 133 108c78 0 146 -70 214 -70c48 0 74 34 96 72z" />
    <glyph glyph-name="uni00A0" unicode="&#xa0;" horiz-adv-x="233" 
 />
    <glyph glyph-name="exclamdown" unicode="&#xa1;" horiz-adv-x="237" 
d="M163 409c0 -25 -20 -45 -45 -45c-24 0 -45 21 -45 45c0 25 20 45 45 45s45 -20 45 -45zM148 -220h-60v500h60v-500z" />
    <glyph glyph-name="cent" unicode="&#xa2;" horiz-adv-x="366" 
d="M278 206v-70c-12 -10 -26 -16 -41 -19v-92h-49v92c-88 33 -104 137 -104 219c0 60 8 132 40 184c18 29 33 40 64 50v83h49v-82c14 -2 28 -7 41 -13v-67c-15 16 -34 30 -57 30c-71 0 -77 -130 -77 -181c0 -48 9 -174 76 -174c26 0 44 21 58 40z" />
    <glyph glyph-name="sterling" unicode="&#xa3;" horiz-adv-x="366" 
d="M292 89l52 -17c-2 -27 -14 -54 -30 -69c-14 -13 -34 -22 -56 -22c-19 0 -39 7 -56 18l-34 22c-25 16 -37 19 -45 19c-9 0 -19 -5 -26 -12c-6 -6 -13 -18 -16 -28l-52 30c8 17 21 35 35 48c13 13 32 21 51 21c5 0 11 -1 16 -2c24 36 26 70 26 80c0 40 -19 82 -48 121h-79
v42h59c-11 21 -23 48 -29 66c-12 33 -17 66 -17 99c0 41 9 92 47 130c25 25 62 41 106 41c45 0 75 -18 94 -37c23 -22 43 -60 44 -108l-58 -12c-1 23 -9 57 -28 76c-9 9 -26 21 -55 21c-28 0 -46 -11 -57 -21c-12 -12 -30 -37 -30 -87c0 -32 7 -60 17 -88
c9 -26 25 -59 36 -80h105v-42h-84c29 -42 37 -79 37 -108c0 -21 -3 -43 -12 -66c-2 -5 -10 -23 -25 -43l43 -30c13 -8 24 -11 34 -11c13 0 20 5 26 17c5 10 8 24 9 32z" />
    <glyph glyph-name="currency" unicode="&#xa4;" horiz-adv-x="667" 
d="M103 355c0 55 19 99 52 142l-93 93l33 33l93 -93c44 34 88 54 145 54c56 0 102 -19 145 -53l92 91l33 -32l-92 -92c33 -44 52 -88 52 -144c0 -55 -19 -99 -52 -142l93 -93l-32 -33l-93 93c-43 -33 -90 -53 -145 -53c-54 0 -101 20 -144 52l-92 -92l-33 33l92 92
c-34 42 -54 90 -54 144zM156 355c0 -97 80 -178 177 -178c98 0 178 80 178 178s-80 178 -178 178c-97 0 -177 -81 -177 -178z" />
    <glyph glyph-name="yen" unicode="&#xa5;" horiz-adv-x="366" 
d="M350 269h-135v-269h-57v269h-142v42h136l-23 65h-113v42h99l-86 249h64l63 -195c13 -39 23 -79 30 -119c7 41 18 82 30 122l57 192h64l-81 -249h94v-42h-108l-21 -65h129v-42z" />
    <glyph glyph-name="brokenbar" unicode="&#xa6;" 
d="M278 345h-56v405h56v-405zM278 -250h-56v405h56v-405z" />
    <glyph glyph-name="section" unicode="&#xa7;" horiz-adv-x="367" 
d="M312 603h-60c-4 41 -19 84 -67 84c-47 0 -68 -47 -68 -88c0 -109 131 -118 179 -194c22 -36 29 -86 29 -128c0 -68 -18 -150 -92 -173c52 -32 75 -80 75 -143c0 -74 -44 -141 -124 -141c-50 0 -92 28 -112 74c-10 23 -13 49 -15 74h58c2 -44 14 -94 68 -94
c49 0 69 47 69 90c0 157 -210 75 -210 319c0 72 23 152 101 174c-53 35 -83 80 -83 146c0 75 48 137 126 137c44 0 84 -22 106 -60c14 -24 18 -50 20 -77zM268 269c0 58 -8 151 -85 151c-70 0 -84 -85 -84 -139c0 -55 12 -140 84 -140s85 70 85 128z" />
    <glyph glyph-name="dieresis" unicode="&#xa8;" 
d="M357 557c0 -24 -19 -44 -43 -44s-43 20 -43 44s19 43 43 43s43 -19 43 -43zM229 557c0 -24 -19 -44 -43 -44s-43 20 -43 44s19 43 43 43s43 -19 43 -43z" />
    <glyph glyph-name="copyright" unicode="&#xa9;" horiz-adv-x="756" 
d="M723 333c0 -190 -155 -345 -345 -345s-345 155 -345 345c0 191 155 346 346 346c190 0 344 -157 344 -346zM683 333c0 168 -134 310 -304 310c-171 0 -306 -140 -306 -310c0 -168 136 -309 305 -309c170 0 305 140 305 309zM434 199v-52c-18 -12 -39 -19 -61 -19
c-32 0 -61 16 -81 41c-34 43 -37 107 -37 160c0 81 15 210 122 210c25 0 32 -7 54 -14l3 -1v-55c-16 11 -34 22 -54 22c-70 0 -72 -107 -72 -156c0 -46 1 -159 68 -159c21 0 41 12 58 23z" />
    <glyph glyph-name="ordfeminine" unicode="&#xaa;" horiz-adv-x="240" 
d="M193 372h-43v18c-13 -15 -28 -22 -47 -22c-72 0 -72 103 -72 154c0 54 0 149 76 149c17 0 32 -6 43 -19v15h43v-295zM193 297h-158v33h158v-33zM153 519c0 50 -1 117 -38 117c-40 0 -40 -80 -40 -119c0 -37 1 -114 39 -114c9 0 16 3 23 9c16 17 16 84 16 107z" />
    <glyph glyph-name="guillemotleft" unicode="&#xab;" horiz-adv-x="325" 
d="M292 66l-39 -23l-108 194l108 188l39 -21l-95 -167zM180 66l-38 -23l-109 194l109 188l38 -21l-95 -167z" />
    <glyph glyph-name="logicalnot" unicode="&#xac;" 
d="M467 0h-57v215h-377v52h434v-267z" />
    <glyph glyph-name="uni00AD" unicode="&#xad;" horiz-adv-x="238" 
d="M188 233h-138v58h138v-58z" />
    <glyph glyph-name="registered" unicode="&#xae;" horiz-adv-x="756" 
d="M482 131h-51l-85 176v-176h-49v405h53c83 0 117 -27 117 -112c0 -51 -19 -100 -76 -104zM346 363h21c44 0 49 25 49 64c0 42 -7 65 -55 65h-15v-129zM683 333c0 168 -134 310 -304 310c-171 0 -306 -140 -306 -310c0 -168 136 -309 305 -309c170 0 305 140 305 309z
M723 333c0 -190 -155 -345 -345 -345s-345 155 -345 345c0 191 155 346 346 346c190 0 344 -157 344 -346z" />
    <glyph glyph-name="macron" unicode="&#xaf;" 
d="M362 520h-224v55h224v-55z" />
    <glyph glyph-name="degree" unicode="&#xb0;" 
d="M388 537c0 -75 -64 -135 -138 -135s-138 60 -138 135c0 76 63 135 138 135s138 -59 138 -135zM349 537c0 55 -45 97 -99 97s-99 -42 -99 -97c0 -54 46 -97 99 -97s99 43 99 97z" />
    <glyph glyph-name="plusminus" unicode="&#xb1;" 
d="M467 342h-189v-176h-56v176h-189v53h189v176h56v-176h189v-53zM467 71h-434v53h434v-53z" />
    <glyph glyph-name="twosuperior" unicode="&#xb2;" horiz-adv-x="252" 
d="M83 553h-44c0 60 11 120 86 120c58 0 89 -38 89 -94s-29 -109 -55 -157l-62 -115h112v-41h-179l88 172c22 43 51 93 51 143c0 28 -11 52 -42 52c-41 0 -45 -40 -45 -72c0 -3 0 -5 1 -8z" />
    <glyph glyph-name="threesuperior" unicode="&#xb3;" horiz-adv-x="252" 
d="M82 569h-42c0 54 20 104 82 104c58 0 87 -37 87 -93c0 -42 -7 -68 -43 -92c42 -24 48 -63 48 -108c0 -65 -17 -118 -91 -118c-76 0 -88 56 -88 119h44c0 -34 0 -78 44 -78c42 0 47 44 47 77c0 48 -12 87 -67 87h-21v38c56 0 83 5 83 69c0 30 -7 57 -42 57
c-39 0 -41 -30 -41 -62z" />
    <glyph glyph-name="acute" unicode="&#xb4;" 
d="M365 610l-115 -103l-35 26l96 120z" />
    <glyph glyph-name="mu" unicode="&#xb5;" 
d="M445 0h-56v94c-30 -66 -71 -107 -147 -107c-60 0 -103 27 -134 77v-244h-56v627h56v-244c0 -37 1 -73 19 -106c23 -42 70 -65 117 -65c51 0 90 26 117 68c23 37 28 71 28 114v233h56v-447z" />
    <glyph glyph-name="mu" unicode="&#x3bc;" 
d="M445 0h-56v94c-30 -66 -71 -107 -147 -107c-60 0 -103 27 -134 77v-244h-56v627h56v-244c0 -37 1 -73 19 -106c23 -42 70 -65 117 -65c51 0 90 26 117 68c23 37 28 71 28 114v233h56v-447z" />
    <glyph glyph-name="paragraph" unicode="&#xb6;" horiz-adv-x="556" 
d="M487 621h-56v-721h-50v721h-111v-721h-51v413h-16c-103 0 -184 69 -184 175c0 131 101 179 218 179h250v-46z" />
    <glyph glyph-name="periodcentered" unicode="&#xb7;" horiz-adv-x="204" 
d="M160 343c0 -32 -26 -58 -58 -58s-59 26 -59 58c0 33 26 59 59 59c32 0 58 -27 58 -59z" />
    <glyph glyph-name="cedilla" unicode="&#xb8;" horiz-adv-x="493" 
d="M303 -62l-77 -123l-36 21l67 127z" />
    <glyph glyph-name="onesuperior" unicode="&#xb9;" horiz-adv-x="253" 
d="M155 267h-45v359h-55v41h100v-400z" />
    <glyph glyph-name="ordmasculine" unicode="&#xba;" horiz-adv-x="240" 
d="M207 518c0 -58 -8 -150 -85 -150s-88 93 -88 152c0 58 12 151 88 151c77 0 85 -95 85 -153zM204 297h-167v33h167v-33zM163 519c0 28 -2 112 -42 112c-43 0 -44 -85 -44 -115c0 -29 2 -109 44 -109c40 0 42 84 42 112z" />
    <glyph glyph-name="guillemotright" unicode="&#xbb;" horiz-adv-x="325" 
d="M292 237l-108 -194l-39 23l95 171l-95 167l39 21zM180 237l-108 -194l-39 23l95 171l-95 167l39 21z" />
    <glyph glyph-name="onequarter" unicode="&#xbc;" horiz-adv-x="622" 
d="M587 106h-31v-106h-45v106h-109v40l110 254h44v-255h31v-39zM156 267h-45v359h-55v41h100v-400zM446 145h65c0 54 0 108 2 165c-20 -56 -45 -110 -67 -165zM480 667l-289 -667h-46l289 667h46z" />
    <glyph glyph-name="onehalf" unicode="&#xbd;" horiz-adv-x="622" 
d="M452 287h-44c0 21 0 43 6 63c11 37 42 56 80 56c58 0 89 -38 89 -94c0 -51 -25 -100 -52 -150l-65 -121h112v-41h-179l88 172c22 43 51 93 51 143c0 28 -11 52 -42 52c-41 0 -45 -40 -45 -72c0 -3 0 -5 1 -8zM480 667l-289 -667h-46l289 667h46zM156 267h-45v359h-55v41
h100v-400z" />
    <glyph glyph-name="threequarters" unicode="&#xbe;" horiz-adv-x="621" 
d="M585 106h-30v-106h-45v106h-110v40l111 254h44v-255h30v-39zM82 569h-42c0 54 20 104 82 104c58 0 87 -37 87 -93c0 -42 -7 -68 -43 -92c42 -24 48 -63 48 -108c0 -65 -17 -118 -91 -118c-76 0 -88 56 -88 119h44c0 -34 0 -78 44 -78c42 0 47 44 47 77
c0 48 -12 87 -67 87h-21v38c56 0 83 5 83 69c0 30 -7 57 -42 57c-39 0 -41 -30 -41 -62zM444 145h66c0 55 0 110 2 165c-21 -56 -45 -110 -68 -165zM480 667l-289 -667h-46l289 667h46z" />
    <glyph glyph-name="questiondown" unicode="&#xbf;" horiz-adv-x="331" 
d="M240 409c0 -25 -20 -45 -45 -45s-45 20 -45 45s20 45 45 45s45 -20 45 -45zM278 -51v-47c0 -76 -33 -131 -115 -131c-33 0 -67 12 -87 39c-24 33 -23 77 -23 116c0 88 1 190 115 194v161h59v-215c-11 0 -22 1 -33 1c-15 0 -37 -1 -51 -9c-34 -20 -30 -103 -30 -139
c0 -38 3 -94 53 -94c48 0 53 49 53 91v33h59z" />
    <glyph glyph-name="Agrave" unicode="&#xc0;" horiz-adv-x="325" 
d="M324 0h-66l-25 137h-141l-25 -137h-66l132 667h58zM223 191l-44 235c-10 52 -16 104 -19 157c-9 -132 -35 -262 -58 -392h121zM205 740l-35 -26l-115 103l54 43z" />
    <glyph glyph-name="Aacute" unicode="&#xc1;" horiz-adv-x="325" 
d="M324 0h-66l-25 137h-141l-25 -137h-66l132 667h58zM223 191l-44 235c-10 52 -16 104 -19 157c-9 -132 -35 -262 -58 -392h121zM278 817l-115 -103l-35 26l96 120z" />
    <glyph glyph-name="Acircumflex" unicode="&#xc2;" horiz-adv-x="325" 
d="M324 0h-66l-25 137h-141l-25 -137h-66l132 667h58zM223 191l-44 235c-10 52 -16 104 -19 157c-9 -132 -35 -262 -58 -392h121zM276 752l-40 -38l-74 69l-74 -69l-38 38l112 107z" />
    <glyph glyph-name="Atilde" unicode="&#xc3;" horiz-adv-x="325" 
d="M324 0h-66l-25 137h-141l-25 -137h-66l132 667h58zM223 191l-44 235c-10 52 -16 104 -19 157c-9 -132 -35 -262 -58 -392h121zM221 802h57c-2 -39 -23 -82 -68 -82c-35 0 -67 34 -90 34c-14 0 -16 -14 -16 -25h-56c4 40 26 77 70 77c31 0 65 -32 86 -32c16 0 17 16 17 28
z" />
    <glyph glyph-name="Adieresis" unicode="&#xc4;" horiz-adv-x="325" 
d="M324 0h-66l-25 137h-141l-25 -137h-66l132 667h58zM223 191l-44 235c-10 52 -16 104 -19 157c-9 -132 -35 -262 -58 -392h121zM267 764c0 -24 -19 -44 -43 -44s-43 20 -43 44s19 43 43 43s43 -19 43 -43zM139 764c0 -24 -19 -44 -43 -44s-43 20 -43 44s19 43 43 43
s43 -19 43 -43z" />
    <glyph glyph-name="Aring" unicode="&#xc5;" horiz-adv-x="325" 
d="M324 0h-66l-25 137h-141l-25 -137h-66l132 667h58zM223 191l-44 235c-10 52 -16 104 -19 157c-9 -132 -35 -262 -58 -392h121zM243 794c0 -44 -36 -80 -80 -80s-80 36 -80 80s36 80 80 80s80 -36 80 -80zM203 794c0 22 -18 40 -40 40s-40 -18 -40 -40s18 -40 40 -40
s40 18 40 40z" />
    <glyph glyph-name="AE" unicode="&#xc6;" horiz-adv-x="462" 
d="M471 0h-207l-22 137h-151l-24 -137h-66l131 667h222l11 -57h-143l42 -235h135l11 -57h-136l47 -261h141zM233 190l-47 282c-7 41 -13 82 -15 123c-7 -41 -12 -81 -19 -122l-51 -283h132z" />
    <glyph glyph-name="Ccedilla" unicode="&#xc7;" horiz-adv-x="320" 
d="M302 81v-62c-26 -17 -56 -28 -87 -28c-48 0 -92 27 -120 65c-51 70 -57 177 -57 260c0 123 14 360 184 360c28 0 56 -6 80 -21v-68c-23 15 -48 29 -77 29c-120 0 -124 -196 -124 -280c0 -65 7 -191 44 -244c18 -26 43 -41 75 -41c30 0 58 14 82 30zM262 -62l-77 -123
l-36 21l67 127z" />
    <glyph glyph-name="Egrave" unicode="&#xc8;" horiz-adv-x="301" 
d="M263 0h-208v667h208v-57h-146v-235h142v-57h-142v-261h146v-57zM215 740l-35 -26l-115 103l54 43z" />
    <glyph glyph-name="Eacute" unicode="&#xc9;" horiz-adv-x="301" 
d="M263 0h-208v667h208v-57h-146v-235h142v-57h-142v-261h146v-57zM261 817l-115 -103l-35 26l96 120z" />
    <glyph glyph-name="Ecircumflex" unicode="&#xca;" horiz-adv-x="301" 
d="M263 0h-208v667h208v-57h-146v-235h142v-57h-142v-261h146v-57zM278 752l-40 -38l-74 69l-74 -69l-38 38l112 107z" />
    <glyph glyph-name="Edieresis" unicode="&#xcb;" horiz-adv-x="301" 
d="M263 0h-208v667h208v-57h-146v-235h142v-57h-142v-261h146v-57zM272 764c0 -24 -19 -44 -43 -44s-43 20 -43 44s19 43 43 43s43 -19 43 -43zM144 764c0 -24 -19 -44 -43 -44s-43 20 -43 44s19 43 43 43s43 -19 43 -43z" />
    <glyph glyph-name="Igrave" unicode="&#xcc;" horiz-adv-x="171" 
d="M117 0h-62v667h62v-667zM121 740l-35 -26l-115 103l54 43z" />
    <glyph glyph-name="Iacute" unicode="&#xcd;" horiz-adv-x="171" 
d="M117 0h-62v667h62v-667zM201 817l-115 -103l-35 26l96 120z" />
    <glyph glyph-name="Icircumflex" unicode="&#xce;" horiz-adv-x="171" 
d="M117 0h-62v667h62v-667zM199 752l-40 -38l-74 69l-74 -69l-38 38l112 107z" />
    <glyph glyph-name="Idieresis" unicode="&#xcf;" horiz-adv-x="171" 
d="M117 0h-62v667h62v-667zM193 764c0 -24 -19 -44 -43 -44s-43 20 -43 44s19 43 43 43s43 -19 43 -43zM65 764c0 -24 -19 -44 -43 -44s-43 20 -43 44s19 43 43 43s43 -19 43 -43z" />
    <glyph glyph-name="Eth" unicode="&#xd0;" horiz-adv-x="371" 
d="M55 667h78c121 0 170 -47 190 -166c9 -54 10 -111 10 -166s-2 -158 -18 -210c-29 -92 -82 -125 -178 -125h-82v321h-47v50h47v296zM117 57h29c29 0 56 6 77 28c46 48 47 143 47 215c0 54 -3 179 -18 229c-18 57 -47 81 -108 81h-27v-239h90v-50h-90v-264z" />
    <glyph glyph-name="Ntilde" unicode="&#xd1;" horiz-adv-x="387" 
d="M332 0h-54l-148 440c-10 31 -19 62 -27 94c4 -35 6 -70 6 -105v-429h-54v667h54l151 -453c9 -26 16 -53 24 -79c-4 27 -6 55 -6 82v450h54v-667zM252 802h57c-2 -39 -23 -82 -68 -82c-35 0 -67 34 -90 34c-14 0 -16 -14 -16 -25h-56c4 40 26 77 70 77c31 0 65 -32 86 -32
c16 0 17 16 17 28z" />
    <glyph glyph-name="Ograve" unicode="&#xd2;" horiz-adv-x="404" 
d="M366 336c0 -112 -4 -345 -163 -345c-156 0 -165 231 -165 342c0 110 10 343 164 343c157 0 164 -228 164 -340zM303 358c0 68 -1 258 -100 258c-104 0 -102 -211 -102 -282c0 -70 -1 -283 102 -283c75 0 89 98 94 155c5 50 6 101 6 152zM255 740l-35 -26l-115 103l54 43z
" />
    <glyph glyph-name="Oacute" unicode="&#xd3;" horiz-adv-x="404" 
d="M366 336c0 -112 -4 -345 -163 -345c-156 0 -165 231 -165 342c0 110 10 343 164 343c157 0 164 -228 164 -340zM303 358c0 68 -1 258 -100 258c-104 0 -102 -211 -102 -282c0 -70 -1 -283 102 -283c75 0 89 98 94 155c5 50 6 101 6 152zM317 817l-115 -103l-35 26l96 120
z" />
    <glyph glyph-name="Ocircumflex" unicode="&#xd4;" horiz-adv-x="404" 
d="M366 336c0 -112 -4 -345 -163 -345c-156 0 -165 231 -165 342c0 110 10 343 164 343c157 0 164 -228 164 -340zM303 358c0 68 -1 258 -100 258c-104 0 -102 -211 -102 -282c0 -70 -1 -283 102 -283c75 0 89 98 94 155c5 50 6 101 6 152zM315 752l-40 -38l-74 69l-74 -69
l-38 38l112 107z" />
    <glyph glyph-name="Otilde" unicode="&#xd5;" horiz-adv-x="404" 
d="M366 336c0 -112 -4 -345 -163 -345c-156 0 -165 231 -165 342c0 110 10 343 164 343c157 0 164 -228 164 -340zM303 358c0 68 -1 258 -100 258c-104 0 -102 -211 -102 -282c0 -70 -1 -283 102 -283c75 0 89 98 94 155c5 50 6 101 6 152zM260 802h57
c-2 -39 -23 -82 -68 -82c-35 0 -67 34 -90 34c-14 0 -16 -14 -16 -25h-56c4 40 26 77 70 77c31 0 65 -32 86 -32c16 0 17 16 17 28z" />
    <glyph glyph-name="Odieresis" unicode="&#xd6;" horiz-adv-x="404" 
d="M366 336c0 -112 -4 -345 -163 -345c-156 0 -165 231 -165 342c0 110 10 343 164 343c157 0 164 -228 164 -340zM303 358c0 68 -1 258 -100 258c-104 0 -102 -211 -102 -282c0 -70 -1 -283 102 -283c75 0 89 98 94 155c5 50 6 101 6 152zM309 764c0 -24 -19 -44 -43 -44
s-43 20 -43 44s19 43 43 43s43 -19 43 -43zM181 764c0 -24 -19 -44 -43 -44s-43 20 -43 44s19 43 43 43s43 -19 43 -43z" />
    <glyph glyph-name="multiply" unicode="&#xd7;" 
d="M422 466l-135 -135l135 -134l-37 -38l-135 135l-135 -135l-37 38l135 134l-135 135l37 38l135 -135l135 135z" />
    <glyph glyph-name="Oslash" unicode="&#xd8;" horiz-adv-x="428" 
d="M390 656l-42 -89c26 -69 30 -161 30 -235c0 -112 -6 -341 -163 -341c-48 0 -83 20 -109 60l-29 -59l-39 19l43 89c-27 72 -31 160 -31 236c0 109 10 340 163 340c46 0 86 -20 110 -60l28 59zM123 180l167 373c-12 35 -35 63 -75 63c-101 0 -102 -201 -102 -271
c0 -55 2 -110 10 -165zM306 486l-166 -372c13 -34 34 -63 74 -63c80 0 92 109 97 168c3 39 4 79 4 119c0 49 -3 99 -9 148z" />
    <glyph glyph-name="Ugrave" unicode="&#xd9;" horiz-adv-x="390" 
d="M335 667v-491c0 -31 -1 -62 -9 -92c-17 -62 -68 -93 -131 -93s-113 31 -131 93c-9 30 -9 62 -9 93v490h62v-499c0 -56 7 -117 78 -117c87 0 78 93 78 154v462h62zM230 740l-35 -26l-115 103l54 43z" />
    <glyph glyph-name="Uacute" unicode="&#xda;" horiz-adv-x="390" 
d="M335 667v-491c0 -31 -1 -62 -9 -92c-17 -62 -68 -93 -131 -93s-113 31 -131 93c-9 30 -9 62 -9 93v490h62v-499c0 -56 7 -117 78 -117c87 0 78 93 78 154v462h62zM310 817l-115 -103l-35 26l96 120z" />
    <glyph glyph-name="Ucircumflex" unicode="&#xdb;" horiz-adv-x="390" 
d="M335 667v-491c0 -31 -1 -62 -9 -92c-17 -62 -68 -93 -131 -93s-113 31 -131 93c-9 30 -9 62 -9 93v490h62v-499c0 -56 7 -117 78 -117c87 0 78 93 78 154v462h62zM308 752l-40 -38l-74 69l-74 -69l-38 38l112 107z" />
    <glyph glyph-name="Udieresis" unicode="&#xdc;" horiz-adv-x="390" 
d="M335 667v-491c0 -31 -1 -62 -9 -92c-17 -62 -68 -93 -131 -93s-113 31 -131 93c-9 30 -9 62 -9 93v490h62v-499c0 -56 7 -117 78 -117c87 0 78 93 78 154v462h62zM302 764c0 -24 -19 -44 -43 -44s-43 20 -43 44s19 43 43 43s43 -19 43 -43zM174 764
c0 -24 -19 -44 -43 -44s-43 20 -43 44s19 43 43 43s43 -19 43 -43z" />
    <glyph glyph-name="Yacute" unicode="&#xdd;" horiz-adv-x="316" 
d="M315 667l-122 -378v-289h-62v289l-130 378h67l62 -191c8 -24 23 -78 32 -123c4 26 10 59 29 122l57 192h67zM265 817l-115 -103l-35 26l96 120z" />
    <glyph glyph-name="Thorn" unicode="&#xde;" horiz-adv-x="329" 
d="M117 667v-117c135 0 187 -37 187 -179c0 -119 -39 -168 -161 -168h-26v-203h-62v667h62zM117 260h41c73 0 83 48 83 111c0 72 -10 122 -93 122h-31v-233z" />
    <glyph glyph-name="germandbls" unicode="&#xdf;" horiz-adv-x="336" 
d="M55 447v117c0 83 12 176 118 176c94 0 121 -75 121 -172c0 -67 -10 -126 -64 -150c10 -4 19 -9 27 -16c45 -37 45 -145 45 -199c0 -73 -9 -203 -126 -203h-21v56h17c56 0 65 56 69 100c3 32 3 65 3 84c0 49 -1 149 -71 149h-18v58h17c58 0 64 51 64 111
c0 58 -6 130 -64 130c-59 0 -59 -75 -59 -117v-571h-58v389h-51v58h51z" />
    <glyph glyph-name="agrave" unicode="&#xe0;" horiz-adv-x="327" 
d="M277 0h-57v36c-20 -27 -41 -43 -76 -43c-102 0 -105 143 -105 222c0 91 3 239 110 239c32 0 51 -12 71 -37v30h57v-447zM226 226c0 89 -5 183 -63 183c-65 0 -66 -114 -66 -159c0 -37 0 -72 3 -108c4 -39 10 -103 62 -103c15 0 26 4 36 15c28 28 28 133 28 172zM215 533
l-35 -26l-115 103l54 43z" />
    <glyph glyph-name="aacute" unicode="&#xe1;" horiz-adv-x="327" 
d="M277 0h-57v36c-20 -27 -41 -43 -76 -43c-102 0 -105 143 -105 222c0 91 3 239 110 239c32 0 51 -12 71 -37v30h57v-447zM226 226c0 89 -5 183 -63 183c-65 0 -66 -114 -66 -159c0 -37 0 -72 3 -108c4 -39 10 -103 62 -103c15 0 26 4 36 15c28 28 28 133 28 172zM265 610
l-115 -103l-35 26l96 120z" />
    <glyph glyph-name="acircumflex" unicode="&#xe2;" horiz-adv-x="327" 
d="M277 0h-57v36c-20 -27 -41 -43 -76 -43c-102 0 -105 143 -105 222c0 91 3 239 110 239c32 0 51 -12 71 -37v30h57v-447zM226 226c0 89 -5 183 -63 183c-65 0 -66 -114 -66 -159c0 -37 0 -72 3 -108c4 -39 10 -103 62 -103c15 0 26 4 36 15c28 28 28 133 28 172zM273 545
l-40 -38l-74 69l-74 -69l-38 38l112 107z" />
    <glyph glyph-name="atilde" unicode="&#xe3;" horiz-adv-x="327" 
d="M277 0h-57v36c-20 -27 -41 -43 -76 -43c-102 0 -105 143 -105 222c0 91 3 239 110 239c32 0 51 -12 71 -37v30h57v-447zM226 226c0 89 -5 183 -63 183c-65 0 -66 -114 -66 -159c0 -37 0 -72 3 -108c4 -39 10 -103 62 -103c15 0 26 4 36 15c28 28 28 133 28 172zM218 595
h57c-2 -39 -23 -82 -68 -82c-35 0 -67 34 -90 34c-14 0 -16 -14 -16 -25h-56c4 40 26 77 70 77c31 0 65 -32 86 -32c16 0 17 16 17 28z" />
    <glyph glyph-name="adieresis" unicode="&#xe4;" horiz-adv-x="327" 
d="M277 0h-57v36c-20 -27 -41 -43 -76 -43c-102 0 -105 143 -105 222c0 91 3 239 110 239c32 0 51 -12 71 -37v30h57v-447zM226 226c0 89 -5 183 -63 183c-65 0 -66 -114 -66 -159c0 -37 0 -72 3 -108c4 -39 10 -103 62 -103c15 0 26 4 36 15c28 28 28 133 28 172zM267 557
c0 -24 -19 -44 -43 -44s-43 20 -43 44s19 43 43 43s43 -19 43 -43zM139 557c0 -24 -19 -44 -43 -44s-43 20 -43 44s19 43 43 43s43 -19 43 -43z" />
    <glyph glyph-name="aring" unicode="&#xe5;" horiz-adv-x="327" 
d="M277 0h-57v36c-20 -27 -41 -43 -76 -43c-102 0 -105 143 -105 222c0 91 3 239 110 239c32 0 51 -12 71 -37v30h57v-447zM226 226c0 89 -5 183 -63 183c-65 0 -66 -114 -66 -159c0 -37 0 -72 3 -108c4 -39 10 -103 62 -103c15 0 26 4 36 15c28 28 28 133 28 172zM235 587
c0 -44 -36 -80 -80 -80s-80 36 -80 80s36 80 80 80s80 -36 80 -80zM195 587c0 22 -18 40 -40 40s-40 -18 -40 -40s18 -40 40 -40s40 18 40 40z" />
    <glyph glyph-name="ae" unicode="&#xe6;" horiz-adv-x="508" 
d="M474 214h-197c0 -49 9 -169 78 -169c52 0 59 70 60 110h53c-2 -69 -33 -162 -116 -162c-49 0 -78 34 -97 74c-19 -44 -59 -74 -108 -74c-85 0 -114 85 -114 157s29 148 112 148c31 0 61 -13 80 -37v13c0 59 -15 128 -87 128c-31 0 -56 -18 -78 -36v62c24 17 50 26 81 26
c53 0 92 -27 114 -75c16 39 51 75 96 75c112 0 122 -158 123 -240zM279 261h139c0 44 -12 141 -71 141c-56 0 -68 -100 -68 -141zM226 145c0 45 -14 107 -71 107c-55 0 -67 -58 -67 -102c0 -43 12 -104 67 -104c54 0 71 55 71 99z" />
    <glyph glyph-name="ccedilla" unicode="&#xe7;" horiz-adv-x="246" 
d="M226 86v-70c-18 -14 -42 -23 -64 -23c-105 0 -129 143 -129 223c0 85 18 238 132 238c21 0 42 -6 61 -17v-66c-15 16 -33 31 -56 31c-71 0 -78 -131 -78 -181c0 -48 9 -175 77 -175c25 0 44 21 57 40zM210 -62l-77 -123l-36 21l67 127z" />
    <glyph glyph-name="egrave" unicode="&#xe8;" horiz-adv-x="313" 
d="M219 152h57c-3 -72 -25 -159 -113 -159c-115 0 -130 143 -130 229c0 81 17 232 126 232c105 0 121 -135 121 -214c0 -9 -1 -19 -1 -28h-189v-10c0 -45 7 -156 71 -156c50 0 57 68 58 106zM91 260h133c-2 40 -7 142 -64 142c-58 0 -67 -101 -69 -142zM215 533l-35 -26
l-115 103l54 43z" />
    <glyph glyph-name="eacute" unicode="&#xe9;" horiz-adv-x="313" 
d="M219 152h57c-3 -72 -25 -159 -113 -159c-115 0 -130 143 -130 229c0 81 17 232 126 232c105 0 121 -135 121 -214c0 -9 -1 -19 -1 -28h-189v-10c0 -45 7 -156 71 -156c50 0 57 68 58 106zM91 260h133c-2 40 -7 142 -64 142c-58 0 -67 -101 -69 -142zM265 610l-115 -103
l-35 26l96 120z" />
    <glyph glyph-name="ecircumflex" unicode="&#xea;" horiz-adv-x="313" 
d="M219 152h57c-3 -72 -25 -159 -113 -159c-115 0 -130 143 -130 229c0 81 17 232 126 232c105 0 121 -135 121 -214c0 -9 -1 -19 -1 -28h-189v-10c0 -45 7 -156 71 -156c50 0 57 68 58 106zM91 260h133c-2 40 -7 142 -64 142c-58 0 -67 -101 -69 -142zM272 545l-40 -38
l-74 69l-74 -69l-38 38l112 107z" />
    <glyph glyph-name="edieresis" unicode="&#xeb;" horiz-adv-x="313" 
d="M219 152h57c-3 -72 -25 -159 -113 -159c-115 0 -130 143 -130 229c0 81 17 232 126 232c105 0 121 -135 121 -214c0 -9 -1 -19 -1 -28h-189v-10c0 -45 7 -156 71 -156c50 0 57 68 58 106zM91 260h133c-2 40 -7 142 -64 142c-58 0 -67 -101 -69 -142zM266 557
c0 -24 -19 -44 -43 -44s-43 20 -43 44s19 43 43 43s43 -19 43 -43zM138 557c0 -24 -19 -44 -43 -44s-43 20 -43 44s19 43 43 43s43 -19 43 -43z" />
    <glyph glyph-name="igrave" unicode="&#xec;" horiz-adv-x="155" 
d="M106 0h-57v447h57v-447zM114 533l-35 -26l-115 103l54 43z" />
    <glyph glyph-name="iacute" unicode="&#xed;" horiz-adv-x="155" 
d="M106 0h-57v447h57v-447zM194 610l-115 -103l-35 26l96 120z" />
    <glyph glyph-name="icircumflex" unicode="&#xee;" horiz-adv-x="155" 
d="M106 0h-57v447h57v-447zM192 545l-40 -38l-74 69l-74 -69l-38 38l112 107z" />
    <glyph glyph-name="idieresis" unicode="&#xef;" horiz-adv-x="155" 
d="M106 0h-57v447h57v-447zM186 557c0 -24 -19 -44 -43 -44s-43 20 -43 44s19 43 43 43s43 -19 43 -43zM58 557c0 -24 -19 -44 -43 -44s-43 20 -43 44s19 43 43 43s43 -19 43 -43z" />
    <glyph glyph-name="eth" unicode="&#xf0;" horiz-adv-x="323" 
d="M267 688l-57 -35c29 -36 45 -69 57 -113c20 -99 22 -235 22 -316c0 -55 -3 -126 -32 -176c-20 -33 -53 -55 -92 -55c-116 0 -132 143 -132 231c0 83 16 230 128 230c27 0 48 -10 62 -34c-6 88 -12 150 -55 205l-65 -44l-24 38l56 37c-25 21 -54 37 -85 49l23 35
c43 -14 68 -29 104 -56l66 41zM231 224c0 46 -2 178 -70 178c-67 0 -70 -135 -70 -178c0 -46 1 -179 72 -179c23 0 39 18 48 38c15 35 20 103 20 141z" />
    <glyph glyph-name="ntilde" unicode="&#xf1;" horiz-adv-x="330" 
d="M280 0h-56v325c0 36 -1 83 -50 83c-21 0 -42 -11 -53 -29c-15 -22 -15 -52 -15 -78v-301h-56v447h56v-36c22 25 52 43 87 43c75 0 87 -62 87 -123v-331zM233 595h57c-2 -39 -23 -82 -68 -82c-35 0 -67 34 -90 34c-14 0 -16 -14 -16 -25h-56c4 40 26 77 70 77
c31 0 65 -32 86 -32c16 0 17 16 17 28z" />
    <glyph glyph-name="ograve" unicode="&#xf2;" horiz-adv-x="323" 
d="M289 221c0 -85 -10 -228 -125 -228s-131 144 -131 231s16 230 131 230c116 0 125 -147 125 -233zM231 224c0 45 -2 178 -68 178c-69 0 -71 -136 -71 -183s3 -173 71 -173c66 0 68 133 68 178zM215 533l-35 -26l-115 103l54 43z" />
    <glyph glyph-name="oacute" unicode="&#xf3;" horiz-adv-x="323" 
d="M289 221c0 -85 -10 -228 -125 -228s-131 144 -131 231s16 230 131 230c116 0 125 -147 125 -233zM231 224c0 45 -2 178 -68 178c-69 0 -71 -136 -71 -183s3 -173 71 -173c66 0 68 133 68 178zM269 610l-115 -103l-35 26l96 120z" />
    <glyph glyph-name="ocircumflex" unicode="&#xf4;" horiz-adv-x="323" 
d="M289 221c0 -85 -10 -228 -125 -228s-131 144 -131 231s16 230 131 230c116 0 125 -147 125 -233zM231 224c0 45 -2 178 -68 178c-69 0 -71 -136 -71 -183s3 -173 71 -173c66 0 68 133 68 178zM277 545l-40 -38l-74 69l-74 -69l-38 38l112 107z" />
    <glyph glyph-name="otilde" unicode="&#xf5;" horiz-adv-x="323" 
d="M289 221c0 -85 -10 -228 -125 -228s-131 144 -131 231s16 230 131 230c116 0 125 -147 125 -233zM231 224c0 45 -2 178 -68 178c-69 0 -71 -136 -71 -183s3 -173 71 -173c66 0 68 133 68 178zM222 595h57c-2 -39 -23 -82 -68 -82c-35 0 -67 34 -90 34
c-14 0 -16 -14 -16 -25h-56c4 40 26 77 70 77c31 0 65 -32 86 -32c16 0 17 16 17 28z" />
    <glyph glyph-name="odieresis" unicode="&#xf6;" horiz-adv-x="323" 
d="M289 221c0 -85 -10 -228 -125 -228s-131 144 -131 231s16 230 131 230c116 0 125 -147 125 -233zM231 224c0 45 -2 178 -68 178c-69 0 -71 -136 -71 -183s3 -173 71 -173c66 0 68 133 68 178zM271 557c0 -24 -19 -44 -43 -44s-43 20 -43 44s19 43 43 43s43 -19 43 -43z
M143 557c0 -24 -19 -44 -43 -44s-43 20 -43 44s19 43 43 43s43 -19 43 -43z" />
    <glyph glyph-name="divide" unicode="&#xf7;" 
d="M292 517c0 -23 -19 -43 -42 -43s-42 20 -42 43s19 42 42 42s42 -19 42 -42zM467 305h-434v53h434v-53zM292 146c0 -23 -19 -43 -42 -43s-42 20 -42 43s19 42 42 42s42 -19 42 -42z" />
    <glyph glyph-name="oslash" unicode="&#xf8;" horiz-adv-x="351" 
d="M318 435l-35 -60c18 -49 21 -102 21 -154c0 -85 -11 -228 -125 -228c-37 0 -68 15 -90 44l-25 -40l-31 18l36 62c-16 46 -21 97 -21 146c0 86 16 231 130 231c35 0 63 -14 85 -42l24 42zM111 141l116 218c-9 22 -24 43 -50 43c-68 0 -71 -133 -71 -180c0 -27 2 -54 5 -81
zM240 304l-116 -214c9 -23 26 -44 53 -44c65 0 69 129 69 174c0 28 -3 56 -6 84z" />
    <glyph glyph-name="ugrave" unicode="&#xf9;" horiz-adv-x="332" 
d="M282 447v-338c0 -72 -45 -116 -116 -116s-116 44 -116 116v338h56v-303c0 -46 2 -98 62 -98c58 0 58 60 58 104v297h56zM215 533l-35 -26l-115 103l54 43z" />
    <glyph glyph-name="uacute" unicode="&#xfa;" horiz-adv-x="332" 
d="M282 447v-338c0 -72 -45 -116 -116 -116s-116 44 -116 116v338h56v-303c0 -46 2 -98 62 -98c58 0 58 60 58 104v297h56zM275 610l-115 -103l-35 26l96 120z" />
    <glyph glyph-name="ucircumflex" unicode="&#xfb;" horiz-adv-x="332" 
d="M282 447v-338c0 -72 -45 -116 -116 -116s-116 44 -116 116v338h56v-303c0 -46 2 -98 62 -98c58 0 58 60 58 104v297h56zM281 545l-40 -38l-74 69l-74 -69l-38 38l112 107z" />
    <glyph glyph-name="udieresis" unicode="&#xfc;" horiz-adv-x="332" 
d="M282 447v-338c0 -72 -45 -116 -116 -116s-116 44 -116 116v338h56v-303c0 -46 2 -98 62 -98c58 0 58 60 58 104v297h56zM275 557c0 -24 -19 -44 -43 -44s-43 20 -43 44s19 43 43 43s43 -19 43 -43zM147 557c0 -24 -19 -44 -43 -44s-43 20 -43 44s19 43 43 43
s43 -19 43 -43z" />
    <glyph glyph-name="yacute" unicode="&#xfd;" horiz-adv-x="289" 
d="M283 447l-160 -627h-60l50 192l-106 435h57l56 -248c9 -37 16 -75 21 -112c4 28 11 55 18 84l65 276h59zM257 610l-115 -103l-35 26l96 120z" />
    <glyph glyph-name="thorn" unicode="&#xfe;" horiz-adv-x="324" 
d="M106 729v-312c19 25 39 37 71 37c110 0 111 -141 111 -222c0 -96 -3 -239 -105 -239c-35 0 -56 17 -77 43v-216h-56v909h56zM230 247c0 45 -1 162 -66 162c-57 0 -63 -89 -63 -183c0 -39 0 -144 28 -172c10 -11 21 -15 36 -15c52 0 58 64 62 103c3 35 3 70 3 105z" />
    <glyph glyph-name="ydieresis" unicode="&#xff;" horiz-adv-x="289" 
d="M283 447l-160 -627h-60l50 192l-106 435h57l56 -248c9 -37 16 -75 21 -112c4 28 11 55 18 84l65 276h59zM261 557c0 -24 -19 -44 -43 -44s-43 20 -43 44s19 43 43 43s43 -19 43 -43zM133 557c0 -24 -19 -44 -43 -44s-43 20 -43 44s19 43 43 43s43 -19 43 -43z" />
    <glyph glyph-name="Amacron" unicode="&#x100;" horiz-adv-x="325" 
d="M324 0h-66l-25 137h-141l-25 -137h-66l132 667h58zM223 191l-44 235c-10 52 -16 104 -19 157c-9 -132 -35 -262 -58 -392h121zM275 727h-224v55h224v-55z" />
    <glyph glyph-name="amacron" unicode="&#x101;" horiz-adv-x="327" 
d="M277 0h-57v36c-20 -27 -41 -43 -76 -43c-102 0 -105 143 -105 222c0 91 3 239 110 239c32 0 51 -12 71 -37v30h57v-447zM226 226c0 89 -5 183 -63 183c-65 0 -66 -114 -66 -159c0 -37 0 -72 3 -108c4 -39 10 -103 62 -103c15 0 26 4 36 15c28 28 28 133 28 172zM278 520
h-224v55h224v-55z" />
    <glyph glyph-name="Abreve" unicode="&#x102;" horiz-adv-x="325" 
d="M324 0h-66l-25 137h-141l-25 -137h-66l132 667h58zM223 191l-44 235c-10 52 -16 104 -19 157c-9 -132 -35 -262 -58 -392h121zM238 810h48c-7 -65 -64 -92 -123 -92s-116 27 -123 92h48c13 -31 44 -41 75 -41s62 10 75 41z" />
    <glyph glyph-name="abreve" unicode="&#x103;" horiz-adv-x="327" 
d="M277 0h-57v36c-20 -27 -41 -43 -76 -43c-102 0 -105 143 -105 222c0 91 3 239 110 239c32 0 51 -12 71 -37v30h57v-447zM226 226c0 89 -5 183 -63 183c-65 0 -66 -114 -66 -159c0 -37 0 -72 3 -108c4 -39 10 -103 62 -103c15 0 26 4 36 15c28 28 28 133 28 172zM232 599
h48c-7 -65 -64 -92 -123 -92s-116 27 -123 92h48c13 -31 44 -41 75 -41s62 10 75 41z" />
    <glyph glyph-name="Aogonek" unicode="&#x104;" horiz-adv-x="325" 
d="M133 667h58l133 -667h-20c-11 -11 -26 -27 -34 -39c-13 -18 -14 -31 -14 -36c0 -9 4 -16 9 -21c4 -3 11 -7 23 -7c8 0 19 2 30 8v-48c-13 -6 -25 -9 -40 -9c-16 0 -37 2 -54 20c-12 13 -17 30 -17 45c0 21 9 37 17 48c9 12 24 29 34 39l-25 137h-141l-25 -137h-66z
M223 191l-44 235c-7 36 -14 85 -19 157c-4 -52 -13 -147 -36 -271l-22 -121h121z" />
    <glyph glyph-name="aogonek" unicode="&#x105;" horiz-adv-x="327" 
d="M217 447h58v-447h-13c-1 -2 -20 -18 -32 -36c-3 -5 -13 -19 -13 -35c0 -12 6 -19 10 -23c6 -5 15 -8 23 -8c10 0 24 4 35 10v-47c-15 -8 -29 -11 -44 -11c-24 0 -40 7 -49 14c-15 12 -23 30 -23 48c0 19 10 37 16 47c8 13 21 29 32 41v36c-17 -29 -46 -43 -76 -43
c-27 0 -51 10 -70 36c-26 35 -35 97 -35 193v6c0 57 0 153 43 198c17 18 40 28 68 28c30 0 55 -14 70 -37v30zM223 226v12c0 67 0 129 -31 158c-10 9 -20 13 -32 13c-14 0 -23 -4 -33 -14c-26 -28 -33 -80 -33 -145v-39c0 -96 12 -137 30 -157c9 -10 19 -15 35 -15
c18 0 30 7 37 15c15 15 27 50 27 172z" />
    <glyph glyph-name="Cacute" unicode="&#x106;" horiz-adv-x="320" 
d="M302 81v-62c-26 -17 -56 -28 -87 -28c-48 0 -92 27 -120 65c-51 70 -57 177 -57 260c0 123 14 360 184 360c28 0 56 -6 80 -21v-68c-23 15 -48 29 -77 29c-120 0 -124 -196 -124 -280c0 -65 7 -191 44 -244c18 -26 43 -41 75 -41c30 0 58 14 82 30zM335 817l-115 -103
l-35 26l96 120z" />
    <glyph glyph-name="cacute" unicode="&#x107;" horiz-adv-x="246" 
d="M226 86v-70c-18 -14 -42 -23 -64 -23c-105 0 -129 143 -129 223c0 85 18 238 132 238c21 0 42 -6 61 -17v-66c-15 16 -33 31 -56 31c-71 0 -78 -131 -78 -181c0 -48 9 -175 77 -175c25 0 44 21 57 40zM275 610l-115 -103l-35 26l96 120z" />
    <glyph glyph-name="Ccircumflex" unicode="&#x108;" horiz-adv-x="320" 
d="M302 81v-62c-26 -17 -56 -28 -87 -28c-48 0 -92 27 -120 65c-51 70 -57 177 -57 260c0 123 14 360 184 360c28 0 56 -6 80 -21v-68c-23 15 -48 29 -77 29c-120 0 -124 -196 -124 -280c0 -65 7 -191 44 -244c18 -26 43 -41 75 -41c30 0 58 14 82 30zM333 752l-40 -38
l-74 69l-74 -69l-38 38l112 107z" />
    <glyph glyph-name="ccircumflex" unicode="&#x109;" horiz-adv-x="246" 
d="M226 86v-70c-18 -14 -42 -23 -64 -23c-105 0 -129 143 -129 223c0 85 18 238 132 238c21 0 42 -6 61 -17v-66c-15 16 -33 31 -56 31c-71 0 -78 -131 -78 -181c0 -48 9 -175 77 -175c25 0 44 21 57 40zM273 545l-40 -38l-74 69l-74 -69l-38 38l112 107z" />
    <glyph glyph-name="Cdotaccent" unicode="&#x10a;" horiz-adv-x="320" 
d="M302 81v-62c-26 -17 -56 -28 -87 -28c-48 0 -92 27 -120 65c-51 70 -57 177 -57 260c0 123 14 360 184 360c28 0 56 -6 80 -21v-68c-23 15 -48 29 -77 29c-120 0 -124 -196 -124 -280c0 -65 7 -191 44 -244c18 -26 43 -41 75 -41c30 0 58 14 82 30zM258 766
c0 -25 -21 -46 -46 -46s-45 21 -45 46s20 45 45 45s46 -20 46 -45z" />
    <glyph glyph-name="cdotaccent" unicode="&#x10b;" horiz-adv-x="246" 
d="M226 86v-70c-18 -14 -42 -23 -64 -23c-105 0 -129 143 -129 223c0 85 18 238 132 238c21 0 42 -6 61 -17v-66c-15 16 -33 31 -56 31c-71 0 -78 -131 -78 -181c0 -48 9 -175 77 -175c25 0 44 21 57 40zM203 559c0 -25 -21 -46 -46 -46s-45 21 -45 46s20 45 45 45
s46 -20 46 -45z" />
    <glyph glyph-name="Ccaron" unicode="&#x10c;" horiz-adv-x="320" 
d="M302 81v-62c-26 -17 -56 -28 -87 -28c-48 0 -92 27 -120 65c-51 70 -57 177 -57 260c0 123 14 360 184 360c28 0 56 -6 80 -21v-68c-23 15 -48 29 -77 29c-120 0 -124 -196 -124 -280c0 -65 7 -191 44 -244c18 -26 43 -41 75 -41c30 0 58 14 82 30zM333 821l-114 -107
l-112 107l38 38l74 -69l74 69z" />
    <glyph glyph-name="ccaron" unicode="&#x10d;" horiz-adv-x="246" 
d="M226 86v-70c-18 -14 -42 -23 -64 -23c-105 0 -129 143 -129 223c0 85 18 238 132 238c21 0 42 -6 61 -17v-66c-15 16 -33 31 -56 31c-71 0 -78 -131 -78 -181c0 -48 9 -175 77 -175c25 0 44 21 57 40zM273 614l-114 -107l-112 107l38 38l74 -69l74 69z" />
    <glyph glyph-name="Dcaron" unicode="&#x10e;" horiz-adv-x="371" 
d="M55 667h78c128 0 172 -52 191 -174c8 -56 9 -113 9 -170c0 -81 -1 -205 -55 -270c-37 -44 -86 -53 -141 -53h-82v667zM117 57h29c120 0 123 134 123 224c0 56 0 113 -5 173c-7 80 -23 156 -121 156h-26v-553zM273 821l-114 -107l-112 107l38 38l74 -69l74 69z" />
    <glyph glyph-name="dcaron" unicode="&#x10f;" horiz-adv-x="422" 
d="M271 0h-56v36c-20 -27 -42 -43 -77 -43c-103 0 -105 149 -105 227c0 87 0 234 111 234c32 0 51 -12 71 -37v312h56v-729zM220 223c0 94 -5 186 -63 186c-64 0 -65 -115 -65 -159c0 -37 0 -72 3 -108c3 -39 9 -103 61 -103c15 0 27 4 37 15c27 27 27 132 27 169zM432 648
l-74 -164l-39 19l55 173z" />
    <glyph glyph-name="Dcroat" unicode="&#x110;" horiz-adv-x="371" 
d="M55 667h78c121 0 170 -47 190 -166c9 -54 10 -111 10 -166s-2 -158 -18 -210c-29 -92 -82 -125 -178 -125h-82v321h-47v50h47v296zM117 57h29c29 0 56 6 77 28c46 48 47 143 47 215c0 54 -3 179 -18 229c-18 57 -47 81 -108 81h-27v-239h90v-50h-90v-264z" />
    <glyph glyph-name="dcroat" unicode="&#x111;" horiz-adv-x="325" 
d="M272 0h-57v36c-19 -27 -42 -43 -76 -43c-104 0 -106 149 -106 227c0 63 0 210 111 210c32 0 52 -12 71 -37v139h-103v52h103v145h57v-145h49v-52h-49v-532zM220 223c0 62 0 162 -63 162c-64 0 -65 -115 -65 -153c0 -23 0 -54 3 -90c3 -39 9 -103 61 -103c15 0 27 4 38 15
c26 28 26 131 26 169z" />
    <glyph glyph-name="Emacron" unicode="&#x112;" horiz-adv-x="301" 
d="M263 0h-208v667h208v-57h-146v-235h142v-57h-142v-261h146v-57zM274 727h-224v55h224v-55z" />
    <glyph glyph-name="emacron" unicode="&#x113;" horiz-adv-x="313" 
d="M219 152h57c-3 -72 -25 -159 -113 -159c-115 0 -130 143 -130 229c0 81 17 232 126 232c105 0 121 -135 121 -214c0 -9 -1 -19 -1 -28h-189v-10c0 -45 7 -156 71 -156c50 0 57 68 58 106zM91 260h133c-2 40 -7 142 -64 142c-58 0 -67 -101 -69 -142zM271 520h-224v55h224
v-55z" />
    <glyph glyph-name="Edotaccent" unicode="&#x116;" horiz-adv-x="301" 
d="M263 0h-208v667h208v-57h-146v-235h142v-57h-142v-261h146v-57zM208 766c0 -25 -21 -46 -46 -46s-45 21 -45 46s20 45 45 45s46 -20 46 -45z" />
    <glyph glyph-name="edotaccent" unicode="&#x117;" horiz-adv-x="313" 
d="M219 152h57c-3 -72 -25 -159 -113 -159c-115 0 -130 143 -130 229c0 81 17 232 126 232c105 0 121 -135 121 -214c0 -9 -1 -19 -1 -28h-189v-10c0 -45 7 -156 71 -156c50 0 57 68 58 106zM91 260h133c-2 40 -7 142 -64 142c-58 0 -67 -101 -69 -142zM205 559
c0 -25 -21 -46 -46 -46s-45 21 -45 46s20 45 45 45s46 -20 46 -45z" />
    <glyph glyph-name="Eogonek" unicode="&#x118;" horiz-adv-x="301" 
d="M259 318h-142v-261h146v-57h-14c-12 -10 -27 -25 -35 -33c-8 -9 -17 -21 -17 -38c0 -11 5 -19 9 -23c6 -6 16 -9 26 -9c3 0 16 0 31 8v-48c-13 -6 -27 -9 -44 -9c-15 0 -37 2 -54 20c-8 8 -17 23 -17 44c0 20 7 36 18 51c9 12 25 27 37 37h-148v667h208v-57h-146v-235
h142v-57z" />
    <glyph glyph-name="eogonek" unicode="&#x119;" horiz-adv-x="313" 
d="M219 152h57c-1 -66 -22 -103 -32 -119c-14 -22 -27 -34 -47 -60c-9 -12 -19 -27 -19 -43c0 -8 3 -18 10 -24c6 -5 15 -8 23 -8c10 0 24 4 35 10v-47c-13 -7 -28 -11 -46 -11c-25 0 -40 9 -47 14c-16 12 -23 30 -23 47c0 15 6 32 15 46c6 10 24 31 27 36
c-24 0 -58 3 -87 33c-43 44 -52 130 -52 191c0 76 9 161 58 209c20 20 42 28 70 28c32 0 54 -15 68 -29c40 -40 52 -111 52 -171c0 -15 -1 -29 -2 -42h-189v-4c0 -30 3 -63 8 -88c8 -36 19 -51 26 -58c9 -9 21 -16 39 -16c14 0 23 5 31 14c18 20 25 60 25 92zM91 260h133
c-1 38 -11 107 -33 129c-9 9 -20 13 -31 13c-13 0 -24 -6 -32 -13c-24 -22 -36 -88 -37 -129z" />
    <glyph glyph-name="Ecaron" unicode="&#x11a;" horiz-adv-x="301" 
d="M263 0h-208v667h208v-57h-146v-235h142v-57h-142v-261h146v-57zM278 821l-114 -107l-112 107l38 38l74 -69l74 69z" />
    <glyph glyph-name="ecaron" unicode="&#x11b;" horiz-adv-x="313" 
d="M219 152h57c-3 -72 -25 -159 -113 -159c-115 0 -130 143 -130 229c0 81 17 232 126 232c105 0 121 -135 121 -214c0 -9 -1 -19 -1 -28h-189v-10c0 -45 7 -156 71 -156c50 0 57 68 58 106zM91 260h133c-2 40 -7 142 -64 142c-58 0 -67 -101 -69 -142zM272 614l-114 -107
l-112 107l38 38l74 -69l74 69z" />
    <glyph glyph-name="Gcircumflex" unicode="&#x11c;" horiz-adv-x="374" 
d="M336 352v-134c0 -32 0 -65 -5 -97c-12 -76 -56 -130 -137 -130c-50 0 -90 21 -115 64c-38 66 -41 218 -41 295c0 114 3 326 162 326c82 0 116 -54 135 -126l-61 -24c-8 42 -23 90 -74 90c-98 0 -99 -175 -99 -243c0 -70 -1 -193 21 -257c13 -38 33 -65 76 -65
c73 0 76 84 76 138v106h-91v57h153zM313 752l-40 -38l-74 69l-74 -69l-38 38l112 107z" />
    <glyph glyph-name="gcircumflex" unicode="&#x11d;" horiz-adv-x="331" 
d="M281 447v-496c0 -81 -31 -131 -117 -131c-78 0 -116 49 -116 124c0 6 0 12 1 17h57c0 -45 5 -88 61 -88c55 0 57 44 57 87v72c-20 -22 -41 -32 -71 -32c-113 0 -114 152 -114 233c0 75 8 221 111 221c32 0 54 -13 74 -38v31h57zM230 250c0 47 0 158 -68 158
c-60 0 -65 -103 -65 -196c0 -48 1 -166 70 -166c50 0 57 59 60 96s3 72 3 108zM281 545l-40 -38l-74 69l-74 -69l-38 38l112 107z" />
    <glyph glyph-name="Gbreve" unicode="&#x11e;" horiz-adv-x="374" 
d="M336 352v-134c0 -32 0 -65 -5 -97c-12 -76 -56 -130 -137 -130c-50 0 -90 21 -115 64c-38 66 -41 218 -41 295c0 114 3 326 162 326c82 0 116 -54 135 -126l-61 -24c-8 42 -23 90 -74 90c-98 0 -99 -175 -99 -243c0 -70 -1 -193 21 -257c13 -38 33 -65 76 -65
c73 0 76 84 76 138v106h-91v57h153zM275 810h48c-7 -65 -64 -92 -123 -92s-116 27 -123 92h48c13 -31 44 -41 75 -41s62 10 75 41z" />
    <glyph glyph-name="gbreve" unicode="&#x11f;" horiz-adv-x="331" 
d="M281 447v-496c0 -81 -31 -131 -117 -131c-78 0 -116 49 -116 124c0 6 0 12 1 17h57c0 -45 5 -88 61 -88c55 0 57 44 57 87v72c-20 -22 -41 -32 -71 -32c-113 0 -114 152 -114 233c0 75 8 221 111 221c32 0 54 -13 74 -38v31h57zM230 250c0 47 0 158 -68 158
c-60 0 -65 -103 -65 -196c0 -48 1 -166 70 -166c50 0 57 59 60 96s3 72 3 108zM243 599h48c-7 -65 -64 -92 -123 -92s-116 27 -123 92h48c13 -31 44 -41 75 -41s62 10 75 41z" />
    <glyph glyph-name="Gdotaccent" unicode="&#x120;" horiz-adv-x="374" 
d="M336 352v-134c0 -32 0 -65 -5 -97c-12 -76 -56 -130 -137 -130c-50 0 -90 21 -115 64c-38 66 -41 218 -41 295c0 114 3 326 162 326c82 0 116 -54 135 -126l-61 -24c-8 42 -23 90 -74 90c-98 0 -99 -175 -99 -243c0 -70 -1 -193 21 -257c13 -38 33 -65 76 -65
c73 0 76 84 76 138v106h-91v57h153zM240 766c0 -25 -21 -46 -46 -46s-45 21 -45 46s20 45 45 45s46 -20 46 -45z" />
    <glyph glyph-name="gdotaccent" unicode="&#x121;" horiz-adv-x="331" 
d="M281 447v-496c0 -81 -31 -131 -117 -131c-78 0 -116 49 -116 124c0 6 0 12 1 17h57c0 -45 5 -88 61 -88c55 0 57 44 57 87v72c-20 -22 -41 -32 -71 -32c-113 0 -114 152 -114 233c0 75 8 221 111 221c32 0 54 -13 74 -38v31h57zM230 250c0 47 0 158 -68 158
c-60 0 -65 -103 -65 -196c0 -48 1 -166 70 -166c50 0 57 59 60 96s3 72 3 108zM200 559c0 -25 -21 -46 -46 -46s-45 21 -45 46s20 45 45 45s46 -20 46 -45z" />
    <glyph glyph-name="Gcommaaccent" unicode="&#x122;" horiz-adv-x="374" 
d="M336 352v-134c0 -32 0 -65 -5 -97c-12 -76 -56 -130 -137 -130c-50 0 -90 21 -115 64c-38 66 -41 218 -41 295c0 114 3 326 162 326c82 0 116 -54 135 -126l-61 -24c-8 42 -23 90 -74 90c-98 0 -99 -175 -99 -243c0 -70 -1 -193 21 -257c13 -38 33 -65 76 -65
c73 0 76 84 76 138v106h-91v57h153zM245 -77l-72 -154l-39 19l53 163z" />
    <glyph glyph-name="gcommaaccent" unicode="&#x123;" horiz-adv-x="331" 
d="M281 447v-496c0 -81 -31 -131 -117 -131c-78 0 -116 49 -116 124c0 6 0 12 1 17h57c0 -45 5 -88 61 -88c55 0 57 44 57 87v72c-20 -22 -41 -32 -71 -32c-113 0 -114 152 -114 233c0 75 8 221 111 221c32 0 54 -13 74 -38v31h57zM230 250c0 47 0 158 -68 158
c-60 0 -65 -103 -65 -196c0 -48 1 -166 70 -166c50 0 57 59 60 96s3 72 3 108zM109 530l72 154l39 -19l-53 -163z" />
    <glyph glyph-name="Hcircumflex" unicode="&#x124;" horiz-adv-x="385" 
d="M331 0h-62v344h-152v-344h-62v667h62v-266h152v266h62v-667zM306 752l-40 -38l-74 69l-74 -69l-38 38l112 107z" />
    <glyph glyph-name="hcircumflex" unicode="&#x125;" horiz-adv-x="330" 
d="M280 0h-56v325c0 36 -1 83 -50 83c-21 0 -42 -11 -53 -29c-15 -23 -15 -52 -15 -78v-301h-56v729h56v-318c22 25 52 43 87 43c73 0 87 -52 87 -115v-339zM193 775l-40 -38l-74 69l-74 -69l-38 38l112 107z" />
    <glyph glyph-name="Hbar" unicode="&#x126;" horiz-adv-x="385" 
d="M331 0h-62v344h-152v-344h-62v562h-50v47h50v58h62v-58h152v58h62v-58h50v-47h-50v-562zM269 562h-152v-161h152v161z" />
    <glyph glyph-name="hbar" unicode="&#x127;" horiz-adv-x="340" 
d="M290 0h-56v297c0 37 1 87 -50 87c-21 0 -42 -11 -54 -29c-15 -23 -15 -52 -15 -78v-277h-56v532h-49v52h49v145h56v-145h104v-52h-104v-145c23 25 53 43 87 43c73 0 88 -52 88 -115v-315z" />
    <glyph glyph-name="Imacron" unicode="&#x12a;" horiz-adv-x="171" 
d="M117 0h-62v667h62v-667zM196 727h-224v55h224v-55z" />
    <glyph glyph-name="imacron" unicode="&#x12b;" horiz-adv-x="155" 
d="M106 0h-57v447h57v-447zM191 520h-224v55h224v-55z" />
    <glyph glyph-name="Iogonek" unicode="&#x12e;" horiz-adv-x="171" 
d="M55 667h62v-667c-12 -10 -27 -25 -35 -33c-8 -9 -17 -21 -17 -38c0 -11 5 -19 9 -23c6 -6 16 -9 26 -9c3 0 16 0 31 8v-48c-13 -6 -27 -9 -44 -9c-15 0 -37 2 -54 20c-8 8 -17 23 -17 44c0 20 7 36 18 51c9 12 25 27 37 37h-16v667z" />
    <glyph glyph-name="iogonek" unicode="&#x12f;" horiz-adv-x="155" 
d="M50 447h56v-447c-11 -10 -22 -22 -31 -35c-6 -9 -14 -23 -14 -37c0 -11 5 -18 10 -22c6 -5 15 -8 23 -8c10 0 24 4 35 10v-47c-15 -8 -29 -11 -44 -11c-24 0 -40 7 -49 14c-15 12 -23 30 -23 48c0 19 10 37 16 47c8 13 21 29 32 41h-11v447zM36 588c0 21 17 42 41 42
s43 -20 43 -42s-19 -42 -43 -42s-41 21 -41 42z" />
    <glyph glyph-name="Idotaccent" unicode="&#x130;" horiz-adv-x="171" 
d="M117 0h-62v667h62v-667zM132 766c0 -25 -21 -46 -46 -46s-45 21 -45 46s20 45 45 45s46 -20 46 -45z" />
    <glyph glyph-name="dotlessi" unicode="&#x131;" horiz-adv-x="155" 
d="M106 0h-57v447h57v-447z" />
    <glyph glyph-name="Jcircumflex" unicode="&#x134;" horiz-adv-x="224" 
d="M169 667v-571c0 -10 0 -19 -1 -29c-5 -54 -44 -77 -95 -77c-26 0 -49 7 -72 18v64c19 -16 37 -28 62 -28c43 0 44 35 44 67v556h62zM246 752l-40 -38l-74 69l-74 -69l-38 38l112 107z" />
    <glyph glyph-name="jcircumflex" unicode="&#x135;" horiz-adv-x="159" 
d="M110 -180h-58v627h58v-627zM194 545l-40 -38l-74 69l-74 -69l-38 38l112 107z" />
    <glyph glyph-name="Kcommaaccent" unicode="&#x136;" horiz-adv-x="329" 
d="M321 0h-70l-134 336v-336h-62v667h62v-303l134 303h69l-144 -318zM231 -77l-72 -154l-39 19l53 163z" />
    <glyph glyph-name="kcommaaccent" unicode="&#x137;" horiz-adv-x="300" 
d="M316 0h-71l-139 214v-214h-56v729h56v-464l112 182h63l-128 -200zM221 -77l-72 -154l-39 19l53 163z" />
    <glyph glyph-name="Lacute" unicode="&#x139;" horiz-adv-x="263" 
d="M261 0h-206v667h62v-610h144v-57zM215 817l-115 -103l-35 26l96 120z" />
    <glyph glyph-name="lacute" unicode="&#x13a;" horiz-adv-x="157" 
d="M107 0h-57v729h57v-729zM194 870l-115 -103l-35 26l96 120z" />
    <glyph glyph-name="Lcommaaccent" unicode="&#x13b;" horiz-adv-x="263" 
d="M261 0h-206v667h62v-610h144v-57zM206 -77l-72 -154l-39 19l53 163z" />
    <glyph glyph-name="lcommaaccent" unicode="&#x13c;" horiz-adv-x="157" 
d="M107 0h-57v729h57v-729zM127 -77l-72 -154l-39 19l53 163z" />
    <glyph glyph-name="Lcaron" unicode="&#x13d;" horiz-adv-x="263" 
d="M261 0h-206v667h62v-610h144v-57zM282 648l-83 -186l-39 19l64 195z" />
    <glyph glyph-name="lcaron" unicode="&#x13e;" horiz-adv-x="242" 
d="M107 0h-57v729h57v-729zM252 648l-74 -164l-39 19l55 173z" />
    <glyph glyph-name="Ldot" unicode="&#x13f;" horiz-adv-x="263" 
d="M261 0h-206v667h62v-610h144v-57zM258 334c0 -25 -21 -46 -46 -46s-45 21 -45 46s20 45 45 45s46 -20 46 -45z" />
    <glyph glyph-name="ldot" unicode="&#x140;" horiz-adv-x="228" 
d="M107 0h-57v729h57v-729zM238 365c0 -25 -21 -46 -46 -46s-45 21 -45 46s20 45 45 45s46 -20 46 -45z" />
    <glyph glyph-name="Lslash" unicode="&#x141;" horiz-adv-x="263" 
d="M262 0h-206v280l-49 -70v64l49 70v323h62v-273l86 104v-64l-86 -104v-273h144v-57z" />
    <glyph glyph-name="lslash" unicode="&#x142;" horiz-adv-x="170" 
d="M164 458l-50 -69v-389h-57v335l-50 -70v66l50 69v329h57v-275l50 69v-65z" />
    <glyph glyph-name="Nacute" unicode="&#x143;" horiz-adv-x="387" 
d="M332 0h-54l-148 440c-10 31 -19 62 -27 94c4 -35 6 -70 6 -105v-429h-54v667h54l151 -453c9 -26 16 -53 24 -79c-4 27 -6 55 -6 82v450h54v-667zM299 817l-115 -103l-35 26l96 120z" />
    <glyph glyph-name="nacute" unicode="&#x144;" horiz-adv-x="330" 
d="M280 0h-56v325c0 36 -1 83 -50 83c-21 0 -42 -11 -53 -29c-15 -22 -15 -52 -15 -78v-301h-56v447h56v-36c22 25 52 43 87 43c75 0 87 -62 87 -123v-331zM282 610l-115 -103l-35 26l96 120z" />
    <glyph glyph-name="Ncommaaccent" unicode="&#x145;" horiz-adv-x="387" 
d="M332 0h-54l-148 440c-10 31 -19 62 -27 94c4 -35 6 -70 6 -105v-429h-54v667h54l151 -453c9 -26 16 -53 24 -79c-4 27 -6 55 -6 82v450h54v-667zM241 -77l-72 -154l-39 19l53 163z" />
    <glyph glyph-name="ncommaaccent" unicode="&#x146;" horiz-adv-x="330" 
d="M280 0h-56v325c0 36 -1 83 -50 83c-21 0 -42 -11 -53 -29c-15 -22 -15 -52 -15 -78v-301h-56v447h56v-36c22 25 52 43 87 43c75 0 87 -62 87 -123v-331zM215 -77l-72 -154l-39 19l53 163z" />
    <glyph glyph-name="Ncaron" unicode="&#x147;" horiz-adv-x="387" 
d="M332 0h-54l-148 440c-10 31 -19 62 -27 94c4 -35 6 -70 6 -105v-429h-54v667h54l151 -453c9 -26 16 -53 24 -79c-4 27 -6 55 -6 82v450h54v-667zM307 821l-114 -107l-112 107l38 38l74 -69l74 69z" />
    <glyph glyph-name="ncaron" unicode="&#x148;" horiz-adv-x="330" 
d="M280 0h-56v325c0 36 -1 83 -50 83c-21 0 -42 -11 -53 -29c-15 -22 -15 -52 -15 -78v-301h-56v447h56v-36c22 25 52 43 87 43c75 0 87 -62 87 -123v-331zM288 614l-114 -107l-112 107l38 38l74 -69l74 69z" />
    <glyph glyph-name="Omacron" unicode="&#x14c;" horiz-adv-x="404" 
d="M366 336c0 -112 -4 -345 -163 -345c-156 0 -165 231 -165 342c0 110 10 343 164 343c157 0 164 -228 164 -340zM303 358c0 68 -1 258 -100 258c-104 0 -102 -211 -102 -282c0 -70 -1 -283 102 -283c75 0 89 98 94 155c5 50 6 101 6 152zM314 727h-224v55h224v-55z" />
    <glyph glyph-name="omacron" unicode="&#x14d;" horiz-adv-x="323" 
d="M289 221c0 -85 -10 -228 -125 -228s-131 144 -131 231s16 230 131 230c116 0 125 -147 125 -233zM231 224c0 45 -2 178 -68 178c-69 0 -71 -136 -71 -183s3 -173 71 -173c66 0 68 133 68 178zM276 520h-224v55h224v-55z" />
    <glyph glyph-name="Obreve" unicode="&#x14e;" horiz-adv-x="404" 
d="M366 336c0 -112 -4 -345 -163 -345c-156 0 -165 231 -165 342c0 110 10 343 164 343c157 0 164 -228 164 -340zM303 358c0 68 -1 258 -100 258c-104 0 -102 -211 -102 -282c0 -70 -1 -283 102 -283c75 0 89 98 94 155c5 50 6 101 6 152zM277 810h48
c-7 -65 -64 -92 -123 -92s-116 27 -123 92h48c13 -31 44 -41 75 -41s62 10 75 41z" />
    <glyph glyph-name="obreve" unicode="&#x14f;" horiz-adv-x="323" 
d="M289 221c0 -85 -10 -228 -125 -228s-131 144 -131 231s16 230 131 230c116 0 125 -147 125 -233zM231 224c0 45 -2 178 -68 178c-69 0 -71 -136 -71 -183s3 -173 71 -173c66 0 68 133 68 178zM239 599h48c-7 -65 -64 -92 -123 -92s-116 27 -123 92h48
c13 -31 44 -41 75 -41s62 10 75 41z" />
    <glyph glyph-name="Ohungarumlaut" unicode="&#x150;" horiz-adv-x="404" 
d="M366 336c0 -112 -4 -345 -163 -345c-156 0 -165 231 -165 342c0 110 10 343 164 343c157 0 164 -228 164 -340zM303 358c0 68 -1 258 -100 258c-104 0 -102 -211 -102 -282c0 -70 -1 -283 102 -283c75 0 89 98 94 155c5 50 6 101 6 152zM333 830l-70 -116l-37 13l51 125z
M230 830l-69 -116l-37 13l50 125z" />
    <glyph glyph-name="ohungarumlaut" unicode="&#x151;" horiz-adv-x="323" 
d="M289 221c0 -85 -10 -228 -125 -228s-131 144 -131 231s16 230 131 230c116 0 125 -147 125 -233zM231 224c0 45 -2 178 -68 178c-69 0 -71 -136 -71 -183s3 -173 71 -173c66 0 68 133 68 178zM288 623l-70 -116l-37 13l51 125zM185 623l-69 -116l-37 13l50 125z" />
    <glyph glyph-name="OE" unicode="&#x152;" horiz-adv-x="541" 
d="M503 0h-206v69c-20 -48 -52 -79 -106 -79c-147 0 -153 247 -153 350c0 105 10 336 158 336c47 0 80 -30 101 -69v60h206v-57h-147v-235h143v-57h-143v-261h147v-57zM295 302c0 58 -2 116 -9 174c-6 51 -20 140 -87 140c-32 0 -48 -16 -62 -43c-31 -59 -36 -199 -36 -268
c0 -66 1 -254 97 -254s97 185 97 251z" />
    <glyph glyph-name="oe" unicode="&#x153;" horiz-adv-x="502" 
d="M469 214h-192c1 -50 6 -168 77 -168c50 0 53 72 53 108h52c1 -9 1 -18 1 -27c0 -64 -38 -134 -109 -134c-56 0 -88 45 -101 95c-11 -48 -40 -95 -95 -95c-106 0 -122 155 -122 234c0 78 18 227 122 227c54 0 84 -46 95 -94c11 50 48 94 102 94c110 0 117 -160 117 -240z
M415 261v8c0 41 -13 133 -68 133c-59 0 -69 -98 -69 -141h137zM224 220c0 44 -4 182 -68 182c-62 0 -69 -129 -69 -172c0 -44 6 -184 70 -184c60 0 67 132 67 174z" />
    <glyph glyph-name="Racute" unicode="&#x154;" horiz-adv-x="376" 
d="M353 0h-71l-155 326v-326h-68v667h84c39 0 80 0 115 -19c60 -32 72 -98 72 -160c0 -92 -31 -160 -132 -168zM127 375h41c80 0 93 47 93 117c0 77 -16 118 -101 118h-33v-235zM285 817l-115 -103l-35 26l96 120z" />
    <glyph glyph-name="racute" unicode="&#x155;" horiz-adv-x="195" 
d="M182 454v-65c-75 0 -76 -60 -76 -118v-271h-56v447h56v-58c15 33 37 63 76 65zM225 610l-115 -103l-35 26l96 120z" />
    <glyph glyph-name="Rcommaaccent" unicode="&#x156;" horiz-adv-x="376" 
d="M353 0h-71l-155 326v-326h-68v667h84c39 0 80 0 115 -19c60 -32 72 -98 72 -160c0 -92 -31 -160 -132 -168zM127 375h41c80 0 93 47 93 117c0 77 -16 118 -101 118h-33v-235zM251 -77l-72 -154l-39 19l53 163z" />
    <glyph glyph-name="rcommaaccent" unicode="&#x157;" horiz-adv-x="195" 
d="M182 454v-65c-75 0 -76 -60 -76 -118v-271h-56v447h56v-58c15 33 37 63 76 65zM141 -77l-72 -154l-39 19l53 163z" />
    <glyph glyph-name="Rcaron" unicode="&#x158;" horiz-adv-x="376" 
d="M353 0h-71l-155 326v-326h-68v667h84c39 0 80 0 115 -19c60 -32 72 -98 72 -160c0 -92 -31 -160 -132 -168zM127 375h41c80 0 93 47 93 117c0 77 -16 118 -101 118h-33v-235zM283 821l-114 -107l-112 107l38 38l74 -69l74 69z" />
    <glyph glyph-name="rcaron" unicode="&#x159;" horiz-adv-x="195" 
d="M182 454v-65c-75 0 -76 -60 -76 -118v-271h-56v447h56v-58c15 33 37 63 76 65zM223 614l-114 -107l-112 107l38 38l74 -69l74 69z" />
    <glyph glyph-name="Sacute" unicode="&#x15a;" horiz-adv-x="326" 
d="M278 640v-78c-27 32 -55 54 -99 54c-61 0 -96 -52 -96 -109c0 -154 228 -144 228 -329c0 -96 -65 -188 -167 -188c-38 0 -75 13 -105 35v80c29 -30 64 -54 108 -54c65 0 101 59 101 119c0 153 -228 142 -228 329c0 91 56 177 154 177c40 0 72 -13 104 -36zM290 817
l-115 -103l-35 26l96 120z" />
    <glyph glyph-name="sacute" unicode="&#x15b;" horiz-adv-x="249" 
d="M219 425v-69c-20 24 -45 46 -77 46c-33 0 -55 -27 -55 -59c0 -87 144 -103 144 -224c0 -69 -49 -126 -120 -126c-30 0 -59 12 -83 31v66c22 -23 47 -44 79 -44c40 0 65 32 65 69c0 88 -144 118 -144 226c0 65 46 113 111 113c30 0 55 -11 80 -29zM241 610l-115 -103
l-35 26l96 120z" />
    <glyph glyph-name="Scircumflex" unicode="&#x15c;" horiz-adv-x="326" 
d="M278 640v-78c-27 32 -55 54 -99 54c-61 0 -96 -52 -96 -109c0 -154 228 -144 228 -329c0 -96 -65 -188 -167 -188c-38 0 -75 13 -105 35v80c29 -30 64 -54 108 -54c65 0 101 59 101 119c0 153 -228 142 -228 329c0 91 56 177 154 177c40 0 72 -13 104 -36zM286 752
l-40 -38l-74 69l-74 -69l-38 38l112 107z" />
    <glyph glyph-name="scircumflex" unicode="&#x15d;" horiz-adv-x="249" 
d="M219 425v-69c-20 24 -45 46 -77 46c-33 0 -55 -27 -55 -59c0 -87 144 -103 144 -224c0 -69 -49 -126 -120 -126c-30 0 -59 12 -83 31v66c22 -23 47 -44 79 -44c40 0 65 32 65 69c0 88 -144 118 -144 226c0 65 46 113 111 113c30 0 55 -11 80 -29zM253 545l-40 -38l-74 69
l-74 -69l-38 38l112 107z" />
    <glyph glyph-name="Scedilla" unicode="&#x15e;" horiz-adv-x="326" 
d="M278 640v-78c-27 32 -55 54 -99 54c-61 0 -96 -52 -96 -109c0 -154 228 -144 228 -329c0 -96 -65 -188 -167 -188c-38 0 -75 13 -105 35v80c29 -30 64 -54 108 -54c65 0 101 59 101 119c0 153 -228 142 -228 329c0 91 56 177 154 177c40 0 72 -13 104 -36zM190 -62
l-77 -123l-36 21l67 127z" />
    <glyph glyph-name="scedilla" unicode="&#x15f;" horiz-adv-x="249" 
d="M219 425v-69c-20 24 -45 46 -77 46c-33 0 -55 -27 -55 -59c0 -87 144 -103 144 -224c0 -69 -49 -126 -120 -126c-30 0 -59 12 -83 31v66c22 -23 47 -44 79 -44c40 0 65 32 65 69c0 88 -144 118 -144 226c0 65 46 113 111 113c30 0 55 -11 80 -29zM159 -62l-77 -123
l-36 21l67 127z" />
    <glyph glyph-name="Scaron" unicode="&#x160;" horiz-adv-x="326" 
d="M278 640v-78c-27 32 -55 54 -99 54c-61 0 -96 -52 -96 -109c0 -154 228 -144 228 -329c0 -96 -65 -188 -167 -188c-38 0 -75 13 -105 35v80c29 -30 64 -54 108 -54c65 0 101 59 101 119c0 153 -228 142 -228 329c0 91 56 177 154 177c40 0 72 -13 104 -36zM286 821
l-114 -107l-112 107l38 38l74 -69l74 69z" />
    <glyph glyph-name="scaron" unicode="&#x161;" horiz-adv-x="249" 
d="M219 425v-69c-20 24 -45 46 -77 46c-33 0 -55 -27 -55 -59c0 -87 144 -103 144 -224c0 -69 -49 -126 -120 -126c-30 0 -59 12 -83 31v66c22 -23 47 -44 79 -44c40 0 65 32 65 69c0 88 -144 118 -144 226c0 65 46 113 111 113c30 0 55 -11 80 -29zM253 614l-114 -107
l-112 107l38 38l74 -69l74 69z" />
    <glyph glyph-name="Tcedilla" unicode="&#x162;" horiz-adv-x="265" 
d="M263 610h-100v-610h-62v610h-100v57h262v-57zM182 -62l-77 -123l-36 21l67 127z" />
    <glyph glyph-name="tcedilla" unicode="&#x163;" horiz-adv-x="199" 
d="M198 395h-75v-395h-56v395h-48v52h48v127h56v-127h75v-52zM142 -62l-77 -123l-36 21l67 127z" />
    <glyph glyph-name="Tcaron" unicode="&#x164;" horiz-adv-x="265" 
d="M263 610h-100v-610h-62v610h-100v57h262v-57zM246 821l-114 -107l-112 107l38 38l74 -69l74 69z" />
    <glyph glyph-name="tcaron" unicode="&#x165;" horiz-adv-x="262" 
d="M198 395h-75v-395h-56v395h-48v52h48v127h56v-127h75v-52zM272 648l-74 -164l-39 19l55 173z" />
    <glyph glyph-name="Utilde" unicode="&#x168;" horiz-adv-x="390" 
d="M335 667v-491c0 -31 -1 -62 -9 -92c-17 -62 -68 -93 -131 -93s-113 31 -131 93c-9 30 -9 62 -9 93v490h62v-499c0 -56 7 -117 78 -117c87 0 78 93 78 154v462h62zM253 802h57c-2 -39 -23 -82 -68 -82c-35 0 -67 34 -90 34c-14 0 -16 -14 -16 -25h-56c4 40 26 77 70 77
c31 0 65 -32 86 -32c16 0 17 16 17 28z" />
    <glyph glyph-name="utilde" unicode="&#x169;" horiz-adv-x="332" 
d="M282 447v-338c0 -72 -45 -116 -116 -116s-116 44 -116 116v338h56v-303c0 -46 2 -98 62 -98c58 0 58 60 58 104v297h56zM226 595h57c-2 -39 -23 -82 -68 -82c-35 0 -67 34 -90 34c-14 0 -16 -14 -16 -25h-56c4 40 26 77 70 77c31 0 65 -32 86 -32c16 0 17 16 17 28z" />
    <glyph glyph-name="Umacron" unicode="&#x16a;" horiz-adv-x="390" 
d="M335 667v-491c0 -31 -1 -62 -9 -92c-17 -62 -68 -93 -131 -93s-113 31 -131 93c-9 30 -9 62 -9 93v490h62v-499c0 -56 7 -117 78 -117c87 0 78 93 78 154v462h62zM307 727h-224v55h224v-55z" />
    <glyph glyph-name="umacron" unicode="&#x16b;" horiz-adv-x="332" 
d="M282 447v-338c0 -72 -45 -116 -116 -116s-116 44 -116 116v338h56v-303c0 -46 2 -98 62 -98c58 0 58 60 58 104v297h56zM280 520h-224v55h224v-55z" />
    <glyph glyph-name="Ubreve" unicode="&#x16c;" horiz-adv-x="390" 
d="M335 667v-491c0 -31 -1 -62 -9 -92c-17 -62 -68 -93 -131 -93s-113 31 -131 93c-9 30 -9 62 -9 93v490h62v-499c0 -56 7 -117 78 -117c87 0 78 93 78 154v462h62zM270 810h48c-7 -65 -64 -92 -123 -92s-116 27 -123 92h48c13 -31 44 -41 75 -41s62 10 75 41z" />
    <glyph glyph-name="ubreve" unicode="&#x16d;" horiz-adv-x="332" 
d="M282 447v-338c0 -72 -45 -116 -116 -116s-116 44 -116 116v338h56v-303c0 -46 2 -98 62 -98c58 0 58 60 58 104v297h56zM243 599h48c-7 -65 -64 -92 -123 -92s-116 27 -123 92h48c13 -31 44 -41 75 -41s62 10 75 41z" />
    <glyph glyph-name="Uring" unicode="&#x16e;" horiz-adv-x="390" 
d="M335 667v-491c0 -31 -1 -62 -9 -92c-17 -62 -68 -93 -131 -93s-113 31 -131 93c-9 30 -9 62 -9 93v490h62v-499c0 -56 7 -117 78 -117c87 0 78 93 78 154v462h62zM276 794c0 -44 -36 -80 -80 -80s-80 36 -80 80s36 80 80 80s80 -36 80 -80zM236 794c0 22 -18 40 -40 40
s-40 -18 -40 -40s18 -40 40 -40s40 18 40 40z" />
    <glyph glyph-name="uring" unicode="&#x16f;" horiz-adv-x="332" 
d="M282 447v-338c0 -72 -45 -116 -116 -116s-116 44 -116 116v338h56v-303c0 -46 2 -98 62 -98c58 0 58 60 58 104v297h56zM249 587c0 -44 -36 -80 -80 -80s-80 36 -80 80s36 80 80 80s80 -36 80 -80zM209 587c0 22 -18 40 -40 40s-40 -18 -40 -40s18 -40 40 -40
s40 18 40 40z" />
    <glyph glyph-name="Uhungarumlaut" unicode="&#x170;" horiz-adv-x="390" 
d="M335 667v-491c0 -31 -1 -62 -9 -92c-17 -62 -68 -93 -131 -93s-113 31 -131 93c-9 30 -9 62 -9 93v490h62v-499c0 -56 7 -117 78 -117c87 0 78 93 78 154v462h62zM323 830l-70 -116l-37 13l51 125zM220 830l-69 -116l-37 13l50 125z" />
    <glyph glyph-name="uhungarumlaut" unicode="&#x171;" horiz-adv-x="332" 
d="M282 447v-338c0 -72 -45 -116 -116 -116s-116 44 -116 116v338h56v-303c0 -46 2 -98 62 -98c58 0 58 60 58 104v297h56zM294 623l-70 -116l-37 13l51 125zM191 623l-69 -116l-37 13l50 125z" />
    <glyph glyph-name="Uogonek" unicode="&#x172;" horiz-adv-x="390" 
d="M335 667v-491c0 -43 -1 -86 -20 -121c-13 -23 -31 -40 -49 -55c-16 -13 -27 -22 -36 -33c-7 -8 -16 -21 -16 -38c0 -10 4 -18 9 -23c6 -6 16 -9 26 -9c3 0 16 0 31 8v-48c-13 -6 -27 -9 -44 -9c-15 0 -37 2 -54 20c-8 8 -17 23 -17 44c0 17 5 34 18 51c3 3 7 9 25 28
c-44 0 -82 8 -110 35c-41 39 -43 92 -43 150v491h62v-488c0 -40 1 -88 27 -111c13 -11 35 -17 51 -17s38 6 51 17c26 23 27 71 27 111v488h62z" />
    <glyph glyph-name="uogonek" unicode="&#x173;" horiz-adv-x="332" 
d="M282 447v-332c0 -30 -5 -56 -23 -82c-14 -20 -25 -26 -52 -58c-8 -9 -22 -27 -22 -45c0 -8 3 -18 10 -24c6 -5 15 -8 23 -8c10 0 24 4 35 10v-47c-13 -7 -28 -11 -46 -11c-25 0 -40 9 -47 14c-16 12 -23 30 -23 47c0 18 8 33 15 45s18 26 27 37c-34 0 -70 4 -99 33
s-30 61 -30 95v326h56v-306c0 -28 2 -62 19 -80c12 -13 28 -15 41 -15s29 2 41 15c17 18 19 52 19 80v306h56z" />
    <glyph glyph-name="Ydieresis" unicode="&#x178;" horiz-adv-x="316" 
d="M315 667l-122 -378v-289h-62v289l-130 378h67l62 -191c8 -24 23 -78 32 -123c4 26 10 59 29 122l57 192h67zM269 764c0 -24 -19 -44 -43 -44s-43 20 -43 44s19 43 43 43s43 -19 43 -43zM141 764c0 -24 -19 -44 -43 -44s-43 20 -43 44s19 43 43 43s43 -19 43 -43z" />
    <glyph glyph-name="Zacute" unicode="&#x179;" horiz-adv-x="279" 
d="M271 667l-187 -610h169v-57h-245l185 610h-167v57h245zM255 817l-115 -103l-35 26l96 120z" />
    <glyph glyph-name="zacute" unicode="&#x17a;" horiz-adv-x="271" 
d="M266 447l-180 -395h151v-52h-232l176 395h-153v52h238zM253 610l-115 -103l-35 26l96 120z" />
    <glyph glyph-name="Zdotaccent" unicode="&#x17b;" horiz-adv-x="279" 
d="M271 667l-187 -610h169v-57h-245l185 610h-167v57h245zM186 766c0 -25 -21 -46 -46 -46s-45 21 -45 46s20 45 45 45s46 -20 46 -45z" />
    <glyph glyph-name="zdotaccent" unicode="&#x17c;" horiz-adv-x="271" 
d="M266 447l-180 -395h151v-52h-232l176 395h-153v52h238zM192 559c0 -25 -21 -46 -46 -46s-45 21 -45 46s20 45 45 45s46 -20 46 -45z" />
    <glyph glyph-name="Zcaron" unicode="&#x17d;" horiz-adv-x="279" 
d="M271 667l-187 -610h169v-57h-245l185 610h-167v57h245zM263 821l-114 -107l-112 107l38 38l74 -69l74 69z" />
    <glyph glyph-name="zcaron" unicode="&#x17e;" horiz-adv-x="271" 
d="M266 447l-180 -395h151v-52h-232l176 395h-153v52h238zM263 614l-114 -107l-112 107l38 38l74 -69l74 69z" />
    <glyph glyph-name="uni018F" unicode="&#x18f;" horiz-adv-x="374" 
d="M38 352h235v21c0 113 -12 184 -48 221c-15 16 -32 22 -51 22c-20 0 -36 -8 -49 -24s-23 -47 -26 -71l-61 24c8 36 29 77 51 99c28 28 57 32 85 32c37 0 65 -7 94 -36c65 -65 68 -184 68 -290c0 -66 -1 -119 -8 -179c-5 -42 -15 -106 -53 -144c-31 -32 -68 -36 -95 -36
c-28 0 -64 6 -92 34c-46 46 -50 134 -50 199v128zM272 295h-172v-85c0 -59 4 -111 30 -139c13 -13 29 -20 50 -20s39 7 51 18c20 18 29 53 34 94c4 36 7 88 7 132z" />
    <glyph glyph-name="florin" unicode="&#x192;" horiz-adv-x="366" 
d="M364 729l-10 -59c-11 10 -22 17 -38 17c-35 0 -41 -31 -47 -59l-36 -181h77l-9 -42h-76l-83 -424c-12 -61 -32 -114 -104 -114c-19 0 -34 5 -50 11l11 59c11 -10 24 -17 39 -17c33 0 41 33 46 59l84 426h-73l8 42h73s27 147 35 179c15 60 30 114 103 114
c18 0 35 -3 50 -11z" />
    <glyph glyph-name="uni01CF" unicode="&#x1cf;" horiz-adv-x="171" 
d="M117 0h-62v667h62v-667zM199 821l-114 -107l-112 107l38 38l74 -69l74 69z" />
    <glyph glyph-name="uni01D0" unicode="&#x1d0;" horiz-adv-x="155" 
d="M106 0h-57v447h57v-447zM192 614l-114 -107l-112 107l38 38l74 -69l74 69z" />
    <glyph glyph-name="uni01DD" unicode="&#x1dd;" horiz-adv-x="315" 
d="M36 235h189v10c0 38 -7 113 -33 140c-12 13 -26 16 -40 16c-15 0 -26 -5 -37 -17c-4 -4 -21 -25 -28 -78l-54 22c5 32 20 68 40 91s45 35 78 35s58 -11 79 -33c38 -40 52 -109 52 -190c0 -76 -10 -163 -58 -210c-21 -20 -44 -28 -70 -28c-32 0 -54 15 -68 29
c-44 44 -55 142 -50 213zM224 187h-133c1 -38 11 -107 33 -129c9 -9 20 -13 31 -13c13 0 24 6 32 13c24 22 36 88 37 129z" />
    <glyph glyph-name="Gcaron" unicode="&#x1e6;" horiz-adv-x="374" 
d="M336 352v-134c0 -32 0 -65 -5 -97c-12 -76 -56 -130 -137 -130c-50 0 -90 21 -115 64c-38 66 -41 218 -41 295c0 114 3 326 162 326c82 0 116 -54 135 -126l-61 -24c-8 42 -23 90 -74 90c-98 0 -99 -175 -99 -243c0 -70 -1 -193 21 -257c13 -38 33 -65 76 -65
c73 0 76 84 76 138v106h-91v57h153zM313 821l-114 -107l-112 107l38 38l74 -69l74 69z" />
    <glyph glyph-name="gcaron" unicode="&#x1e7;" horiz-adv-x="331" 
d="M281 447v-496c0 -81 -31 -131 -117 -131c-78 0 -116 49 -116 124c0 6 0 12 1 17h57c0 -45 5 -88 61 -88c55 0 57 44 57 87v72c-20 -22 -41 -32 -71 -32c-113 0 -114 152 -114 233c0 75 8 221 111 221c32 0 54 -13 74 -38v31h57zM230 250c0 47 0 158 -68 158
c-60 0 -65 -103 -65 -196c0 -48 1 -166 70 -166c50 0 57 59 60 96s3 72 3 108zM281 614l-114 -107l-112 107l38 38l74 -69l74 69z" />
    <glyph glyph-name="AEacute" unicode="&#x1fc;" horiz-adv-x="462" 
d="M471 0h-207l-22 137h-151l-24 -137h-66l131 667h222l11 -57h-143l42 -235h135l11 -57h-136l47 -261h141zM233 190l-47 282c-7 41 -13 82 -15 123c-7 -41 -12 -81 -19 -122l-51 -283h132zM346 817l-115 -103l-35 26l96 120z" />
    <glyph glyph-name="aeacute" unicode="&#x1fd;" horiz-adv-x="508" 
d="M474 214h-197c0 -49 9 -169 78 -169c52 0 59 70 60 110h53c-2 -69 -33 -162 -116 -162c-49 0 -78 34 -97 74c-19 -44 -59 -74 -108 -74c-85 0 -114 85 -114 157s29 148 112 148c31 0 61 -13 80 -37v13c0 59 -15 128 -87 128c-31 0 -56 -18 -78 -36v62c24 17 50 26 81 26
c53 0 92 -27 114 -75c16 39 51 75 96 75c112 0 122 -158 123 -240zM279 261h139c0 44 -12 141 -71 141c-56 0 -68 -100 -68 -141zM226 145c0 45 -14 107 -71 107c-55 0 -67 -58 -67 -102c0 -43 12 -104 67 -104c54 0 71 55 71 99zM369 610l-115 -103l-35 26l96 120z" />
    <glyph glyph-name="Scommaaccent" unicode="&#x218;" horiz-adv-x="326" 
d="M278 640v-78c-27 32 -55 54 -99 54c-61 0 -96 -52 -96 -109c0 -154 228 -144 228 -329c0 -96 -65 -188 -167 -188c-38 0 -75 13 -105 35v80c29 -30 64 -54 108 -54c65 0 101 59 101 119c0 153 -228 142 -228 329c0 91 56 177 154 177c40 0 72 -13 104 -36zM210 -77
l-72 -154l-39 19l53 163z" />
    <glyph glyph-name="scommaaccent" unicode="&#x219;" horiz-adv-x="249" 
d="M219 425v-69c-20 24 -45 46 -77 46c-33 0 -55 -27 -55 -59c0 -87 144 -103 144 -224c0 -69 -49 -126 -120 -126c-30 0 -59 12 -83 31v66c22 -23 47 -44 79 -44c40 0 65 32 65 69c0 88 -144 118 -144 226c0 65 46 113 111 113c30 0 55 -11 80 -29zM184 -77l-72 -154
l-39 19l53 163z" />
    <glyph glyph-name="Tcommaaccent" unicode="&#x21a;" horiz-adv-x="265" 
d="M263 610h-100v-610h-62v610h-100v57h262v-57zM181 -77l-72 -154l-39 19l53 163z" />
    <glyph glyph-name="tcommaaccent" unicode="&#x21b;" horiz-adv-x="199" 
d="M198 395h-75v-395h-56v395h-48v52h48v127h56v-127h75v-52zM146 -77l-72 -154l-39 19l53 163z" />
    <glyph glyph-name="uni0228" unicode="&#x228;" horiz-adv-x="301" 
d="M263 0h-208v667h208v-57h-146v-235h142v-57h-142v-261h146v-57zM204 -62l-77 -123l-36 21l67 127z" />
    <glyph glyph-name="uni0229" unicode="&#x229;" horiz-adv-x="313" 
d="M219 152h57c-3 -72 -25 -159 -113 -159c-115 0 -130 143 -130 229c0 81 17 232 126 232c105 0 121 -135 121 -214c0 -9 -1 -19 -1 -28h-189v-10c0 -45 7 -156 71 -156c50 0 57 68 58 106zM91 260h133c-2 40 -7 142 -64 142c-58 0 -67 -101 -69 -142zM211 -62l-77 -123
l-36 21l67 127z" />
    <glyph glyph-name="uni0237" unicode="&#x237;" horiz-adv-x="159" 
d="M110 -180h-58v627h58v-627z" />
    <glyph glyph-name="uni0259" unicode="&#x259;" horiz-adv-x="315" 
d="M36 235h189v10c0 38 -7 113 -33 140c-12 13 -26 16 -40 16c-15 0 -26 -5 -37 -17c-4 -4 -21 -25 -28 -78l-54 22c5 32 20 68 40 91s45 35 78 35s58 -11 79 -33c38 -40 52 -109 52 -190c0 -76 -10 -163 -58 -210c-21 -20 -44 -28 -70 -28c-32 0 -54 15 -68 29
c-44 44 -55 142 -50 213zM224 187h-133c1 -38 11 -107 33 -129c9 -9 20 -13 31 -13c13 0 24 6 32 13c24 22 36 88 37 129z" />
    <glyph glyph-name="afii57929" unicode="&#x2bc;" horiz-adv-x="196" 
d="M162 648l-74 -164l-39 19l55 173z" />
    <glyph glyph-name="circumflex" unicode="&#x2c6;" 
d="M363 545l-40 -38l-74 69l-74 -69l-38 38l112 107z" />
    <glyph glyph-name="caron" unicode="&#x2c7;" 
d="M363 614l-114 -107l-112 107l38 38l74 -69l74 69z" />
    <glyph glyph-name="uni02C9" unicode="&#x2c9;" 
d="M362 520h-224v55h224v-55z" />
    <glyph glyph-name="breve" unicode="&#x2d8;" 
d="M325 599h48c-7 -65 -64 -92 -123 -92s-116 27 -123 92h48c13 -31 44 -41 75 -41s62 10 75 41z" />
    <glyph glyph-name="dotaccent" unicode="&#x2d9;" 
d="M296 559c0 -25 -21 -46 -46 -46s-45 21 -45 46s20 45 45 45s46 -20 46 -45z" />
    <glyph glyph-name="ring" unicode="&#x2da;" horiz-adv-x="499" 
d="M330 587c0 -44 -36 -80 -80 -80s-80 36 -80 80s36 80 80 80s80 -36 80 -80zM290 587c0 22 -18 40 -40 40s-40 -18 -40 -40s18 -40 40 -40s40 18 40 40z" />
    <glyph glyph-name="ogonek" unicode="&#x2db;" horiz-adv-x="497" 
d="M330 -95v-48c-16 -7 -31 -9 -45 -9c-25 0 -46 9 -60 22c-13 13 -18 27 -18 44c0 16 4 31 11 46s15 28 24 40h45c-7 -10 -15 -23 -21 -34c-5 -11 -10 -23 -10 -37c0 -10 3 -18 10 -24c8 -7 18 -8 26 -8c21 0 34 6 38 8z" />
    <glyph glyph-name="tilde" unicode="&#x2dc;" 
d="M308 595h57c-2 -39 -23 -82 -68 -82c-35 0 -67 34 -90 34c-14 0 -16 -14 -16 -25h-56c4 40 26 77 70 77c31 0 65 -32 86 -32c16 0 17 16 17 28z" />
    <glyph glyph-name="hungarumlaut" unicode="&#x2dd;" 
d="M388 623l-70 -116l-37 13l51 125zM285 623l-69 -116l-37 13l50 125z" />
    <glyph glyph-name="acutecomb" unicode="&#x301;" horiz-adv-x="2" 
d="M-59 610l-115 -103l-35 26l96 120z" />
    <glyph glyph-name="uni0394" unicode="&#x394;" horiz-adv-x="667" 
d="M636 0h-605l271 667h61zM554 52l-221 546l-221 -546h442z" />
    <glyph glyph-name="uni0394" unicode="&#x2206;" horiz-adv-x="667" 
d="M636 0h-605l271 667h61zM554 52l-221 546l-221 -546h442z" />
    <glyph glyph-name="uni03A9" unicode="&#x3a9;" horiz-adv-x="667" 
d="M638 0h-258v47c121 67 200 166 200 309c0 139 -97 276 -245 276c-153 0 -248 -133 -248 -277c0 -143 79 -241 200 -308v-47h-259v51h191c-119 69 -191 170 -191 310c0 174 126 322 305 322s305 -148 305 -322c0 -139 -72 -242 -191 -310h191v-51z" />
    <glyph glyph-name="uni03A9" unicode="&#x2126;" horiz-adv-x="667" 
d="M638 0h-258v47c121 67 200 166 200 309c0 139 -97 276 -245 276c-153 0 -248 -133 -248 -277c0 -143 79 -241 200 -308v-47h-259v51h191c-119 69 -191 170 -191 310c0 174 126 322 305 322s305 -148 305 -322c0 -139 -72 -242 -191 -310h191v-51z" />
    <glyph glyph-name="pi" unicode="&#x3c0;" horiz-adv-x="556" 
d="M531 396h-72v-396h-57v396h-246v-396h-57v396h-74v51h506v-51z" />
    <glyph glyph-name="afii10023" unicode="&#x401;" horiz-adv-x="299" 
d="M261 0h-208v667h208v-57h-146v-235h142v-57h-142v-261h146v-57zM258 753c0 -24 -19 -43 -42 -43s-42 19 -42 43c0 23 19 41 42 41s42 -18 42 -41zM138 753c0 -24 -19 -43 -42 -43s-42 19 -42 43c0 23 19 41 42 41s42 -18 42 -41z" />
    <glyph glyph-name="afii10051" unicode="&#x402;" horiz-adv-x="439" 
d="M340 610h-158v-219c22 8 49 14 75 14c40 0 77 -14 103 -39c39 -39 51 -100 51 -171c0 -110 -30 -158 -53 -179c-26 -24 -56 -28 -79 -28c-28 0 -50 7 -70 18l19 59c10 -8 25 -17 46 -17c17 0 32 3 45 18c11 12 29 42 29 122c0 90 -21 124 -36 138c-14 13 -36 22 -63 22
c-10 0 -37 -1 -67 -17v-331h-62v610h-100v57h320v-57z" />
    <glyph glyph-name="afii10052" unicode="&#x403;" horiz-adv-x="295" 
d="M267 610h-150v-610h-62v667h212v-57zM270 817l-115 -103l-35 26l96 120z" />
    <glyph glyph-name="afii10053" unicode="&#x404;" horiz-adv-x="338" 
d="M314 100v-76c-32 -27 -64 -33 -92 -33c-38 0 -70 8 -100 36c-43 41 -62 116 -67 140c-12 53 -17 121 -17 182c0 105 10 215 75 282c29 30 61 45 106 45c28 0 57 -5 95 -32v-77c-14 19 -42 49 -85 49c-31 0 -53 -14 -66 -27c-30 -30 -45 -88 -48 -102
c-8 -35 -12 -77 -12 -112h168v-57h-169c1 -40 6 -96 15 -137c6 -25 20 -78 46 -105c17 -18 37 -25 60 -25c24 0 58 8 91 49z" />
    <glyph glyph-name="afii10054" unicode="&#x405;" horiz-adv-x="326" 
d="M278 640v-78c-27 32 -55 54 -99 54c-61 0 -96 -52 -96 -109c0 -154 228 -144 228 -329c0 -96 -65 -188 -167 -188c-38 0 -75 13 -105 35v80c29 -30 64 -54 108 -54c65 0 101 59 101 119c0 153 -228 142 -228 329c0 91 56 177 154 177c40 0 72 -13 104 -36z" />
    <glyph glyph-name="afii10055" unicode="&#x406;" horiz-adv-x="171" 
d="M117 0h-62v667h62v-667z" />
    <glyph glyph-name="afii10056" unicode="&#x407;" horiz-adv-x="171" 
d="M117 0h-62v667h62v-667zM160 764c0 -24 -15 -44 -32 -44s-30 20 -30 44s13 43 30 43s32 -19 32 -43zM74 764c0 -24 -14 -44 -31 -44s-32 20 -32 44s15 43 32 43s31 -19 31 -43z" />
    <glyph glyph-name="afii10057" unicode="&#x408;" horiz-adv-x="224" 
d="M169 667v-571c0 -10 0 -19 -1 -29c-5 -54 -44 -77 -95 -77c-26 0 -49 7 -72 18v64c19 -16 37 -28 62 -28c43 0 44 35 44 67v556h62z" />
    <glyph glyph-name="afii10058" unicode="&#x409;" horiz-adv-x="582" 
d="M352 378h37c33 0 78 -5 114 -40c44 -43 49 -112 49 -149c0 -61 -11 -125 -56 -161c-34 -27 -71 -28 -107 -28h-99v610h-134v-344c0 -50 0 -98 -6 -147c-4 -30 -10 -70 -39 -100c-20 -20 -39 -25 -65 -25c-16 0 -28 2 -42 10v65c13 -12 24 -15 36 -15c14 0 25 5 34 16
c15 18 18 44 20 69c3 39 4 65 4 101v427h254v-289zM352 53h33c16 0 51 1 73 23c24 24 30 72 30 103c0 40 -6 93 -35 119c-24 22 -57 23 -71 23h-30v-268z" />
    <glyph glyph-name="afii10059" unicode="&#x40a;" horiz-adv-x="557" 
d="M327 667v-284h37c33 0 78 -5 114 -40c44 -43 49 -111 49 -149c0 -67 -11 -131 -56 -166c-34 -27 -71 -28 -107 -28h-99v326h-148v-326h-62v667h62v-284h148v284h62zM327 53h33c16 0 51 1 73 23c23 23 30 68 30 108c0 41 -6 92 -35 119c-24 22 -57 23 -71 23h-30v-273z
" />
    <glyph glyph-name="afii10060" unicode="&#x40b;" horiz-adv-x="439" 
d="M120 0v610h-100v57h320v-57h-158v-219c36 12 66 14 78 14c33 0 74 -8 99 -28c36 -30 40 -77 40 -134v-243h-63v240c0 34 0 70 -23 90c-15 13 -41 18 -62 18c-28 0 -50 -7 -69 -17v-331h-62z" />
    <glyph glyph-name="afii10061" unicode="&#x40c;" horiz-adv-x="329" 
d="M321 0h-70l-134 336v-336h-62v667h62v-303l134 303h69l-144 -318zM280 817l-115 -103l-35 26l96 120z" />
    <glyph glyph-name="afii10062" unicode="&#x40e;" horiz-adv-x="341" 
d="M8 667h68l64 -211c15 -48 25 -81 39 -143c11 59 21 97 34 145l56 209h64l-188 -667h-62l64 224zM240 806l53 -22c-10 -32 -30 -51 -46 -62c-25 -16 -51 -19 -73 -19c-27 0 -50 4 -73 19c-31 20 -42 46 -46 62l53 22c6 -23 20 -34 24 -37c9 -7 23 -12 42 -12
c25 0 38 9 42 12c11 8 20 24 24 37z" />
    <glyph glyph-name="afii10145" unicode="&#x40f;" horiz-adv-x="382" 
d="M327 667v-667h-105v-130h-62v130h-105v667h62v-610h148v610h62z" />
    <glyph glyph-name="afii10017" unicode="&#x410;" horiz-adv-x="325" 
d="M324 0h-66l-25 137h-141l-25 -137h-66l132 667h58zM223 191l-44 235c-10 52 -16 104 -19 157c-9 -132 -35 -262 -58 -392h121z" />
    <glyph glyph-name="afii10018" unicode="&#x411;" horiz-adv-x="344" 
d="M55 667h224v-57h-162v-232h40c32 0 74 -4 109 -39s48 -89 48 -150c0 -87 -24 -136 -56 -161c-36 -29 -77 -28 -107 -28h-96v667zM117 53h30c16 0 50 1 73 23s30 62 30 106c0 51 -10 94 -33 116c-22 22 -50 23 -72 23h-28v-268z" />
    <glyph glyph-name="afii10019" unicode="&#x412;" horiz-adv-x="351" 
d="M55 667h97c34 0 70 -2 98 -23c40 -30 51 -100 51 -147c0 -68 -16 -124 -82 -155c86 -23 98 -84 98 -164c0 -55 -9 -114 -55 -150c-32 -25 -66 -28 -105 -28h-102v667zM117 372h33c81 0 88 56 88 122c0 63 -3 119 -82 119h-39v-241zM117 53h33c85 0 103 52 103 127
c0 67 -20 137 -100 137h-36v-264z" />
    <glyph glyph-name="afii10020" unicode="&#x413;" horiz-adv-x="295" 
d="M267 610h-150v-610h-62v667h212v-57z" />
    <glyph glyph-name="afii10021" unicode="&#x414;" horiz-adv-x="407" 
d="M96 667h249v-610h52v-187h-62v130h-273v-130h-58v187c31 19 50 43 62 64c30 53 30 121 30 187v359zM154 610v-259c0 -112 -6 -164 -17 -202c-12 -39 -30 -68 -53 -92h199v553h-129z" />
    <glyph glyph-name="afii10022" unicode="&#x415;" horiz-adv-x="301" 
d="M263 0h-208v667h208v-57h-146v-235h142v-57h-142v-261h146v-57z" />
    <glyph glyph-name="afii10024" unicode="&#x416;" horiz-adv-x="466" 
d="M462 0h-66l-132 336v-336h-62v336l-132 -336h-66l143 349l-138 318h65l128 -303v303h62v-303l128 303h65l-138 -318z" />
    <glyph glyph-name="afii10025" unicode="&#x417;" horiz-adv-x="349" 
d="M101 370h17c19 0 54 3 78 26c17 16 31 47 31 92c0 31 -5 70 -27 96c-12 14 -33 30 -68 30c-26 0 -46 -9 -59 -19c-11 -8 -25 -23 -35 -38v85c16 12 51 34 104 34c54 0 87 -21 106 -42c26 -28 44 -72 44 -132c0 -38 -6 -78 -23 -105c-13 -22 -35 -40 -59 -50
c32 -5 55 -21 69 -37c32 -36 36 -85 36 -110c0 -73 -22 -132 -56 -166c-33 -33 -71 -43 -113 -43c-34 0 -76 6 -116 37v87c21 -32 58 -62 109 -62c22 0 54 5 78 34c21 25 30 65 30 101c0 35 -10 75 -35 98c-27 25 -67 27 -91 27h-20v57z" />
    <glyph glyph-name="afii10026" unicode="&#x418;" horiz-adv-x="393" 
d="M55 0v667h62v-452c0 -23 -2 -47 -6 -84c14 47 17 60 24 81l142 455h62v-667h-62v431c0 35 4 79 6 105c-17 -65 -20 -72 -27 -94l-139 -442h-62z" />
    <glyph glyph-name="afii10027" unicode="&#x419;" horiz-adv-x="393" 
d="M55 0v667h62v-452c0 -23 -2 -47 -6 -84c14 47 17 60 24 81l142 455h62v-667h-62v431c0 35 4 79 6 105c-17 -65 -20 -72 -27 -94l-139 -442h-62zM263 807l53 -22c-10 -32 -30 -51 -46 -62c-25 -16 -51 -19 -73 -19c-27 0 -50 4 -73 19c-31 20 -42 46 -46 62l53 22
c6 -23 20 -34 24 -37c9 -7 23 -12 42 -12c25 0 38 9 42 12c11 8 20 24 24 37z" />
    <glyph glyph-name="afii10028" unicode="&#x41a;" horiz-adv-x="329" 
d="M321 0h-70l-134 336v-336h-62v667h62v-303l134 303h69l-144 -318z" />
    <glyph glyph-name="afii10029" unicode="&#x41b;" horiz-adv-x="408" 
d="M98 667h256v-667h-62v610h-136v-344c0 -50 0 -98 -6 -147c-4 -30 -10 -70 -39 -100c-20 -20 -39 -25 -65 -25c-16 0 -28 2 -42 10v65c13 -12 24 -15 36 -15c14 0 25 5 34 16c15 18 18 44 20 69c3 39 4 65 4 101v427z" />
    <glyph glyph-name="afii10030" unicode="&#x41c;" horiz-adv-x="499" 
d="M478 0h-61l-47 433c-4 40 -4 81 -6 121c-2 -41 -7 -81 -14 -121l-74 -433h-51c-27 166 -60 331 -79 498c-2 19 -2 37 -4 56v-23c0 -32 -2 -65 -6 -97l-54 -434h-61l94 667h53l72 -458c5 -35 11 -70 13 -105c2 35 6 69 12 103l78 460h53z" />
    <glyph glyph-name="afii10031" unicode="&#x41d;" horiz-adv-x="385" 
d="M331 0h-62v344h-152v-344h-62v667h62v-266h152v266h62v-667z" />
    <glyph glyph-name="afii10032" unicode="&#x41e;" horiz-adv-x="404" 
d="M366 336c0 -112 -4 -345 -163 -345c-156 0 -165 231 -165 342c0 110 10 343 164 343c157 0 164 -228 164 -340zM303 358c0 68 -1 258 -100 258c-104 0 -102 -211 -102 -282c0 -70 -1 -283 102 -283c75 0 89 98 94 155c5 50 6 101 6 152z" />
    <glyph glyph-name="afii10033" unicode="&#x41f;" horiz-adv-x="379" 
d="M325 0h-62v610h-146v-610h-62v667h270v-667z" />
    <glyph glyph-name="afii10034" unicode="&#x420;" horiz-adv-x="329" 
d="M55 667h80c134 0 169 -59 169 -185c0 -117 -45 -163 -162 -163h-25v-319h-62v667zM117 376h41c78 0 83 55 83 118c0 70 -14 116 -94 116h-30v-234z" />
    <glyph glyph-name="afii10035" unicode="&#x421;" horiz-adv-x="320" 
d="M302 81v-62c-26 -17 -56 -28 -87 -28c-48 0 -92 27 -120 65c-51 70 -57 177 -57 260c0 123 14 360 184 360c28 0 56 -6 80 -21v-68c-23 15 -48 29 -77 29c-120 0 -124 -196 -124 -280c0 -65 7 -191 44 -244c18 -26 43 -41 75 -41c30 0 58 14 82 30z" />
    <glyph glyph-name="afii10036" unicode="&#x422;" horiz-adv-x="265" 
d="M263 610h-100v-610h-62v610h-100v57h262v-57z" />
    <glyph glyph-name="afii10037" unicode="&#x423;" horiz-adv-x="341" 
d="M8 667h68l64 -211c15 -48 25 -81 39 -143c11 59 21 97 34 145l56 209h64l-188 -667h-62l64 224z" />
    <glyph glyph-name="afii10038" unicode="&#x424;" horiz-adv-x="510" 
d="M224 0v84c-51 3 -97 25 -126 53c-38 37 -68 105 -68 220c0 128 41 188 69 215c29 28 74 49 125 52v70h62v-70c51 -3 96 -24 125 -52c53 -50 69 -128 69 -209c0 -99 -22 -178 -68 -224c-33 -32 -82 -51 -126 -55v-84h-62zM284 567v-426c35 1 68 16 88 37
c12 12 48 57 48 181c0 71 -12 135 -51 173c-16 16 -45 33 -85 35zM226 141v426c-40 -2 -69 -19 -85 -35c-39 -38 -51 -101 -51 -174c0 -49 7 -135 48 -179c16 -18 46 -37 88 -38z" />
    <glyph glyph-name="afii10039" unicode="&#x425;" horiz-adv-x="318" 
d="M317 0h-66l-66 189c-11 31 -20 63 -26 95c-7 -33 -17 -65 -28 -97l-63 -187h-67l130 339l-130 328h67l59 -165c14 -38 25 -77 32 -117c6 39 19 76 32 113l60 169h66l-127 -328z" />
    <glyph glyph-name="afii10040" unicode="&#x426;" horiz-adv-x="395" 
d="M327 667v-610h54v-187h-62v130h-264v667h62v-610h148v610h62z" />
    <glyph glyph-name="afii10041" unicode="&#x427;" horiz-adv-x="374" 
d="M320 667v-667h-62v337c-22 -5 -46 -8 -74 -8c-32 0 -71 4 -99 28c-36 30 -40 77 -40 134v176h63v-169c0 -37 0 -75 22 -95c18 -16 47 -17 66 -17c23 0 41 2 62 7v274h62z" />
    <glyph glyph-name="afii10042" unicode="&#x428;" horiz-adv-x="584" 
d="M55 667h62v-610h144v610h62v-610h144v610h62v-667h-474v667z" />
    <glyph glyph-name="afii10043" unicode="&#x429;" horiz-adv-x="603" 
d="M55 667h62v-610h144v610h62v-610h144v610h62v-610h60v-187h-62v130h-472v667z" />
    <glyph glyph-name="afii10044" unicode="&#x42a;" horiz-adv-x="380" 
d="M150 667v-289h37c33 0 78 -5 114 -40c44 -43 49 -112 49 -149c0 -61 -11 -125 -56 -161c-34 -27 -71 -28 -107 -28h-99v610h-86v57h148zM150 53h33c16 0 51 1 73 23c24 24 30 72 30 103c0 40 -6 93 -35 119c-24 22 -57 23 -71 23h-30v-268z" />
    <glyph glyph-name="afii10045" unicode="&#x42b;" horiz-adv-x="483" 
d="M429 0h-62v667h62v-667zM117 667v-289h37c33 0 78 -5 114 -40c44 -43 49 -112 49 -149c0 -61 -11 -125 -56 -161c-34 -27 -71 -28 -107 -28h-99v667h62zM117 53h33c16 0 51 1 73 23c24 24 30 72 30 103c0 40 -6 93 -35 119c-24 22 -57 23 -71 23h-30v-268z" />
    <glyph glyph-name="afii10046" unicode="&#x42c;" horiz-adv-x="347" 
d="M117 667v-289h37c33 0 78 -5 114 -40c44 -43 49 -112 49 -149c0 -61 -11 -125 -56 -161c-34 -27 -71 -28 -107 -28h-99v667h62zM117 53h33c16 0 51 1 73 23c24 24 30 72 30 103c0 40 -6 93 -35 119c-24 22 -57 23 -71 23h-30v-268z" />
    <glyph glyph-name="afii10047" unicode="&#x42d;" horiz-adv-x="332" 
d="M18 24v76c33 -41 67 -49 91 -49c23 0 43 7 60 25c26 27 40 80 46 105c9 41 14 97 15 137h-169v57h168c0 35 -4 77 -12 112c-3 14 -18 72 -48 102c-13 13 -35 27 -66 27c-43 0 -71 -30 -85 -49v77c38 27 67 32 95 32c45 0 77 -15 106 -45c62 -64 75 -168 75 -280
c0 -63 -5 -127 -17 -182c-19 -88 -50 -126 -67 -142c-30 -28 -62 -36 -100 -36c-28 0 -60 6 -92 33z" />
    <glyph glyph-name="afii10048" unicode="&#x42e;" horiz-adv-x="568" 
d="M202 344h-85v-344h-62v667h62v-266h87c0 52 10 179 72 239c25 24 55 36 90 36s65 -12 90 -36c61 -59 74 -179 74 -306c0 -129 -13 -248 -74 -307c-25 -24 -55 -36 -90 -36s-65 12 -90 36c-61 59 -74 178 -74 307v10zM265 333c0 -86 1 -210 50 -260c13 -13 29 -22 51 -22
s38 9 51 22c43 45 50 147 50 260c0 160 -19 229 -50 261c-13 13 -29 22 -51 22s-38 -9 -51 -22c-49 -50 -50 -174 -50 -261z" />
    <glyph glyph-name="afii10049" unicode="&#x42f;" horiz-adv-x="357" 
d="M16 0l148 314c-6 0 -56 3 -90 36c-22 21 -42 62 -42 133c0 49 7 108 43 144c30 31 76 40 128 40h100v-667h-68v320l-148 -320h-71zM235 369v241h-36c-22 0 -53 -1 -74 -22c-23 -23 -27 -72 -27 -103c0 -33 4 -73 30 -96c20 -18 46 -20 63 -20h44z" />
    <glyph glyph-name="afii10065" unicode="&#x430;" horiz-adv-x="327" 
d="M277 0h-57v36c-20 -27 -41 -43 -76 -43c-102 0 -105 143 -105 222c0 91 3 239 110 239c32 0 51 -12 71 -37v30h57v-447zM226 226c0 89 -5 183 -63 183c-65 0 -66 -114 -66 -159c0 -37 0 -72 3 -108c4 -39 10 -103 62 -103c15 0 26 4 36 15c28 28 28 133 28 172z" />
    <glyph glyph-name="afii10066" unicode="&#x431;" horiz-adv-x="334" 
d="M98 398c14 34 46 56 82 56c26 0 50 -12 67 -28c48 -45 51 -137 51 -206c0 -70 -5 -153 -53 -199c-23 -22 -46 -28 -75 -28s-52 6 -75 28c-50 48 -55 139 -55 241c0 55 3 122 8 175c4 38 10 91 36 131c25 39 57 54 88 67c34 14 49 19 60 29c6 5 15 17 15 36h53
c0 -40 -15 -64 -27 -76c-20 -20 -44 -30 -69 -40s-47 -21 -62 -37c-32 -33 -44 -99 -44 -149zM170 401c-16 0 -27 -8 -34 -14c-29 -27 -36 -114 -36 -164c0 -47 6 -134 36 -163c10 -10 22 -14 34 -14s24 4 34 14c34 33 36 138 36 163c0 30 -2 124 -31 159
c-12 14 -25 19 -39 19z" />
    <glyph glyph-name="afii10067" unicode="&#x432;" horiz-adv-x="304" 
d="M50 447h89c32 0 66 -3 92 -30c12 -12 29 -37 29 -85c0 -33 -7 -55 -29 -76c-5 -5 -16 -14 -33 -22c18 -4 36 -13 48 -25c28 -27 28 -59 28 -84c0 -34 -3 -66 -30 -93c-29 -29 -67 -32 -91 -32h-103v447zM106 259h23c15 0 42 0 58 16c12 12 15 33 15 53c0 18 -3 42 -15 53
c-14 13 -42 14 -49 14h-32v-136zM106 52h27c14 0 46 1 62 16c10 9 19 27 19 56c0 36 -12 54 -21 63c-19 18 -45 19 -60 19h-27v-154z" />
    <glyph glyph-name="afii10068" unicode="&#x433;" horiz-adv-x="246" 
d="M50 0v447h181v-52h-125v-395h-56z" />
    <glyph glyph-name="afii10069" unicode="&#x434;" horiz-adv-x="332" 
d="M74 447h209v-395h41v-156h-53v104h-216v-104h-53v156c24 12 43 30 56 60c15 34 16 74 16 110v225zM227 52v343h-101v-169c0 -36 0 -67 -9 -100c-8 -31 -23 -54 -43 -74h153z" />
    <glyph glyph-name="afii10070" unicode="&#x435;" horiz-adv-x="313" 
d="M219 152h57c-3 -72 -25 -159 -113 -159c-115 0 -130 143 -130 229c0 81 17 232 126 232c105 0 121 -135 121 -214c0 -9 -1 -19 -1 -28h-189v-10c0 -45 7 -156 71 -156c50 0 57 68 58 106zM91 260h133c-2 40 -7 142 -64 142c-58 0 -67 -101 -69 -142z" />
    <glyph glyph-name="afii10072" unicode="&#x436;" horiz-adv-x="421" 
d="M419 0h-65l-115 205v-205h-57v205l-115 -205h-65l135 233l-127 214h61l111 -195v195h57v-195l111 195h61l-127 -214z" />
    <glyph glyph-name="afii10073" unicode="&#x437;" horiz-adv-x="279" 
d="M176 231c18 -5 34 -14 46 -25c21 -19 32 -46 32 -83c0 -48 -22 -80 -41 -98c-27 -25 -55 -32 -89 -32c-29 0 -61 6 -94 35v72c9 -12 25 -29 37 -38c13 -9 29 -16 49 -16c25 0 45 9 56 21c13 14 20 38 20 55c0 26 -9 50 -24 62c-18 15 -52 16 -66 16h-17v54h19
c19 0 43 6 56 16c19 15 21 38 21 55c0 16 -1 39 -18 57c-11 12 -29 19 -48 19s-35 -7 -48 -18c-12 -10 -24 -25 -32 -37v72c30 30 62 36 87 36c30 0 58 -6 83 -31c26 -27 33 -60 33 -90c0 -21 -3 -47 -19 -69c-10 -13 -25 -25 -43 -33z" />
    <glyph glyph-name="afii10074" unicode="&#x438;" horiz-adv-x="336" 
d="M286 0h-56v278c0 8 0 19 2 64c-6 -28 -13 -47 -21 -67l-105 -275h-56v447h56v-276c0 -23 0 -37 -2 -69c11 41 14 47 21 66l105 279h56v-447z" />
    <glyph glyph-name="afii10075" unicode="&#x439;" horiz-adv-x="336" 
d="M286 0h-56v278c0 8 0 19 2 64c-6 -28 -13 -47 -21 -67l-105 -275h-56v447h56v-276c0 -23 0 -37 -2 -69c11 41 14 47 21 66l105 279h56v-447zM228 597l47 -23c-8 -23 -24 -44 -41 -56c-24 -17 -55 -18 -66 -18s-42 1 -66 18c-17 12 -33 33 -41 56l47 23
c2 -12 10 -27 21 -36c12 -10 28 -11 40 -11s26 1 38 11c10 8 18 23 21 36z" />
    <glyph glyph-name="afii10076" unicode="&#x43a;" horiz-adv-x="306" 
d="M106 447v-195l119 195h65l-135 -215l149 -232h-69l-129 205v-205h-56v447h56z" />
    <glyph glyph-name="afii10077" unicode="&#x43b;" horiz-adv-x="340" 
d="M290 447v-447h-56v395h-103v-190c0 -41 -2 -71 -4 -93c-3 -32 -10 -68 -35 -93c-18 -17 -37 -23 -59 -23c-12 0 -21 2 -29 4v58c7 -7 14 -9 24 -9c11 0 19 3 27 11c23 24 23 77 23 123v264h212z" />
    <glyph glyph-name="afii10078" unicode="&#x43c;" horiz-adv-x="408" 
d="M229 0h-50l-58 270c-6 26 -9 47 -12 70c-2 -33 -4 -46 -7 -72l-31 -268h-53l62 447h50l61 -283c8 -35 12 -67 13 -80c1 13 5 45 13 80l61 283h50l62 -447h-53l-31 268c-3 26 -5 39 -7 72c-3 -29 -7 -48 -12 -70z" />
    <glyph glyph-name="afii10079" unicode="&#x43d;" horiz-adv-x="330" 
d="M280 0h-56v209h-118v-209h-56v447h56v-186h118v186h56v-447z" />
    <glyph glyph-name="afii10080" unicode="&#x43e;" horiz-adv-x="323" 
d="M289 221c0 -85 -10 -228 -125 -228s-131 144 -131 231s16 230 131 230c116 0 125 -147 125 -233zM231 224c0 45 -2 178 -68 178c-69 0 -71 -136 -71 -183s3 -173 71 -173c66 0 68 133 68 178z" />
    <glyph glyph-name="afii10081" unicode="&#x43f;" horiz-adv-x="326" 
d="M276 0h-56v395h-114v-395h-56v447h226v-447z" />
    <glyph glyph-name="afii10082" unicode="&#x440;" horiz-adv-x="321" 
d="M106 447v-30c19 25 39 37 71 37c110 0 111 -141 111 -222c0 -96 -3 -239 -105 -239c-35 0 -56 17 -77 43v-216h-56v627h56zM230 247c0 45 -1 162 -66 162c-58 0 -63 -94 -63 -183c0 -39 0 -144 28 -172c10 -11 21 -15 36 -15c52 0 58 64 62 103c3 35 3 70 3 105z" />
    <glyph glyph-name="afii10083" unicode="&#x441;" horiz-adv-x="246" 
d="M226 86v-70c-18 -14 -42 -23 -64 -23c-105 0 -129 143 -129 223c0 85 18 238 132 238c21 0 42 -6 61 -17v-66c-15 16 -33 31 -56 31c-71 0 -78 -131 -78 -181c0 -48 9 -175 77 -175c25 0 44 21 57 40z" />
    <glyph glyph-name="afii10084" unicode="&#x442;" horiz-adv-x="245" 
d="M237 395h-86v-395h-57v395h-86v52h229v-52z" />
    <glyph glyph-name="afii10085" unicode="&#x443;" horiz-adv-x="289" 
d="M283 447l-160 -627h-60l50 192l-106 435h57l56 -248c9 -37 16 -75 21 -112c4 28 11 55 18 84l65 276h59z" />
    <glyph glyph-name="afii10086" unicode="&#x444;" horiz-adv-x="413" 
d="M178 -180v173c-24 1 -58 8 -91 41c-48 48 -59 122 -59 194c0 76 12 140 55 183c19 19 50 39 95 43v213h57v-213c28 -2 63 -11 95 -43c48 -47 55 -113 55 -183c0 -88 -13 -145 -59 -192c-26 -27 -53 -41 -91 -43v-173h-57zM233 402v-356c27 1 46 12 58 25
c31 31 40 90 40 160c0 57 -7 116 -38 146c-13 13 -34 24 -60 25zM180 46v356c-26 -1 -47 -12 -60 -25c-33 -32 -38 -98 -38 -150c0 -70 11 -128 42 -158c21 -20 43 -23 56 -23z" />
    <glyph glyph-name="afii10087" unicode="&#x445;" horiz-adv-x="279" 
d="M272 0h-63l-49 127c-8 22 -17 44 -22 66c-4 -22 -12 -45 -20 -67l-48 -126h-63l102 229l-91 218h62c22 -62 49 -124 63 -189c13 66 41 127 66 189h63l-100 -218z" />
    <glyph glyph-name="afii10088" unicode="&#x446;" horiz-adv-x="337" 
d="M277 447v-395h50v-156h-56v104h-221v447h56v-395h115v395h56z" />
    <glyph glyph-name="afii10089" unicode="&#x447;" horiz-adv-x="308" 
d="M202 0v211c-18 -6 -37 -9 -61 -9c-38 0 -65 11 -81 25c-29 26 -30 68 -30 103v117h56v-123c0 -13 0 -41 15 -55c14 -13 41 -14 48 -14c24 0 46 6 53 8v184h56v-447h-56z" />
    <glyph glyph-name="afii10090" unicode="&#x448;" horiz-adv-x="501" 
d="M279 447v-395h116v395h56v-447h-401v447h56v-395h116v395h57z" />
    <glyph glyph-name="afii10091" unicode="&#x449;" horiz-adv-x="512" 
d="M279 447v-395h116v395h57v-395h54v-156h-56v104h-400v447h56v-395h117v395h56z" />
    <glyph glyph-name="afii10092" unicode="&#x44a;" horiz-adv-x="341" 
d="M97 0v395h-89v52h145v-171h20c27 0 75 -4 109 -36s39 -78 39 -109c0 -26 -3 -68 -32 -98s-65 -33 -96 -33h-96zM153 52h32c15 0 42 1 58 16c9 8 21 27 21 66c0 20 -2 45 -20 66c-20 24 -45 26 -66 26h-25v-174z" />
    <glyph glyph-name="afii10093" unicode="&#x44b;" horiz-adv-x="425" 
d="M375 0h-56v447h56v-447zM50 0v447h56v-171h20c52 0 89 -16 110 -36c19 -18 38 -51 38 -110c0 -24 -3 -68 -31 -97c-29 -30 -68 -33 -97 -33h-96zM106 52h32c18 0 42 1 58 16c12 11 21 31 21 68c0 18 -2 43 -20 64c-20 24 -43 26 -66 26h-25v-174z" />
    <glyph glyph-name="afii10094" unicode="&#x44c;" horiz-adv-x="293" 
d="M50 0v447h56v-171h19c28 0 76 -4 110 -36c35 -33 38 -77 38 -109c0 -27 -1 -67 -31 -98s-66 -33 -97 -33h-95zM106 52h31c16 0 43 1 59 16c15 14 20 43 20 69c0 15 -2 43 -19 63c-20 24 -46 26 -67 26h-24v-174z" />
    <glyph glyph-name="afii10095" unicode="&#x44d;" horiz-adv-x="280" 
d="M36 19v72c7 -13 18 -25 28 -32c12 -9 25 -13 40 -13c19 0 32 7 43 19c31 33 38 101 38 144h-117v52h116c-2 38 -10 97 -38 123c-11 11 -27 18 -44 18c-12 0 -26 -4 -39 -14c-9 -7 -20 -18 -27 -29v70c28 22 58 25 74 25c33 0 58 -11 79 -32c45 -44 57 -115 57 -189
c0 -86 -16 -167 -62 -211c-24 -22 -47 -29 -76 -29c-20 0 -43 3 -72 26z" />
    <glyph glyph-name="afii10096" unicode="&#x44e;" horiz-adv-x="453" 
d="M107 261h57c2 47 15 128 52 165c22 21 47 28 75 28s52 -7 74 -28c47 -45 54 -126 54 -202c0 -79 -7 -157 -54 -203c-22 -21 -42 -28 -73 -28c-24 0 -51 4 -76 28c-42 41 -53 131 -53 189h-56v-210h-57v447h57v-186zM290 402c-12 0 -23 -4 -33 -14
c-15 -15 -37 -53 -37 -164s22 -149 37 -164c10 -10 21 -14 33 -14c13 0 24 4 34 14c7 8 36 41 36 164s-29 156 -36 164c-10 10 -21 14 -34 14z" />
    <glyph glyph-name="afii10097" unicode="&#x44f;" horiz-adv-x="296" 
d="M20 0l110 187c-29 1 -57 13 -76 31c-16 16 -32 44 -32 90c0 51 19 85 38 104c33 32 71 35 110 35h76v-447h-56v185l-104 -185h-66zM190 234v161h-29c-17 0 -41 -1 -58 -18c-14 -14 -21 -42 -21 -67s7 -46 20 -59c17 -16 42 -17 56 -17h32z" />
    <glyph glyph-name="afii10071" unicode="&#x451;" horiz-adv-x="313" 
d="M219 152h57c-3 -72 -25 -159 -113 -159c-115 0 -130 143 -130 229c0 81 17 232 126 232c105 0 121 -135 121 -214c0 -9 -1 -19 -1 -28h-189v-10c0 -45 7 -156 71 -156c50 0 57 68 58 106zM91 260h133c-2 40 -7 142 -64 142c-58 0 -67 -101 -69 -142zM263 558
c0 -24 -19 -44 -43 -44s-42 20 -42 44c0 23 18 42 42 42s43 -19 43 -42zM136 558c0 -24 -18 -44 -42 -44s-43 20 -43 44c0 23 19 42 43 42s42 -19 42 -42z" />
    <glyph glyph-name="afii10099" unicode="&#x452;" horiz-adv-x="340" 
d="M59 729h56v-145h104v-52h-104v-145c16 17 31 26 36 29c18 10 36 14 54 14c31 0 49 -12 60 -23c24 -26 25 -72 25 -92v-357c0 -27 -1 -86 -35 -117c-10 -9 -29 -21 -59 -21c-17 0 -31 4 -43 10v57c12 -9 24 -11 33 -11c12 0 25 4 32 10c15 13 16 43 16 72v341
c0 37 -4 58 -14 70c-7 8 -18 15 -35 15c-18 0 -35 -7 -47 -19c-23 -24 -23 -59 -23 -88v-277h-56v532h-49v52h49v145z" />
    <glyph glyph-name="afii10100" unicode="&#x453;" horiz-adv-x="246" 
d="M50 0v447h181v-52h-125v-395h-56zM239 610l-115 -103l-35 26l96 120z" />
    <glyph glyph-name="afii10101" unicode="&#x454;" horiz-adv-x="280" 
d="M244 91v-72c-29 -23 -52 -26 -72 -26c-30 0 -52 7 -76 29c-46 43 -62 112 -62 203c0 77 11 152 57 197c21 21 46 32 79 32c16 0 46 -3 74 -25v-70c-7 11 -18 22 -27 29c-13 10 -26 14 -39 14c-19 0 -33 -7 -44 -18c-26 -26 -38 -81 -38 -123h116v-52h-117
c0 -49 9 -113 38 -144c11 -12 24 -19 43 -19c15 0 28 4 40 13c10 7 21 19 28 32z" />
    <glyph glyph-name="afii10102" unicode="&#x455;" horiz-adv-x="249" 
d="M219 425v-69c-20 24 -45 46 -77 46c-33 0 -55 -27 -55 -59c0 -87 144 -103 144 -224c0 -69 -49 -126 -120 -126c-30 0 -59 12 -83 31v66c22 -23 47 -44 79 -44c40 0 65 32 65 69c0 88 -144 118 -144 226c0 65 46 113 111 113c30 0 55 -11 80 -29z" />
    <glyph glyph-name="afii10103" unicode="&#x456;" horiz-adv-x="155" 
d="M119 587c0 -22 -18 -41 -41 -41s-42 19 -42 41c0 24 18 43 42 43c23 0 41 -20 41 -43zM106 0h-57v447h57v-447z" />
    <glyph glyph-name="afii10104" unicode="&#x457;" horiz-adv-x="155" 
d="M106 0h-57v447h57v-447zM147 588c0 -24 -12 -44 -29 -44c-16 0 -28 20 -28 44c0 23 12 42 28 42c17 0 29 -19 29 -42zM66 588c0 -24 -13 -44 -28 -44c-17 0 -30 20 -30 44c0 23 13 42 30 42c15 0 28 -19 28 -42z" />
    <glyph glyph-name="afii10105" unicode="&#x458;" horiz-adv-x="159" 
d="M110 -180h-58v627h58v-627zM123 587c0 -22 -19 -41 -42 -41s-42 19 -42 41c0 24 18 43 42 43s42 -19 42 -43z" />
    <glyph glyph-name="afii10106" unicode="&#x459;" horiz-adv-x="478" 
d="M234 0v395h-103v-190c0 -38 -1 -61 -4 -93c-3 -34 -7 -66 -35 -93c-18 -17 -37 -23 -59 -23c-12 0 -21 2 -29 4v58c7 -7 14 -9 24 -9c11 0 19 2 27 11c23 24 23 71 23 117v270h212v-171h20c27 0 75 -4 109 -36s39 -78 39 -109c0 -26 -3 -68 -32 -98s-65 -33 -96 -33h-96z
M290 52h32c15 0 42 1 58 16c11 10 21 31 21 69c0 22 -4 44 -20 63c-20 24 -45 26 -66 26h-25v-174z" />
    <glyph glyph-name="afii10107" unicode="&#x45a;" horiz-adv-x="468" 
d="M224 0v221h-118v-221h-56v447h56v-174h118v174h57v-174h19c30 0 77 -4 110 -36c35 -34 38 -82 38 -108c0 -22 -3 -67 -31 -96c-29 -30 -68 -33 -97 -33h-96zM281 52h31c18 0 42 1 58 16c12 11 21 32 21 62c0 41 -15 62 -25 72c-19 19 -41 19 -59 19h-26v-169z" />
    <glyph glyph-name="afii10108" unicode="&#x45b;" horiz-adv-x="340" 
d="M290 0h-56v301c0 36 -1 83 -50 83c-21 0 -42 -11 -54 -29c-15 -23 -15 -52 -15 -78v-277h-56v532h-49v52h49v145h56v-145h104v-52h-104v-145c23 25 53 43 87 43c73 0 88 -52 88 -115v-315z" />
    <glyph glyph-name="afii10109" unicode="&#x45c;" horiz-adv-x="306" 
d="M106 447v-195l119 195h65l-135 -215l149 -232h-69l-129 205v-205h-56v447h56zM275 610l-115 -103l-35 26l96 120z" />
    <glyph glyph-name="afii10110" unicode="&#x45e;" horiz-adv-x="289" 
d="M283 447l-160 -627h-60l50 192l-106 435h57l56 -248c9 -37 16 -75 21 -112c4 28 11 55 18 84l65 276h59zM207 597l47 -23c-8 -23 -24 -44 -41 -56c-24 -17 -55 -18 -66 -18s-42 1 -66 18c-17 12 -33 33 -41 56l47 23c2 -12 10 -27 21 -36c12 -10 28 -11 40 -11
s26 1 38 11c10 8 18 23 21 36z" />
    <glyph glyph-name="afii10193" unicode="&#x45f;" horiz-adv-x="326" 
d="M276 447v-447h-85v-104h-57v104h-84v447h56v-395h114v395h56z" />
    <glyph glyph-name="afii10146" unicode="&#x462;" horiz-adv-x="407" 
d="M177 542v-164h37c33 0 78 -5 114 -40c44 -43 49 -112 49 -149c0 -61 -11 -125 -56 -161c-34 -27 -71 -28 -107 -28h-99v542h-100v57h98v95h64v-95h134v-57h-134zM177 53h33c16 0 51 1 73 23c24 24 30 72 30 103c0 40 -6 93 -35 119c-24 22 -57 23 -71 23h-30v-268z" />
    <glyph glyph-name="afii10194" unicode="&#x463;" horiz-adv-x="321" 
d="M77 0v395h-67v52h67v220h56v-220h105v-52h-105v-119h20c52 0 89 -16 110 -36c20 -19 38 -53 38 -109c0 -26 -3 -68 -32 -98s-65 -33 -96 -33h-96zM133 52h32c15 0 42 1 58 16c11 10 21 31 21 69c0 22 -4 44 -20 63c-20 24 -45 26 -66 26h-25v-174z" />
    <glyph glyph-name="afii10147" unicode="&#x472;" horiz-adv-x="404" 
d="M366 334c0 -129 -13 -248 -74 -307c-25 -24 -55 -36 -90 -36s-65 12 -90 36c-61 59 -74 178 -74 307c0 127 13 247 74 306c25 24 55 36 90 36s65 -12 90 -36c61 -59 74 -179 74 -306zM202 616c-22 0 -38 -9 -51 -22c-42 -44 -50 -156 -50 -211h202c-1 51 -8 168 -50 211
c-13 13 -29 22 -51 22zM303 326h-202c-1 -23 -5 -196 50 -253c13 -13 29 -22 51 -22s38 9 51 22c48 50 53 189 50 253z" />
    <glyph glyph-name="afii10195" unicode="&#x473;" horiz-adv-x="323" 
d="M289 224c0 -75 -5 -157 -53 -203c-23 -22 -46 -28 -75 -28s-52 6 -75 28c-48 46 -53 128 -53 203c0 74 5 156 53 202c23 22 46 28 75 28s52 -6 75 -28c48 -46 53 -128 53 -202zM161 402c-13 0 -24 -4 -34 -14c-28 -28 -34 -103 -35 -127h138c-1 24 -7 99 -35 127
c-10 10 -21 14 -34 14zM231 209h-140c0 -46 8 -121 36 -149c10 -10 21 -14 34 -14s24 4 34 14c30 30 36 114 36 149z" />
    <glyph glyph-name="afii10148" unicode="&#x474;" horiz-adv-x="326" 
d="M325 667l-135 -667h-55l-134 667h64l84 -442c8 -44 11 -89 15 -134c4 44 9 88 17 132l80 444h64z" />
    <glyph glyph-name="afii10196" unicode="&#x475;" horiz-adv-x="276" 
d="M269 447l-99 -447h-61l-102 447h58l59 -267c7 -32 12 -64 16 -96c5 31 10 63 16 94l55 269h58z" />
    <glyph glyph-name="afii10050" unicode="&#x490;" horiz-adv-x="309" 
d="M55 0v667h168v121h62v-178h-168v-610h-62z" />
    <glyph glyph-name="afii10098" unicode="&#x491;" horiz-adv-x="256" 
d="M50 0v447h139v99h57v-151h-139v-395h-57z" />
    <glyph glyph-name="uni0492" unicode="&#x492;" horiz-adv-x="318" 
d="M290 610h-150v-234h116v-57h-116v-319h-62v319h-58v57h58v291h212v-57z" />
    <glyph glyph-name="uni0493" unicode="&#x493;" horiz-adv-x="262" 
d="M67 0v193h-47v52h47v202h180v-52h-124v-150h105v-52h-105v-193h-56z" />
    <glyph glyph-name="uni0494" unicode="&#x494;" horiz-adv-x="374" 
d="M281 610h-164v-219c22 8 49 14 75 14c40 0 77 -14 103 -39c39 -39 51 -100 51 -171c0 -110 -30 -158 -53 -179c-26 -24 -56 -28 -79 -28c-28 0 -50 7 -70 18l19 59c10 -8 25 -17 46 -17c17 0 32 3 45 18c11 12 29 42 29 122c0 90 -21 124 -36 138c-14 13 -36 22 -63 22
c-10 0 -37 -1 -67 -17v-331h-62v667h226v-57z" />
    <glyph glyph-name="uni0495" unicode="&#x495;" horiz-adv-x="293" 
d="M50 0v447h180v-52h-124v-134h19c26 0 68 -3 99 -32c32 -30 49 -87 49 -162c0 -76 -18 -161 -66 -208c-19 -18 -45 -32 -72 -39v63c13 2 23 8 34 18c39 38 45 105 45 166c0 35 -3 94 -30 120c-19 19 -44 19 -59 19h-19v-206h-56z" />
    <glyph glyph-name="uni0496" unicode="&#x496;" horiz-adv-x="485" 
d="M392 667h65l-138 -318l114 -292h48v-187h-62v130h-27l-128 336v-336h-62v336l-132 -336h-66l143 349l-138 318h65l128 -303v303h62v-303z" />
    <glyph glyph-name="uni0497" unicode="&#x497;" horiz-adv-x="440" 
d="M350 447h61l-127 -214l101 -181h50v-156h-56v104h-29l-111 205v-205h-57v205l-115 -205h-65l135 233l-127 214h61l111 -195v195h57v-195z" />
    <glyph glyph-name="uni0498" unicode="&#x498;" horiz-adv-x="349" 
d="M101 370h17c19 0 54 3 78 26c17 16 31 47 31 92c0 31 -5 70 -27 96c-12 14 -33 30 -68 30c-26 0 -46 -9 -59 -19c-11 -8 -25 -23 -35 -38v85c16 12 51 34 104 34c54 0 87 -21 106 -42c26 -28 44 -72 44 -132c0 -38 -6 -78 -23 -105c-13 -22 -35 -40 -59 -50
c32 -5 55 -21 69 -37c32 -36 36 -85 36 -110c0 -74 -22 -131 -56 -166c-23 -24 -48 -37 -81 -40v-124h-62v124c-16 1 -52 6 -86 34v87c21 -32 58 -62 109 -62c22 0 54 5 78 34c21 25 30 65 30 101c0 35 -10 75 -35 98c-27 25 -67 27 -91 27h-20v57z" />
    <glyph glyph-name="uni0499" unicode="&#x499;" horiz-adv-x="279" 
d="M176 231c18 -5 34 -14 46 -25c17 -15 32 -41 32 -83c0 -37 -14 -68 -32 -89c-13 -16 -35 -32 -66 -38v-100h-56v100c-18 2 -43 8 -70 32v72c9 -12 25 -29 37 -38c13 -9 29 -16 49 -16c25 0 45 9 56 21c13 14 20 38 20 55c0 26 -9 50 -24 62c-18 15 -52 16 -66 16h-17v54
h19c19 0 43 6 56 16c19 15 21 38 21 55c0 16 -1 39 -18 57c-11 12 -29 19 -48 19s-35 -7 -48 -18c-12 -10 -24 -25 -32 -37v72c30 30 62 36 87 36c30 0 58 -6 83 -31c26 -27 33 -60 33 -90c0 -21 -3 -47 -19 -69c-10 -13 -25 -25 -43 -33z" />
    <glyph glyph-name="uni049A" unicode="&#x49a;" horiz-adv-x="346" 
d="M55 667h62v-303l134 303h69l-144 -318l118 -292h48v-187h-62v130h-32l-131 336v-336h-62v667z" />
    <glyph glyph-name="uni049B" unicode="&#x49b;" horiz-adv-x="322" 
d="M106 447v-195l119 195h66l-136 -215l112 -180h50v-156h-56v104h-30l-125 205v-205h-56v447h56z" />
    <glyph glyph-name="uni049C" unicode="&#x49c;" horiz-adv-x="423" 
d="M117 321v-321h-62v667h62v-288h41v137h56v-152l134 303h66l-144 -318l145 -349h-67l-134 336v-176h-56v161h-41z" />
    <glyph glyph-name="uni049D" unicode="&#x49d;" horiz-adv-x="359" 
d="M106 202v-202h-56v447h56v-195h32v93h47v-93l100 195h62l-113 -210l123 -237h-66l-106 205v-116h-47v113h-32z" />
    <glyph glyph-name="uni04A0" unicode="&#x4a0;" horiz-adv-x="389" 
d="M381 0h-70l-134 336v-336h-62v610h-100v57h162v-303l134 303h69l-144 -318z" />
    <glyph glyph-name="uni04A1" unicode="&#x4a1;" horiz-adv-x="362" 
d="M161 252l120 195h65l-135 -215l149 -232h-69l-130 205v-205h-56v395h-95v52h151v-195z" />
    <glyph glyph-name="uni04A2" unicode="&#x4a2;" horiz-adv-x="399" 
d="M55 667h62v-266h152v266h62v-610h54v-187h-62v130h-54v344h-152v-344h-62v667z" />
    <glyph glyph-name="uni04A3" unicode="&#x4a3;" horiz-adv-x="341" 
d="M50 447h56v-186h119v186h56v-395h50v-156h-56v104h-50v209h-119v-209h-56v447z" />
    <glyph glyph-name="uni04A4" unicode="&#x4a4;" horiz-adv-x="467" 
d="M331 610v-610h-62v344h-152v-344h-62v667h62v-266h152v266h188v-57h-126z" />
    <glyph glyph-name="uni04A5" unicode="&#x4a5;" horiz-adv-x="404" 
d="M225 0v209h-118v-209h-57v447h57v-186h118v186h169v-52h-113v-395h-56z" />
    <glyph glyph-name="uni04AA" unicode="&#x4aa;" horiz-adv-x="320" 
d="M302 81v-62c-16 -12 -33 -20 -51 -24v-125h-62v125c-25 5 -51 15 -76 40c-65 65 -75 178 -75 282c0 146 21 258 81 317c28 28 62 42 105 42c23 0 50 -5 78 -21v-68c-24 17 -53 29 -77 29c-17 0 -42 -4 -65 -27c-56 -56 -59 -191 -59 -237c0 -188 32 -251 57 -276
c19 -19 41 -25 62 -25c25 0 56 11 82 30z" />
    <glyph glyph-name="uni04AB" unicode="&#x4ab;" horiz-adv-x="246" 
d="M226 86v-70c-10 -9 -20 -15 -31 -18v-102h-56v100c-25 5 -43 16 -60 40c-16 22 -46 72 -46 186c0 55 7 142 54 196c23 27 47 36 78 36c13 0 36 -2 61 -17v-66c-14 17 -36 31 -58 31c-12 0 -23 -5 -31 -12s-45 -39 -45 -167c0 -114 33 -153 38 -158c15 -16 30 -19 39 -19
c29 0 49 28 57 40z" />
    <glyph glyph-name="uni04AE" unicode="&#x4ae;" horiz-adv-x="316" 
d="M315 667l-122 -378v-289h-62v289l-130 378h67l62 -191c8 -24 23 -78 32 -123c4 26 10 59 29 122l57 192h67z" />
    <glyph glyph-name="uni04AF" unicode="&#x4af;" horiz-adv-x="292" 
d="M8 447h59l47 -172c11 -42 21 -72 33 -135c10 50 21 93 34 140l46 167h59l-110 -378v-249h-58v249z" />
    <glyph glyph-name="uni04B0" unicode="&#x4b0;" horiz-adv-x="316" 
d="M315 667l-122 -378v-30h102v-54h-102v-205h-62v205h-102v54h102v30l-130 378h67l62 -191c8 -24 23 -78 32 -123c4 26 10 59 29 122l57 192h67z" />
    <glyph glyph-name="uni04B1" unicode="&#x4b1;" horiz-adv-x="292" 
d="M8 447h59l47 -172c11 -42 21 -72 33 -135c10 50 21 93 34 140l46 167h59l-110 -370v-25h75v-52h-75v-180h-58v180h-75v52h75v25z" />
    <glyph glyph-name="uni04B2" unicode="&#x4b2;" horiz-adv-x="340" 
d="M68 667l59 -165c14 -38 25 -77 32 -117c6 39 19 76 32 113l60 169h66l-127 -328l104 -282h42v-187h-62v130h-23l-66 189c-11 31 -20 63 -26 95c-7 -33 -17 -65 -28 -97l-63 -187h-67l130 339l-130 328h67z" />
    <glyph glyph-name="uni04B3" unicode="&#x4b3;" horiz-adv-x="300" 
d="M18 447h62c23 -62 49 -124 63 -189c13 66 42 127 66 189h63l-100 -218l77 -177h47v-156h-53v104h-34l-49 127c-8 22 -17 44 -22 66c-4 -22 -12 -45 -20 -67l-48 -126h-63l103 229z" />
    <glyph glyph-name="uni04B6" unicode="&#x4b6;" horiz-adv-x="388" 
d="M320 667v-610h54v-187h-62v130h-54v337c-22 -5 -46 -8 -74 -8c-32 0 -71 4 -99 28c-36 30 -40 77 -40 134v176h63v-169c0 -37 0 -75 22 -95c18 -16 47 -17 66 -17c23 0 41 2 62 7v274h62z" />
    <glyph glyph-name="uni04B7" unicode="&#x4b7;" horiz-adv-x="319" 
d="M253 0h-50v211c-18 -6 -38 -9 -62 -9c-26 0 -61 6 -81 25c-29 27 -30 77 -30 103v117h56v-123c0 -12 0 -41 15 -55c11 -10 32 -14 48 -14c25 0 48 6 54 8v184h56v-395h50v-156h-56v104z" />
    <glyph glyph-name="uni04B8" unicode="&#x4b8;" horiz-adv-x="389" 
d="M335 667v-667h-62v337c-12 -3 -26 -6 -41 -6v-152h-56v151c-39 0 -71 10 -91 27c-36 30 -40 77 -40 134v176h63v-171c0 -34 0 -72 18 -91c11 -12 30 -18 50 -18v141h56v-141c15 0 28 2 41 6v274h62z" />
    <glyph glyph-name="uni04B9" unicode="&#x4b9;" horiz-adv-x="316" 
d="M210 0v211c-9 -4 -20 -6 -31 -7v-105h-48v105c-28 0 -57 10 -73 26c-26 26 -28 69 -28 91v126h56v-123c0 -18 1 -38 11 -50c7 -9 21 -15 34 -16v95h48v-96c10 0 20 2 31 6v184h56v-447h-56z" />
    <glyph glyph-name="uni04BA" unicode="&#x4ba;" horiz-adv-x="374" 
d="M55 0v667h62v-276c36 12 66 14 78 14c33 0 74 -8 99 -28c36 -30 40 -77 40 -134v-243h-63v236c0 35 0 73 -23 94c-15 13 -41 18 -62 18c-28 0 -50 -7 -69 -17v-331h-62z" />
    <glyph glyph-name="uni04BB" unicode="&#x4bb;" horiz-adv-x="330" 
d="M280 0h-56v321c0 37 1 87 -50 87c-21 0 -42 -11 -53 -29c-15 -23 -15 -52 -15 -78v-301h-56v729h56v-318c22 25 52 43 87 43c73 0 87 -52 87 -115v-339z" />
    <glyph glyph-name="uni04C0" unicode="&#x4c0;" horiz-adv-x="157" 
d="M107 0h-57v667h57v-667z" />
    <glyph glyph-name="uni04C1" unicode="&#x4c1;" horiz-adv-x="466" 
d="M462 0h-66l-132 336v-336h-62v336l-132 -336h-66l143 349l-138 318h65l128 -303v303h62v-303l128 303h65l-138 -318zM299 806l53 -22c-10 -32 -30 -51 -46 -62c-25 -16 -51 -19 -73 -19c-27 0 -50 4 -73 19c-31 20 -42 46 -46 62l53 22c6 -23 20 -34 24 -37
c9 -7 23 -12 42 -12c25 0 38 9 42 12c11 8 20 24 24 37z" />
    <glyph glyph-name="uni04C2" unicode="&#x4c2;" horiz-adv-x="421" 
d="M419 0h-65l-115 205v-205h-57v205l-115 -205h-65l135 233l-127 214h61l111 -195v195h57v-195l111 195h61l-127 -214zM272 597l47 -23c-8 -23 -24 -44 -41 -56c-24 -17 -55 -18 -66 -18s-42 1 -66 18c-17 12 -33 33 -41 56l47 23c2 -12 10 -27 21 -36
c12 -10 28 -11 40 -11s26 1 38 11c10 8 18 23 21 36z" />
    <glyph glyph-name="uni04C3" unicode="&#x4c3;" horiz-adv-x="373" 
d="M55 667h62v-303l138 303h69l-126 -266c40 0 72 -16 93 -35c52 -47 52 -129 52 -212v-83c0 -73 -6 -160 -53 -203c-23 -21 -49 -28 -79 -28c-28 0 -50 7 -70 18l19 59c14 -11 30 -17 46 -17c17 0 32 4 45 18c27 30 29 90 29 147v87c0 80 -4 140 -34 169
c-9 9 -29 23 -65 23c-30 0 -56 -10 -64 -13v-331h-62v667z" />
    <glyph glyph-name="uni04C4" unicode="&#x4c4;" horiz-adv-x="292" 
d="M106 447v-195l119 195h65l-121 -193c27 -5 49 -18 64 -34c35 -38 41 -104 41 -152c0 -75 -13 -155 -64 -206c-14 -14 -39 -33 -75 -42v63c13 2 23 8 34 18c37 36 45 104 45 152c0 91 -17 120 -28 131c-12 12 -35 21 -68 21h-12v-205h-56v447h56z" />
    <glyph glyph-name="uni04C7" unicode="&#x4c7;" horiz-adv-x="385" 
d="M269 667h62v-741c0 -10 0 -19 -1 -29c-5 -54 -44 -77 -95 -77c-26 0 -49 7 -72 18v64c19 -16 37 -28 62 -28c41 0 44 33 44 79v391h-152v-344h-62v667h62v-266h152v266z" />
    <glyph glyph-name="uni04C8" unicode="&#x4c8;" horiz-adv-x="330" 
d="M50 447h56v-186h118v186h56v-489c0 -53 -8 -88 -31 -112c-19 -20 -40 -26 -63 -26c-14 0 -27 2 -43 10v57c14 -10 25 -11 35 -11c8 0 20 1 29 8c16 14 17 50 17 74v251h-118v-209h-56v447z" />
    <glyph glyph-name="uni04D0" unicode="&#x4d0;" horiz-adv-x="325" 
d="M324 0h-66l-25 137h-141l-25 -137h-66l132 667h58zM223 191l-44 235c-10 52 -16 104 -19 157c-9 -132 -35 -262 -58 -392h121zM229 806l53 -22c-10 -32 -30 -51 -46 -62c-25 -16 -51 -19 -73 -19c-27 0 -50 4 -73 19c-31 20 -42 46 -46 62l53 22c6 -23 20 -34 24 -37
c9 -7 23 -12 42 -12c25 0 38 9 42 12c11 8 20 24 24 37z" />
    <glyph glyph-name="uni04D1" unicode="&#x4d1;" horiz-adv-x="327" 
d="M277 0h-57v36c-20 -27 -41 -43 -76 -43c-102 0 -105 143 -105 222c0 91 3 239 110 239c32 0 51 -12 71 -37v30h57v-447zM226 226c0 89 -5 183 -63 183c-65 0 -66 -114 -66 -159c0 -37 0 -72 3 -108c4 -39 10 -103 62 -103c15 0 26 4 36 15c28 28 28 133 28 172zM217 597
l47 -23c-8 -23 -24 -44 -41 -56c-24 -17 -55 -18 -66 -18s-42 1 -66 18c-17 12 -33 33 -41 56l47 23c2 -12 10 -27 21 -36c12 -10 28 -11 40 -11s26 1 38 11c10 8 18 23 21 36z" />
    <glyph glyph-name="uni04D2" unicode="&#x4d2;" horiz-adv-x="325" 
d="M324 0h-66l-25 137h-141l-25 -137h-66l132 667h58zM223 191l-44 235c-10 52 -16 104 -19 157c-9 -132 -35 -262 -58 -392h121zM270 764c0 -24 -19 -44 -43 -44s-43 20 -43 44s19 43 43 43s43 -19 43 -43zM142 764c0 -24 -19 -44 -43 -44s-43 20 -43 44s19 43 43 43
s43 -19 43 -43z" />
    <glyph glyph-name="uni04D3" unicode="&#x4d3;" horiz-adv-x="327" 
d="M277 0h-57v36c-20 -27 -41 -43 -76 -43c-102 0 -105 143 -105 222c0 91 3 239 110 239c32 0 51 -12 71 -37v30h57v-447zM226 226c0 89 -5 183 -63 183c-65 0 -66 -114 -66 -159c0 -37 0 -72 3 -108c4 -39 10 -103 62 -103c15 0 26 4 36 15c28 28 28 133 28 172zM273 557
c0 -24 -19 -44 -43 -44s-43 20 -43 44s19 43 43 43s43 -19 43 -43zM145 557c0 -24 -19 -44 -43 -44s-43 20 -43 44s19 43 43 43s43 -19 43 -43z" />
    <glyph glyph-name="uni04D4" unicode="&#x4d4;" horiz-adv-x="462" 
d="M471 0h-207l-22 137h-151l-24 -137h-66l131 667h222l11 -57h-143l42 -235h135l11 -57h-136l47 -261h141zM233 190l-47 282c-7 41 -13 82 -15 123c-7 -41 -12 -81 -19 -122l-51 -283h132z" />
    <glyph glyph-name="uni04D5" unicode="&#x4d5;" horiz-adv-x="508" 
d="M474 214h-197c0 -49 9 -169 78 -169c52 0 59 70 60 110h53c-2 -69 -33 -162 -116 -162c-49 0 -78 34 -97 74c-19 -44 -59 -74 -108 -74c-85 0 -114 85 -114 157s29 148 112 148c31 0 61 -13 80 -37v13c0 59 -15 128 -87 128c-31 0 -56 -18 -78 -36v62c24 17 50 26 81 26
c53 0 92 -27 114 -75c16 39 51 75 96 75c112 0 122 -158 123 -240zM279 261h139c0 44 -12 141 -71 141c-56 0 -68 -100 -68 -141zM226 145c0 45 -14 107 -71 107c-55 0 -67 -58 -67 -102c0 -43 12 -104 67 -104c54 0 71 55 71 99z" />
    <glyph glyph-name="uni04D6" unicode="&#x4d6;" horiz-adv-x="301" 
d="M263 0h-208v667h208v-57h-146v-235h142v-57h-142v-261h146v-57zM225 806l53 -22c-10 -32 -30 -51 -46 -62c-25 -16 -51 -19 -73 -19c-27 0 -50 4 -73 19c-31 20 -42 46 -46 62l53 22c6 -23 20 -34 24 -37c9 -7 23 -12 42 -12c25 0 38 9 42 12c11 8 20 24 24 37z" />
    <glyph glyph-name="uni04D7" unicode="&#x4d7;" horiz-adv-x="313" 
d="M219 152h57c-3 -72 -25 -159 -113 -159c-115 0 -130 143 -130 229c0 81 17 232 126 232c105 0 121 -135 121 -214c0 -9 -1 -19 -1 -28h-189v-10c0 -45 7 -156 71 -156c50 0 57 68 58 106zM91 260h133c-2 40 -7 142 -64 142c-58 0 -67 -101 -69 -142zM217 597l47 -23
c-8 -23 -24 -44 -41 -56c-24 -17 -55 -18 -66 -18s-42 1 -66 18c-17 12 -33 33 -41 56l47 23c2 -12 10 -27 21 -36c12 -10 28 -11 40 -11s26 1 38 11c10 8 18 23 21 36z" />
    <glyph glyph-name="uni04D8" unicode="&#x4d8;" horiz-adv-x="374" 
d="M38 352h235v12v9c0 113 -12 184 -48 221c-15 16 -32 22 -51 22c-20 0 -36 -8 -49 -24s-23 -47 -26 -71l-61 24c8 36 29 77 51 99c28 28 57 32 85 32c37 0 65 -7 94 -36c65 -65 68 -184 68 -290c0 -66 -1 -119 -8 -179c-5 -42 -15 -106 -53 -144c-31 -32 -68 -36 -95 -36
c-28 0 -64 6 -92 34c-46 46 -50 134 -50 199v128zM272 295h-172v-85c0 -59 4 -111 30 -139c13 -13 29 -20 50 -20s39 7 51 18c20 18 29 53 34 94c4 36 7 88 7 132z" />
    <glyph glyph-name="afii10846" unicode="&#x4d9;" horiz-adv-x="315" 
d="M36 235h189v10c0 38 -7 113 -33 140c-12 13 -26 16 -40 16c-15 0 -26 -5 -37 -17c-4 -4 -21 -25 -28 -78l-54 22c5 32 20 68 40 91s45 35 78 35s58 -11 79 -33c38 -40 52 -109 52 -190c0 -76 -10 -163 -58 -210c-21 -20 -44 -28 -70 -28c-32 0 -54 15 -68 29
c-44 44 -55 142 -50 213zM224 187h-133c1 -38 11 -107 33 -129c9 -9 20 -13 31 -13c13 0 24 6 32 13c24 22 36 88 37 129z" />
    <glyph glyph-name="uni04DA" unicode="&#x4da;" horiz-adv-x="374" 
d="M38 352h235v12v9c0 113 -12 184 -48 221c-15 16 -32 22 -51 22c-20 0 -36 -8 -49 -24s-23 -47 -26 -71l-61 24c8 36 29 77 51 99c28 28 57 32 85 32c37 0 65 -7 94 -36c65 -65 68 -184 68 -290c0 -66 -1 -119 -8 -179c-5 -42 -15 -106 -53 -144c-31 -32 -68 -36 -95 -36
c-28 0 -64 6 -92 34c-46 46 -50 134 -50 199v128zM272 295h-172v-85c0 -59 4 -111 30 -139c13 -13 29 -20 50 -20s39 7 51 18c20 18 29 53 34 94c4 36 7 88 7 132zM282 764c0 -24 -19 -44 -43 -44s-43 20 -43 44s19 43 43 43s43 -19 43 -43zM154 764c0 -24 -19 -44 -43 -44
s-43 20 -43 44s19 43 43 43s43 -19 43 -43z" />
    <glyph glyph-name="uni04DB" unicode="&#x4db;" horiz-adv-x="315" 
d="M36 235h189v10c0 38 -7 113 -33 140c-12 13 -26 16 -40 16c-15 0 -26 -5 -37 -17c-4 -4 -21 -25 -28 -78l-54 22c5 32 20 68 40 91s45 35 78 35s58 -11 79 -33c38 -40 52 -109 52 -190c0 -76 -10 -163 -58 -210c-21 -20 -44 -28 -70 -28c-32 0 -54 15 -68 29
c-44 44 -55 142 -50 213zM224 187h-133c1 -38 11 -107 33 -129c9 -9 20 -13 31 -13c13 0 24 6 32 13c24 22 36 88 37 129zM262 557c0 -24 -19 -44 -43 -44s-43 20 -43 44s19 43 43 43s43 -19 43 -43zM134 557c0 -24 -19 -44 -43 -44s-43 20 -43 44s19 43 43 43
s43 -19 43 -43z" />
    <glyph glyph-name="uni04DC" unicode="&#x4dc;" horiz-adv-x="466" 
d="M462 0h-66l-132 336v-336h-62v336l-132 -336h-66l143 349l-138 318h65l128 -303v303h62v-303l128 303h65l-138 -318zM340 764c0 -24 -19 -44 -43 -44s-43 20 -43 44s19 43 43 43s43 -19 43 -43zM212 764c0 -24 -19 -44 -43 -44s-43 20 -43 44s19 43 43 43s43 -19 43 -43z
" />
    <glyph glyph-name="uni04DD" unicode="&#x4dd;" horiz-adv-x="421" 
d="M419 0h-65l-115 205v-205h-57v205l-115 -205h-65l135 233l-127 214h61l111 -195v195h57v-195l111 195h61l-127 -214zM321 557c0 -24 -19 -44 -43 -44s-43 20 -43 44s19 43 43 43s43 -19 43 -43zM193 557c0 -24 -19 -44 -43 -44s-43 20 -43 44s19 43 43 43s43 -19 43 -43z
" />
    <glyph glyph-name="uni04DE" unicode="&#x4de;" horiz-adv-x="349" 
d="M101 370h17c19 0 54 3 78 26c17 16 31 47 31 92c0 31 -5 70 -27 96c-12 14 -33 30 -68 30c-26 0 -46 -9 -59 -19c-11 -8 -25 -23 -35 -38v85c16 12 51 34 104 34c54 0 87 -21 106 -42c26 -28 44 -72 44 -132c0 -38 -6 -78 -23 -105c-13 -22 -35 -40 -59 -50
c32 -5 55 -21 69 -37c32 -36 36 -85 36 -110c0 -73 -22 -132 -56 -166c-33 -33 -71 -43 -113 -43c-34 0 -76 6 -116 37v87c21 -32 58 -62 109 -62c22 0 54 5 78 34c21 25 30 65 30 101c0 35 -10 75 -35 98c-27 25 -67 27 -91 27h-20v57zM257 764c0 -24 -19 -44 -43 -44
s-43 20 -43 44s19 43 43 43s43 -19 43 -43zM129 764c0 -24 -19 -44 -43 -44s-43 20 -43 44s19 43 43 43s43 -19 43 -43z" />
    <glyph glyph-name="uni04DF" unicode="&#x4df;" horiz-adv-x="279" 
d="M176 231c18 -5 34 -14 46 -25c21 -19 32 -46 32 -83c0 -48 -22 -80 -41 -98c-27 -25 -55 -32 -89 -32c-29 0 -61 6 -94 35v72c9 -12 25 -29 37 -38c13 -9 29 -16 49 -16c25 0 45 9 56 21c13 14 20 38 20 55c0 26 -9 50 -24 62c-18 15 -52 16 -66 16h-17v54h19
c19 0 43 6 56 16c19 15 21 38 21 55c0 16 -1 39 -18 57c-11 12 -29 19 -48 19s-35 -7 -48 -18c-12 -10 -24 -25 -32 -37v72c30 30 62 36 87 36c30 0 58 -6 83 -31c26 -27 33 -60 33 -90c0 -21 -3 -47 -19 -69c-10 -13 -25 -25 -43 -33zM237 557c0 -24 -19 -44 -43 -44
s-43 20 -43 44s19 43 43 43s43 -19 43 -43zM109 557c0 -24 -19 -44 -43 -44s-43 20 -43 44s19 43 43 43s43 -19 43 -43z" />
    <glyph glyph-name="uni04E2" unicode="&#x4e2;" horiz-adv-x="393" 
d="M55 0v667h62v-452c0 -23 -2 -47 -6 -84c14 47 17 60 24 81l142 455h62v-667h-62v431c0 35 4 79 6 105c-17 -65 -20 -72 -27 -94l-139 -442h-62zM309 727h-224v55h224v-55z" />
    <glyph glyph-name="uni04E3" unicode="&#x4e3;" horiz-adv-x="336" 
d="M286 0h-56v278c0 8 0 19 2 64c-6 -28 -13 -47 -21 -67l-105 -275h-56v447h56v-276c0 -23 0 -37 -2 -69c11 41 14 47 21 66l105 279h56v-447zM282 520h-224v55h224v-55z" />
    <glyph glyph-name="uni04E4" unicode="&#x4e4;" horiz-adv-x="393" 
d="M55 0v667h62v-452c0 -23 -2 -47 -6 -84c14 47 17 60 24 81l142 455h62v-667h-62v431c0 35 4 79 6 105c-17 -65 -20 -72 -27 -94l-139 -442h-62zM304 764c0 -24 -19 -44 -43 -44s-43 20 -43 44s19 43 43 43s43 -19 43 -43zM176 764c0 -24 -19 -44 -43 -44s-43 20 -43 44
s19 43 43 43s43 -19 43 -43z" />
    <glyph glyph-name="uni04E5" unicode="&#x4e5;" horiz-adv-x="336" 
d="M286 0h-56v278c0 8 0 19 2 64c-6 -28 -13 -47 -21 -67l-105 -275h-56v447h56v-276c0 -23 0 -37 -2 -69c11 41 14 47 21 66l105 279h56v-447zM277 557c0 -24 -19 -44 -43 -44s-43 20 -43 44s19 43 43 43s43 -19 43 -43zM149 557c0 -24 -19 -44 -43 -44s-43 20 -43 44
s19 43 43 43s43 -19 43 -43z" />
    <glyph glyph-name="uni04E6" unicode="&#x4e6;" horiz-adv-x="404" 
d="M366 336c0 -112 -4 -345 -163 -345c-156 0 -165 231 -165 342c0 110 10 343 164 343c157 0 164 -228 164 -340zM303 358c0 68 -1 258 -100 258c-104 0 -102 -211 -102 -282c0 -70 -1 -283 102 -283c75 0 89 98 94 155c5 50 6 101 6 152zM309 764c0 -24 -19 -44 -43 -44
s-43 20 -43 44s19 43 43 43s43 -19 43 -43zM181 764c0 -24 -19 -44 -43 -44s-43 20 -43 44s19 43 43 43s43 -19 43 -43z" />
    <glyph glyph-name="uni04E7" unicode="&#x4e7;" horiz-adv-x="323" 
d="M289 221c0 -85 -10 -228 -125 -228s-131 144 -131 231s16 230 131 230c116 0 125 -147 125 -233zM231 224c0 45 -2 178 -68 178c-69 0 -71 -136 -71 -183s3 -173 71 -173c66 0 68 133 68 178zM271 557c0 -24 -19 -44 -43 -44s-43 20 -43 44s19 43 43 43s43 -19 43 -43z
M143 557c0 -24 -19 -44 -43 -44s-43 20 -43 44s19 43 43 43s43 -19 43 -43z" />
    <glyph glyph-name="uni04E8" unicode="&#x4e8;" horiz-adv-x="404" 
d="M366 334c0 -129 -13 -248 -74 -307c-25 -24 -55 -36 -90 -36s-65 12 -90 36c-61 59 -74 178 -74 307c0 127 13 247 74 306c25 24 55 36 90 36s65 -12 90 -36c61 -59 74 -179 74 -306zM202 616c-22 0 -38 -9 -51 -22c-42 -44 -50 -156 -50 -211h202c-1 51 -8 168 -50 211
c-13 13 -29 22 -51 22zM303 326h-202c-1 -23 -5 -196 50 -253c13 -13 29 -22 51 -22s38 9 51 22c48 50 53 189 50 253z" />
    <glyph glyph-name="uni04E9" unicode="&#x4e9;" horiz-adv-x="323" 
d="M289 224c0 -75 -5 -157 -53 -203c-23 -22 -46 -28 -75 -28s-52 6 -75 28c-48 46 -53 128 -53 203c0 74 5 156 53 202c23 22 46 28 75 28s52 -6 75 -28c48 -46 53 -128 53 -202zM161 402c-13 0 -24 -4 -34 -14c-28 -28 -34 -103 -35 -127h138c-1 24 -7 99 -35 127
c-10 10 -21 14 -34 14zM231 209h-140c-1 -36 6 -119 36 -149c10 -10 21 -14 34 -14s24 4 34 14c30 30 36 114 36 149z" />
    <glyph glyph-name="uni04EA" unicode="&#x4ea;" horiz-adv-x="404" 
d="M366 334c0 -129 -13 -248 -74 -307c-25 -24 -55 -36 -90 -36s-65 12 -90 36c-61 59 -74 178 -74 307c0 127 13 247 74 306c25 24 55 36 90 36s65 -12 90 -36c61 -59 74 -179 74 -306zM202 616c-22 0 -38 -9 -51 -22c-42 -44 -50 -156 -50 -211h202c-1 51 -8 168 -50 211
c-13 13 -29 22 -51 22zM303 326h-202c-1 -23 -5 -196 50 -253c13 -13 29 -22 51 -22s38 9 51 22c48 50 53 189 50 253zM309 764c0 -24 -19 -44 -43 -44s-43 20 -43 44s19 43 43 43s43 -19 43 -43zM181 764c0 -24 -19 -44 -43 -44s-43 20 -43 44s19 43 43 43s43 -19 43 -43z
" />
    <glyph glyph-name="uni04EB" unicode="&#x4eb;" horiz-adv-x="323" 
d="M289 224c0 -75 -5 -157 -53 -203c-23 -22 -46 -28 -75 -28s-52 6 -75 28c-48 46 -53 128 -53 203c0 74 5 156 53 202c23 22 46 28 75 28s52 -6 75 -28c48 -46 53 -128 53 -202zM161 402c-13 0 -24 -4 -34 -14c-28 -28 -34 -103 -35 -127h138c-1 24 -7 99 -35 127
c-10 10 -21 14 -34 14zM231 209h-140c-1 -36 6 -119 36 -149c10 -10 21 -14 34 -14s24 4 34 14c30 30 36 114 36 149zM271 557c0 -24 -19 -44 -43 -44s-43 20 -43 44s19 43 43 43s43 -19 43 -43zM143 557c0 -24 -19 -44 -43 -44s-43 20 -43 44s19 43 43 43s43 -19 43 -43z
" />
    <glyph glyph-name="uni04EE" unicode="&#x4ee;" horiz-adv-x="341" 
d="M8 667h68l64 -211c15 -48 25 -81 39 -143c11 59 21 97 34 145l56 209h64l-188 -667h-62l64 224zM287 727h-224v55h224v-55z" />
    <glyph glyph-name="uni04EF" unicode="&#x4ef;" horiz-adv-x="289" 
d="M283 447l-160 -627h-60l50 192l-106 435h57l56 -248c9 -37 16 -75 21 -112c4 28 11 55 18 84l65 276h59zM259 520h-224v55h224v-55z" />
    <glyph glyph-name="uni04F0" unicode="&#x4f0;" horiz-adv-x="341" 
d="M8 667h68l64 -211c15 -48 25 -81 39 -143c11 59 21 97 34 145l56 209h64l-188 -667h-62l64 224zM287 764c0 -24 -19 -44 -43 -44s-43 20 -43 44s19 43 43 43s43 -19 43 -43zM159 764c0 -24 -19 -44 -43 -44s-43 20 -43 44s19 43 43 43s43 -19 43 -43z" />
    <glyph glyph-name="uni04F1" unicode="&#x4f1;" horiz-adv-x="289" 
d="M283 447l-160 -627h-60l50 192l-106 435h57l56 -248c9 -37 16 -75 21 -112c4 28 11 55 18 84l65 276h59zM261 557c0 -24 -19 -44 -43 -44s-43 20 -43 44s19 43 43 43s43 -19 43 -43zM133 557c0 -24 -19 -44 -43 -44s-43 20 -43 44s19 43 43 43s43 -19 43 -43z" />
    <glyph glyph-name="uni04F2" unicode="&#x4f2;" horiz-adv-x="341" 
d="M8 667h68l64 -211c15 -48 25 -81 39 -143c11 59 21 97 34 145l56 209h64l-188 -667h-62l64 224zM298 830l-70 -116l-37 13l51 125zM195 830l-69 -116l-37 13l50 125z" />
    <glyph glyph-name="uni04F3" unicode="&#x4f3;" horiz-adv-x="289" 
d="M283 447l-160 -627h-60l50 192l-106 435h57l56 -248c9 -37 16 -75 21 -112c4 28 11 55 18 84l65 276h59zM274 623l-70 -116l-37 13l51 125zM171 623l-69 -116l-37 13l50 125z" />
    <glyph glyph-name="uni04F4" unicode="&#x4f4;" horiz-adv-x="374" 
d="M320 667v-667h-62v337c-22 -5 -46 -8 -74 -8c-32 0 -71 4 -99 28c-36 30 -40 77 -40 134v176h63v-169c0 -37 0 -75 22 -95c18 -16 47 -17 66 -17c23 0 41 2 62 7v274h62zM294 764c0 -24 -19 -44 -43 -44s-43 20 -43 44s19 43 43 43s43 -19 43 -43zM166 764
c0 -24 -19 -44 -43 -44s-43 20 -43 44s19 43 43 43s43 -19 43 -43z" />
    <glyph glyph-name="uni04F5" unicode="&#x4f5;" horiz-adv-x="308" 
d="M202 0v211c-18 -6 -37 -9 -61 -9c-38 0 -65 11 -81 25c-29 26 -30 68 -30 103v117h56v-123c0 -13 0 -41 15 -55c14 -13 41 -14 48 -14c24 0 46 6 53 8v184h56v-447h-56zM252 557c0 -24 -19 -44 -43 -44s-43 20 -43 44s19 43 43 43s43 -19 43 -43zM124 557
c0 -24 -19 -44 -43 -44s-43 20 -43 44s19 43 43 43s43 -19 43 -43z" />
    <glyph glyph-name="uni04F8" unicode="&#x4f8;" horiz-adv-x="483" 
d="M429 0h-62v667h62v-667zM117 667v-289h37c33 0 78 -5 114 -40c44 -43 49 -112 49 -149c0 -61 -11 -125 -56 -161c-34 -27 -71 -28 -107 -28h-99v667h62zM117 53h33c16 0 51 1 73 23c24 24 30 72 30 103c0 40 -6 93 -35 119c-24 22 -57 23 -71 23h-30v-268zM349 764
c0 -24 -19 -44 -43 -44s-43 20 -43 44s19 43 43 43s43 -19 43 -43zM221 764c0 -24 -19 -44 -43 -44s-43 20 -43 44s19 43 43 43s43 -19 43 -43z" />
    <glyph glyph-name="uni04F9" unicode="&#x4f9;" horiz-adv-x="425" 
d="M375 0h-56v447h56v-447zM50 0v447h56v-171h20c52 0 89 -16 110 -36c19 -18 38 -51 38 -110c0 -24 -3 -68 -31 -97c-29 -30 -68 -33 -97 -33h-96zM106 52h32c18 0 42 1 58 16c12 11 21 31 21 68c0 18 -2 43 -20 64c-20 24 -43 26 -66 26h-25v-174zM322 557
c0 -24 -19 -44 -43 -44s-43 20 -43 44s19 43 43 43s43 -19 43 -43zM194 557c0 -24 -19 -44 -43 -44s-43 20 -43 44s19 43 43 43s43 -19 43 -43z" />
    <glyph glyph-name="uni1E9E" unicode="&#x1e9e;" horiz-adv-x="359" 
d="M55 0v510c0 48 7 92 35 124c22 25 50 42 93 42c42 0 73 -14 94 -38c22 -25 33 -62 36 -105v-26l-86 -113c36 -9 62 -33 78 -69c15 -34 20 -76 20 -117c0 -49 -4 -125 -40 -167c-30 -35 -60 -41 -110 -41h-6v53h5c27 0 45 3 59 19c27 31 28 90 28 138c0 35 -2 81 -19 109
c-12 20 -29 32 -60 32h-13v45l79 112v24c-1 30 -4 46 -13 62c-11 18 -27 28 -51 28c-21 0 -38 -9 -51 -28c-13 -20 -16 -49 -16 -78v-516h-62z" />
    <glyph glyph-name="uni2010" unicode="&#x2010;" horiz-adv-x="238" 
d="M188 233h-138v58h138v-58z" />
    <glyph glyph-name="uni2011" unicode="&#x2011;" horiz-adv-x="238" 
d="M188 233h-138v58h138v-58z" />
    <glyph glyph-name="figuredash" unicode="&#x2012;" horiz-adv-x="574" 
d="M504 313h-434v50h434v-50z" />
    <glyph glyph-name="endash" unicode="&#x2013;" horiz-adv-x="574" 
d="M504 237h-434v50h434v-50z" />
    <glyph glyph-name="emdash" unicode="&#x2014;" horiz-adv-x="820" 
d="M750 287v-50h-680v50h680z" />
    <glyph glyph-name="afii00208" unicode="&#x2015;" horiz-adv-x="820" 
d="M750 287v-50h-680v50h680z" />
    <glyph glyph-name="quoteleft" unicode="&#x2018;" horiz-adv-x="205" 
d="M171 655l-69 -205l-62 29l88 197z" />
    <glyph glyph-name="quoteright" unicode="&#x2019;" horiz-adv-x="205" 
d="M171 647l-88 -197l-43 20l69 206z" />
    <glyph glyph-name="quotesinglbase" unicode="&#x201a;" horiz-adv-x="205" 
d="M165 55l-89 -197l-43 20l69 205z" />
    <glyph glyph-name="quotedblleft" unicode="&#x201c;" horiz-adv-x="323" 
d="M289 655l-69 -205l-62 29l88 197zM171 655l-69 -205l-62 29l88 197z" />
    <glyph glyph-name="quotedblright" unicode="&#x201d;" horiz-adv-x="323" 
d="M289 647l-88 -197l-43 20l69 206zM171 647l-88 -197l-43 20l69 206z" />
    <glyph glyph-name="quotedblbase" unicode="&#x201e;" horiz-adv-x="323" 
d="M283 55l-89 -197l-43 20l69 205zM165 55l-89 -197l-43 20l69 205z" />
    <glyph glyph-name="dagger" unicode="&#x2020;" horiz-adv-x="367" 
d="M303 473h-93v-646h-53v646h-94v46h94v210h53v-210h93v-46z" />
    <glyph glyph-name="daggerdbl" unicode="&#x2021;" horiz-adv-x="367" 
d="M303 136h-93v-309h-53v309h-94v47h94v290h-94v46h94v210h53v-210h93v-46h-93v-290h93v-47z" />
    <glyph glyph-name="bullet" unicode="&#x2022;" horiz-adv-x="1000" 
d="M638 340c0 -75 -61 -140 -137 -140s-138 64 -138 140s62 140 138 140s137 -65 137 -140z" />
    <glyph glyph-name="ellipsis" unicode="&#x2026;" horiz-adv-x="490" 
d="M453 38c0 -25 -20 -45 -45 -45c-24 0 -45 21 -45 45c0 25 20 45 45 45s45 -20 45 -45zM290 38c0 -25 -20 -45 -45 -45c-24 0 -45 21 -45 45c0 25 20 45 45 45s45 -20 45 -45zM127 38c0 -25 -20 -45 -45 -45c-24 0 -45 21 -45 45c0 25 20 45 45 45s45 -20 45 -45z" />
    <glyph glyph-name="perthousand" unicode="&#x2030;" horiz-adv-x="748" 
d="M215 500c0 -63 -2 -122 -32 -151c-18 -18 -39 -20 -56 -20s-37 2 -55 20c-30 29 -32 88 -32 151s2 122 32 151c18 18 38 20 55 20s38 -2 56 -20c30 -29 32 -88 32 -151zM127 630c-11 0 -18 -3 -24 -10c-13 -14 -17 -44 -17 -119c0 -76 4 -106 17 -120c6 -7 13 -10 24 -10
c10 0 17 2 24 10c13 14 17 44 17 120c0 75 -4 105 -17 119c-6 7 -13 10 -24 10zM425 667l-289 -667h-46l289 667h46zM474 166c0 -63 -2 -122 -32 -151c-18 -18 -39 -20 -56 -20s-37 2 -55 20c-30 29 -32 88 -32 151s2 122 32 151c18 18 38 20 55 20s38 -2 56 -20
c30 -29 32 -88 32 -151zM386 296c-11 0 -18 -3 -24 -10c-13 -14 -17 -44 -17 -119c0 -76 4 -106 17 -120c6 -7 13 -10 24 -10c10 0 17 2 24 10c13 14 17 44 17 120c0 75 -4 105 -17 119c-6 7 -13 10 -24 10zM708 166c0 -63 -2 -122 -32 -151c-18 -18 -39 -20 -56 -20
s-37 2 -55 20c-30 29 -32 88 -32 151s2 122 32 151c18 18 38 20 55 20s38 -2 56 -20c30 -29 32 -88 32 -151zM620 296c-11 0 -18 -3 -24 -10c-13 -14 -17 -44 -17 -119c0 -76 4 -106 17 -120c6 -7 13 -10 24 -10c10 0 17 2 24 10c13 14 17 44 17 120c0 75 -4 105 -17 119
c-6 7 -13 10 -24 10z" />
    <glyph glyph-name="guilsinglleft" unicode="&#x2039;" horiz-adv-x="213" 
d="M180 66l-38 -23l-109 194l109 188l38 -21l-95 -167z" />
    <glyph glyph-name="guilsinglright" unicode="&#x203a;" horiz-adv-x="213" 
d="M180 237l-108 -194l-39 23l95 171l-95 167l39 21z" />
    <glyph glyph-name="fraction" unicode="&#x2044;" horiz-adv-x="121" 
d="M228 667l-289 -667h-46l289 667h46z" />
    <glyph glyph-name="Euro" unicode="&#x20ac;" horiz-adv-x="366" 
d="M332 19c-26 -17 -56 -28 -87 -28c-48 0 -92 27 -120 65c-43 59 -53 142 -56 213h-59l18 42h40c0 22 0 43 1 65h-53l17 42h39c10 108 45 258 180 258c28 0 56 -6 80 -21v-68c-24 15 -48 29 -77 29c-96 0 -119 -123 -121 -198h183l-17 -42h-168c-1 -11 -1 -23 -1 -34v-31
h141l-18 -42h-121c0 -93 23 -218 117 -218c30 0 57 14 82 30v-62z" />
    <glyph glyph-name="uni20B4" unicode="&#x20b4;" horiz-adv-x="366" 
d="M60 570v70c14 9 28 16 47 23c24 9 45 13 74 13c31 0 69 -6 98 -35c27 -27 39 -72 39 -117c0 -42 -12 -75 -34 -106h59v-42h-87l-62 -65h149v-42h-179c-51 -48 -53 -100 -53 -122c0 -27 7 -55 31 -76c19 -17 41 -21 62 -21c24 0 44 5 64 14c21 9 35 18 49 31v-70
c-15 -8 -36 -19 -52 -24c-21 -7 -49 -11 -70 -11c-46 0 -83 15 -107 37c-39 36 -43 86 -43 114c0 54 17 94 45 128h-62v42h92l62 65h-154v42h184c32 31 40 69 40 103c0 12 -1 49 -22 72c-17 19 -39 23 -54 23c-27 0 -52 -8 -70 -16s-32 -17 -46 -30z" />
    <glyph glyph-name="uni20B6" unicode="&#x20b6;" horiz-adv-x="366" 
d="M151 216v-216h-62v216h-59v42h59v65h-59v53h59v291h73c36 0 97 -1 135 -38c33 -32 41 -87 41 -146c0 -32 -4 -86 -34 -119c-35 -38 -94 -41 -128 -41h-25v-65h100v-42h-100zM151 376h41c12 0 40 1 58 18c21 19 25 56 25 93c0 47 -3 79 -24 100s-51 23 -70 23h-30v-234z
" />
    <glyph glyph-name="uni20B6" unicode="&#x20cf;" horiz-adv-x="366" 
d="M151 216v-216h-62v216h-59v42h59v65h-59v53h59v291h73c36 0 97 -1 135 -38c33 -32 41 -87 41 -146c0 -32 -4 -86 -34 -119c-35 -38 -94 -41 -128 -41h-25v-65h100v-42h-100zM151 376h41c12 0 40 1 58 18c21 19 25 56 25 93c0 47 -3 79 -24 100s-51 23 -70 23h-30v-234z
" />
    <glyph glyph-name="uni20B6" unicode="&#x20ce;" horiz-adv-x="366" 
d="M151 216v-216h-62v216h-59v42h59v65h-59v53h59v291h73c36 0 97 -1 135 -38c33 -32 41 -87 41 -146c0 -32 -4 -86 -34 -119c-35 -38 -94 -41 -128 -41h-25v-65h100v-42h-100zM151 376h41c12 0 40 1 58 18c21 19 25 56 25 93c0 47 -3 79 -24 100s-51 23 -70 23h-30v-234z
" />
    <glyph glyph-name="uni20B6" unicode="&#x20cd;" horiz-adv-x="366" 
d="M151 216v-216h-62v216h-59v42h59v65h-59v53h59v291h73c36 0 97 -1 135 -38c33 -32 41 -87 41 -146c0 -32 -4 -86 -34 -119c-35 -38 -94 -41 -128 -41h-25v-65h100v-42h-100zM151 376h41c12 0 40 1 58 18c21 19 25 56 25 93c0 47 -3 79 -24 100s-51 23 -70 23h-30v-234z
" />
    <glyph glyph-name="uni20B6" unicode="&#x20cc;" horiz-adv-x="366" 
d="M151 216v-216h-62v216h-59v42h59v65h-59v53h59v291h73c36 0 97 -1 135 -38c33 -32 41 -87 41 -146c0 -32 -4 -86 -34 -119c-35 -38 -94 -41 -128 -41h-25v-65h100v-42h-100zM151 376h41c12 0 40 1 58 18c21 19 25 56 25 93c0 47 -3 79 -24 100s-51 23 -70 23h-30v-234z
" />
    <glyph glyph-name="uni20B6" unicode="&#x20cb;" horiz-adv-x="366" 
d="M151 216v-216h-62v216h-59v42h59v65h-59v53h59v291h73c36 0 97 -1 135 -38c33 -32 41 -87 41 -146c0 -32 -4 -86 -34 -119c-35 -38 -94 -41 -128 -41h-25v-65h100v-42h-100zM151 376h41c12 0 40 1 58 18c21 19 25 56 25 93c0 47 -3 79 -24 100s-51 23 -70 23h-30v-234z
" />
    <glyph glyph-name="uni20B6" unicode="&#x20ca;" horiz-adv-x="366" 
d="M151 216v-216h-62v216h-59v42h59v65h-59v53h59v291h73c36 0 97 -1 135 -38c33 -32 41 -87 41 -146c0 -32 -4 -86 -34 -119c-35 -38 -94 -41 -128 -41h-25v-65h100v-42h-100zM151 376h41c12 0 40 1 58 18c21 19 25 56 25 93c0 47 -3 79 -24 100s-51 23 -70 23h-30v-234z
" />
    <glyph glyph-name="uni20B6" unicode="&#x20c9;" horiz-adv-x="366" 
d="M151 216v-216h-62v216h-59v42h59v65h-59v53h59v291h73c36 0 97 -1 135 -38c33 -32 41 -87 41 -146c0 -32 -4 -86 -34 -119c-35 -38 -94 -41 -128 -41h-25v-65h100v-42h-100zM151 376h41c12 0 40 1 58 18c21 19 25 56 25 93c0 47 -3 79 -24 100s-51 23 -70 23h-30v-234z
" />
    <glyph glyph-name="uni20B6" unicode="&#x20c8;" horiz-adv-x="366" 
d="M151 216v-216h-62v216h-59v42h59v65h-59v53h59v291h73c36 0 97 -1 135 -38c33 -32 41 -87 41 -146c0 -32 -4 -86 -34 -119c-35 -38 -94 -41 -128 -41h-25v-65h100v-42h-100zM151 376h41c12 0 40 1 58 18c21 19 25 56 25 93c0 47 -3 79 -24 100s-51 23 -70 23h-30v-234z
" />
    <glyph glyph-name="uni20B6" unicode="&#x20c7;" horiz-adv-x="366" 
d="M151 216v-216h-62v216h-59v42h59v65h-59v53h59v291h73c36 0 97 -1 135 -38c33 -32 41 -87 41 -146c0 -32 -4 -86 -34 -119c-35 -38 -94 -41 -128 -41h-25v-65h100v-42h-100zM151 376h41c12 0 40 1 58 18c21 19 25 56 25 93c0 47 -3 79 -24 100s-51 23 -70 23h-30v-234z
" />
    <glyph glyph-name="uni20B6" unicode="&#x20c6;" horiz-adv-x="366" 
d="M151 216v-216h-62v216h-59v42h59v65h-59v53h59v291h73c36 0 97 -1 135 -38c33 -32 41 -87 41 -146c0 -32 -4 -86 -34 -119c-35 -38 -94 -41 -128 -41h-25v-65h100v-42h-100zM151 376h41c12 0 40 1 58 18c21 19 25 56 25 93c0 47 -3 79 -24 100s-51 23 -70 23h-30v-234z
" />
    <glyph glyph-name="uni20B6" unicode="&#x20c5;" horiz-adv-x="366" 
d="M151 216v-216h-62v216h-59v42h59v65h-59v53h59v291h73c36 0 97 -1 135 -38c33 -32 41 -87 41 -146c0 -32 -4 -86 -34 -119c-35 -38 -94 -41 -128 -41h-25v-65h100v-42h-100zM151 376h41c12 0 40 1 58 18c21 19 25 56 25 93c0 47 -3 79 -24 100s-51 23 -70 23h-30v-234z
" />
    <glyph glyph-name="uni20B6" unicode="&#x20c4;" horiz-adv-x="366" 
d="M151 216v-216h-62v216h-59v42h59v65h-59v53h59v291h73c36 0 97 -1 135 -38c33 -32 41 -87 41 -146c0 -32 -4 -86 -34 -119c-35 -38 -94 -41 -128 -41h-25v-65h100v-42h-100zM151 376h41c12 0 40 1 58 18c21 19 25 56 25 93c0 47 -3 79 -24 100s-51 23 -70 23h-30v-234z
" />
    <glyph glyph-name="uni20B6" unicode="&#x20c3;" horiz-adv-x="366" 
d="M151 216v-216h-62v216h-59v42h59v65h-59v53h59v291h73c36 0 97 -1 135 -38c33 -32 41 -87 41 -146c0 -32 -4 -86 -34 -119c-35 -38 -94 -41 -128 -41h-25v-65h100v-42h-100zM151 376h41c12 0 40 1 58 18c21 19 25 56 25 93c0 47 -3 79 -24 100s-51 23 -70 23h-30v-234z
" />
    <glyph glyph-name="uni20B6" unicode="&#x20c2;" horiz-adv-x="366" 
d="M151 216v-216h-62v216h-59v42h59v65h-59v53h59v291h73c36 0 97 -1 135 -38c33 -32 41 -87 41 -146c0 -32 -4 -86 -34 -119c-35 -38 -94 -41 -128 -41h-25v-65h100v-42h-100zM151 376h41c12 0 40 1 58 18c21 19 25 56 25 93c0 47 -3 79 -24 100s-51 23 -70 23h-30v-234z
" />
    <glyph glyph-name="uni20B6" unicode="&#x20c1;" horiz-adv-x="366" 
d="M151 216v-216h-62v216h-59v42h59v65h-59v53h59v291h73c36 0 97 -1 135 -38c33 -32 41 -87 41 -146c0 -32 -4 -86 -34 -119c-35 -38 -94 -41 -128 -41h-25v-65h100v-42h-100zM151 376h41c12 0 40 1 58 18c21 19 25 56 25 93c0 47 -3 79 -24 100s-51 23 -70 23h-30v-234z
" />
    <glyph glyph-name="uni20B6" unicode="&#x20c0;" horiz-adv-x="366" 
d="M151 216v-216h-62v216h-59v42h59v65h-59v53h59v291h73c36 0 97 -1 135 -38c33 -32 41 -87 41 -146c0 -32 -4 -86 -34 -119c-35 -38 -94 -41 -128 -41h-25v-65h100v-42h-100zM151 376h41c12 0 40 1 58 18c21 19 25 56 25 93c0 47 -3 79 -24 100s-51 23 -70 23h-30v-234z
" />
    <glyph glyph-name="uni20B6" unicode="&#x20bf;" horiz-adv-x="366" 
d="M151 216v-216h-62v216h-59v42h59v65h-59v53h59v291h73c36 0 97 -1 135 -38c33 -32 41 -87 41 -146c0 -32 -4 -86 -34 -119c-35 -38 -94 -41 -128 -41h-25v-65h100v-42h-100zM151 376h41c12 0 40 1 58 18c21 19 25 56 25 93c0 47 -3 79 -24 100s-51 23 -70 23h-30v-234z
" />
    <glyph glyph-name="uni20B6" unicode="&#x20be;" horiz-adv-x="366" 
d="M151 216v-216h-62v216h-59v42h59v65h-59v53h59v291h73c36 0 97 -1 135 -38c33 -32 41 -87 41 -146c0 -32 -4 -86 -34 -119c-35 -38 -94 -41 -128 -41h-25v-65h100v-42h-100zM151 376h41c12 0 40 1 58 18c21 19 25 56 25 93c0 47 -3 79 -24 100s-51 23 -70 23h-30v-234z
" />
    <glyph glyph-name="uni20B6" unicode="&#x20bd;" horiz-adv-x="366" 
d="M151 216v-216h-62v216h-59v42h59v65h-59v53h59v291h73c36 0 97 -1 135 -38c33 -32 41 -87 41 -146c0 -32 -4 -86 -34 -119c-35 -38 -94 -41 -128 -41h-25v-65h100v-42h-100zM151 376h41c12 0 40 1 58 18c21 19 25 56 25 93c0 47 -3 79 -24 100s-51 23 -70 23h-30v-234z
" />
    <glyph glyph-name="uni20B6" unicode="&#x20bc;" horiz-adv-x="366" 
d="M151 216v-216h-62v216h-59v42h59v65h-59v53h59v291h73c36 0 97 -1 135 -38c33 -32 41 -87 41 -146c0 -32 -4 -86 -34 -119c-35 -38 -94 -41 -128 -41h-25v-65h100v-42h-100zM151 376h41c12 0 40 1 58 18c21 19 25 56 25 93c0 47 -3 79 -24 100s-51 23 -70 23h-30v-234z
" />
    <glyph glyph-name="uni20B6" unicode="&#x20bb;" horiz-adv-x="366" 
d="M151 216v-216h-62v216h-59v42h59v65h-59v53h59v291h73c36 0 97 -1 135 -38c33 -32 41 -87 41 -146c0 -32 -4 -86 -34 -119c-35 -38 -94 -41 -128 -41h-25v-65h100v-42h-100zM151 376h41c12 0 40 1 58 18c21 19 25 56 25 93c0 47 -3 79 -24 100s-51 23 -70 23h-30v-234z
" />
    <glyph glyph-name="uni20B6" unicode="&#x20ba;" horiz-adv-x="366" 
d="M151 216v-216h-62v216h-59v42h59v65h-59v53h59v291h73c36 0 97 -1 135 -38c33 -32 41 -87 41 -146c0 -32 -4 -86 -34 -119c-35 -38 -94 -41 -128 -41h-25v-65h100v-42h-100zM151 376h41c12 0 40 1 58 18c21 19 25 56 25 93c0 47 -3 79 -24 100s-51 23 -70 23h-30v-234z
" />
    <glyph glyph-name="uni20B6" unicode="&#x20b9;" horiz-adv-x="366" 
d="M151 216v-216h-62v216h-59v42h59v65h-59v53h59v291h73c36 0 97 -1 135 -38c33 -32 41 -87 41 -146c0 -32 -4 -86 -34 -119c-35 -38 -94 -41 -128 -41h-25v-65h100v-42h-100zM151 376h41c12 0 40 1 58 18c21 19 25 56 25 93c0 47 -3 79 -24 100s-51 23 -70 23h-30v-234z
" />
    <glyph glyph-name="uni20B6" unicode="&#x20b7;" horiz-adv-x="366" 
d="M151 216v-216h-62v216h-59v42h59v65h-59v53h59v291h73c36 0 97 -1 135 -38c33 -32 41 -87 41 -146c0 -32 -4 -86 -34 -119c-35 -38 -94 -41 -128 -41h-25v-65h100v-42h-100zM151 376h41c12 0 40 1 58 18c21 19 25 56 25 93c0 47 -3 79 -24 100s-51 23 -70 23h-30v-234z
" />
    <glyph glyph-name="uni20B8" unicode="&#x20b8;" horiz-adv-x="366" 
d="M314 520h-100v-520h-62v520h-100v57h262v-57zM314 615h-262v52h262v-52z" />
    <glyph glyph-name="afii61352" unicode="&#x2116;" horiz-adv-x="596" 
d="M332 0h-54l-148 440c-10 31 -19 62 -27 94c4 -35 6 -70 6 -105v-429h-54v667h54l151 -453c9 -26 16 -53 24 -79c-4 27 -6 55 -6 82v450h54v-667zM563 518c0 -58 -8 -150 -85 -150s-88 93 -88 152c0 58 12 151 88 151c77 0 85 -95 85 -153zM560 290h-167v40h167v-40z
M519 519c0 28 -2 112 -42 112c-43 0 -44 -85 -44 -115c0 -29 2 -109 44 -109c40 0 42 84 42 112z" />
    <glyph glyph-name="uni2117" unicode="&#x2117;" horiz-adv-x="756" 
d="M297 536h53c43 0 78 -7 99 -35c18 -24 18 -57 18 -78c0 -27 -3 -65 -30 -88c-21 -18 -47 -20 -69 -20h-22v-184h-49v405zM346 359h18c9 0 27 1 38 11c12 12 14 38 14 55c0 14 -1 43 -16 56c-9 8 -25 11 -40 11h-14v-133zM723 334c0 -84 -32 -176 -101 -245
c-58 -58 -148 -101 -244 -101s-186 43 -244 101c-69 69 -101 161 -101 245c0 83 32 175 101 244c58 58 148 101 244 101s186 -43 244 -101c69 -69 101 -161 101 -244zM378 643c-76 0 -154 -29 -215 -90c-56 -57 -90 -134 -90 -219c0 -86 34 -164 90 -220
c61 -61 139 -90 215 -90s154 29 215 90c56 56 90 134 90 220c0 85 -34 162 -90 219c-61 61 -139 90 -215 90z" />
    <glyph glyph-name="trademark" unicode="&#x2122;" horiz-adv-x="455" 
d="M433 287h-41l-28 260l-45 -260h-34l-42 256l-32 -256h-41l53 380h36l44 -281l48 281h36zM164 628h-56v-341h-41v341h-56v39h153v-39z" />
    <glyph glyph-name="partialdiff" unicode="&#x2202;" horiz-adv-x="494" 
d="M81 613l7 50c93 -13 168 -38 237 -104c87 -82 129 -205 129 -323c0 -131 -74 -247 -215 -247c-120 0 -214 104 -214 222c0 116 87 219 206 219c65 0 116 -27 152 -81c-9 27 -19 54 -32 79c-52 104 -157 168 -270 185zM394 215c0 91 -56 167 -152 167
c-95 0 -160 -82 -160 -173c0 -89 66 -170 158 -170c96 0 154 86 154 176z" />
    <glyph glyph-name="product" unicode="&#x220f;" horiz-adv-x="689" 
d="M654 -250h-219v51h83v898h-347v-898h82v-51h-217v51h78v898h-78v51h618v-51h-78v-898h78v-51z" />
    <glyph glyph-name="summation" unicode="&#x2211;" horiz-adv-x="667" 
d="M601 -250h-571v59l250 462l-250 422v57h562v-221h-52l-5 170h-441l253 -429l-255 -469h453l2 169h54v-220z" />
    <glyph glyph-name="minus" unicode="&#x2212;" 
d="M467 305h-434v53h434v-53z" />
    <glyph glyph-name="uni2215" unicode="&#x2215;" horiz-adv-x="408" 
d="M435 729l-390 -902h-58l391 902h57z" />
    <glyph glyph-name="uni2219" unicode="&#x2219;" horiz-adv-x="204" 
d="M160 343c0 -32 -26 -58 -58 -58s-59 26 -59 58c0 33 26 59 59 59c32 0 58 -27 58 -59z" />
    <glyph glyph-name="radical" unicode="&#x221a;" horiz-adv-x="667" 
d="M667 775h-202l-229 -775h-67l-89 307h-80v51h126l42 -139c6 -20 10 -41 15 -62c6 -25 12 -49 18 -74h4c18 64 32 128 50 192c51 185 108 368 162 552h250v-52z" />
    <glyph glyph-name="infinity" unicode="&#x221e;" horiz-adv-x="667" 
d="M648 339c0 -86 -60 -150 -147 -150c-77 0 -127 52 -167 112c-40 -59 -90 -111 -166 -111c-90 0 -149 63 -149 152c0 87 62 149 149 149c74 0 126 -54 164 -112c41 61 91 112 169 112c89 0 147 -65 147 -152zM590 340c0 56 -39 100 -96 100c-61 0 -102 -53 -132 -100
c31 -47 71 -100 133 -100c57 0 95 45 95 100zM305 340c-31 47 -71 100 -133 100c-58 0 -95 -44 -95 -100c0 -55 38 -100 95 -100c63 0 101 53 133 100z" />
    <glyph glyph-name="integral" unicode="&#x222b;" 
d="M392 739l-14 -50c-15 6 -27 10 -43 10c-52 0 -56 -40 -56 -82v-728c0 -29 -1 -67 -17 -92c-22 -34 -65 -46 -103 -46c-19 0 -33 3 -51 10l14 50c14 -6 28 -10 43 -10c67 0 56 71 56 117v684c0 25 0 60 8 84c14 44 58 64 102 64c21 0 41 -4 61 -11z" />
    <glyph glyph-name="approxequal" unicode="&#x2248;" 
d="M454 478l36 -21c-29 -56 -70 -107 -139 -107c-74 0 -144 70 -211 70c-46 0 -74 -38 -94 -75l-36 23c27 56 66 108 134 108c76 0 143 -70 213 -70c49 0 74 34 97 72zM454 321l36 -21c-29 -56 -70 -107 -139 -107c-73 0 -147 71 -211 71c-46 0 -74 -39 -94 -76l-36 23
c27 56 66 108 134 108c77 0 146 -70 214 -70c48 0 74 34 96 72z" />
    <glyph glyph-name="notequal" unicode="&#x2260;" 
d="M467 234h-238l-56 -119h-48l56 119h-147v51h170l47 99h-218v51h242l55 114h48l-55 -114h143v-51h-166l-47 -99h214v-51z" />
    <glyph glyph-name="lessequal" unicode="&#x2264;" 
d="M467 151l-434 193v51l434 193v-55l-372 -164l371 -164zM467 69h-434v52h434v-52z" />
    <glyph glyph-name="greaterequal" unicode="&#x2265;" 
d="M467 344l-434 -193v54l372 164l-371 164l-1 55l434 -194v-50zM467 69h-434v52h434v-52z" />
    <glyph glyph-name="dotmath" unicode="&#x22c5;" horiz-adv-x="204" 
d="M160 343c0 -32 -26 -58 -58 -58s-59 26 -59 58c0 33 26 59 59 59c32 0 58 -27 58 -59z" />
    <glyph glyph-name="lozenge" unicode="&#x25ca;" horiz-adv-x="667" 
d="M593 334l-260 -360l-259 360l259 359zM527 334l-194 266l-194 -266l194 -267z" />
    <glyph glyph-name="openbullet" unicode="&#x25e6;" 
d="M388 537c0 -75 -64 -135 -138 -135s-138 60 -138 135c0 76 63 135 138 135s138 -59 138 -135zM349 537c0 55 -45 97 -99 97s-99 -42 -99 -97c0 -54 46 -97 99 -97s99 43 99 97z" />
    <glyph glyph-name="uniF400" unicode="&#xf400;" horiz-adv-x="2" 
d="M-59 610l-115 -103l-35 26l96 120z" />
    <glyph glyph-name="uniF401" unicode="&#xf401;" horiz-adv-x="2" 
d="M-69 817l-115 -103l-35 26l96 120z" />
    <glyph glyph-name="uniF406" unicode="&#xf406;" 
d="M325 810h48c-7 -65 -64 -92 -123 -92s-116 27 -123 92h48c13 -31 44 -41 75 -41s62 10 75 41z" />
    <glyph glyph-name="uniF407" unicode="&#xf407;" 
d="M310 -62l-77 -123l-36 21l67 127z" />
    <glyph glyph-name="uniF408" unicode="&#xf408;" 
d="M363 752l-40 -38l-74 69l-74 -69l-38 38l112 107z" />
    <glyph glyph-name="uniF409" unicode="&#xf409;" horiz-adv-x="185" 
d="M151 -77l-72 -154l-39 19l53 163z" />
    <glyph glyph-name="uniF40A" unicode="&#xf40a;" horiz-adv-x="196" 
d="M162 648l-83 -186l-39 19l64 195z" />
    <glyph glyph-name="uniF40B" unicode="&#xf40b;" 
d="M296 766c0 -25 -21 -46 -46 -46s-45 21 -45 46s20 45 45 45s46 -20 46 -45z" />
    <glyph glyph-name="uniF40C" unicode="&#xf40c;" horiz-adv-x="499" 
d="M330 794c0 -44 -36 -80 -80 -80s-80 36 -80 80s36 80 80 80s80 -36 80 -80zM290 794c0 22 -18 40 -40 40s-40 -18 -40 -40s18 -40 40 -40s40 18 40 40z" />
    <glyph glyph-name="uniF40D" unicode="&#xf40d;" 
d="M308 802h57c-2 -39 -23 -82 -68 -82c-35 0 -67 34 -90 34c-14 0 -16 -14 -16 -25h-56c4 40 26 77 70 77c31 0 65 -32 86 -32c16 0 17 16 17 28z" />
    <glyph glyph-name="uniF40E" unicode="&#xf40e;" 
d="M333 -95v-48c-16 -6 -28 -9 -45 -9c-41 0 -81 20 -81 66c0 37 22 62 47 86h46c-19 -16 -44 -46 -44 -72c0 -22 17 -31 37 -31c14 0 27 2 40 8z" />
    <glyph glyph-name="uniF4C6" unicode="&#xf4c6;" horiz-adv-x="374" 
d="M320 667v-741c0 -12 -1 -29 -1 -29c-9 -70 1 -76 -95 -77h-12c-24 0 -22 1 -60 18v64l18 -16c11 -11 14 -12 44 -12h48l-2 22c-1 34 -2 15 -2 57v384c-22 -5 -46 -8 -74 -8c-32 0 -71 4 -99 28c-36 30 -40 77 -40 134v176h63v-169c0 -37 0 -75 22 -95
c18 -16 47 -17 66 -17c23 0 41 2 62 7v274h62z" />
    <glyph glyph-name="uniF4C7" unicode="&#xf4c7;" horiz-adv-x="308" 
d="M202 -42v253c-18 -6 -37 -9 -61 -9c-38 0 -65 11 -81 25c-29 26 -30 68 -30 103v117h56v-123c0 -13 0 -41 15 -55c14 -13 41 -14 48 -14c24 0 46 6 53 8v184h56v-489c0 -36 -1 -80 -31 -112c-19 -20 -40 -26 -63 -26c-14 0 -27 2 -43 10v57c14 -10 25 -11 35 -11
c8 0 20 1 29 8c16 14 17 50 17 74z" />
    <glyph glyph-name="uniF4CC" unicode="&#xf4cc;" horiz-adv-x="341" 
d="M8 667h68l64 -211c15 -48 25 -81 39 -143c11 59 21 97 34 145l56 209h64l-188 -667h-62l64 224zM285 817l-115 -103l-35 26l96 120z" />
    <glyph glyph-name="uniF4CD" unicode="&#xf4cd;" horiz-adv-x="289" 
d="M283 447l-160 -627h-60l50 192l-106 435h57l56 -248c9 -37 16 -75 21 -112c4 28 11 55 18 84l65 276h59zM255 610l-115 -103l-35 26l96 120z" />
    <glyph glyph-name="dollar.fitted" unicode="&#xf5f5;" horiz-adv-x="320" 
d="M284 636l-31 -47c-26 17 -56 30 -88 30c-60 0 -98 -43 -98 -102c0 -177 245 -135 245 -341c0 -91 -49 -167 -132 -182v-85h-49v83c-49 8 -76 22 -112 57l36 43c28 -23 60 -44 97 -44c63 0 102 56 102 125c0 158 -245 127 -245 340c0 83 41 140 122 160v78h49v-76
c38 -2 73 -18 104 -39z" />
    <glyph glyph-name="Euro.fitted" unicode="&#xf5f6;" horiz-adv-x="346" 
d="M329 19c-26 -17 -56 -28 -87 -28c-48 0 -92 27 -120 65c-43 59 -53 142 -56 213h-59l18 42h40c0 22 0 43 1 65h-53l17 42h39c10 108 45 258 180 258c28 0 56 -6 80 -21v-68c-24 15 -48 29 -77 29c-96 0 -119 -123 -121 -198h183l-17 -42h-168c-1 -11 -1 -23 -1 -34v-31
h141l-18 -42h-121c0 -93 23 -218 117 -218c30 0 57 14 82 30v-62z" />
    <glyph glyph-name="cent.fitted" unicode="&#xf5f7;" horiz-adv-x="215" 
d="M202 206v-70c-12 -10 -26 -16 -41 -19v-92h-49v92c-88 33 -104 137 -104 219c0 60 8 132 40 184c18 29 33 40 64 50v83h49v-82c14 -2 28 -7 41 -13v-67c-15 16 -34 30 -57 30c-71 0 -77 -130 -77 -181c0 -48 9 -174 76 -174c26 0 44 21 58 40z" />
    <glyph glyph-name="sterling.fitted" unicode="&#xf5f8;" horiz-adv-x="346" 
d="M278 89l52 -17c-2 -27 -14 -54 -30 -69c-14 -13 -34 -22 -56 -22c-19 0 -39 7 -56 18l-34 22c-25 16 -37 19 -45 19c-9 0 -19 -5 -26 -12c-6 -6 -13 -18 -16 -28l-52 30c8 17 21 35 35 48c17 17 43 26 67 19c24 36 26 70 26 80c0 40 -19 82 -48 121h-79v42h59
c-11 21 -23 48 -29 66c-12 33 -17 66 -17 99c0 41 9 92 47 130c25 25 62 41 106 41c45 0 75 -18 94 -37c23 -22 43 -60 44 -108l-58 -12c-1 23 -9 57 -28 76c-9 9 -26 21 -55 21c-28 0 -46 -11 -57 -21c-12 -12 -30 -37 -30 -87c0 -32 7 -60 17 -88c9 -26 25 -59 36 -80h105
v-42h-84c29 -42 37 -79 37 -108c0 -21 -3 -43 -12 -66c-2 -5 -10 -23 -25 -43l43 -30c13 -8 24 -11 34 -11c13 0 20 5 26 17c5 10 8 24 9 32z" />
    <glyph glyph-name="yen.fitted" unicode="&#xf5f9;" horiz-adv-x="351" 
d="M342 269h-135v-269h-57v269h-142v42h136l-23 65h-113v42h99l-86 249h64l63 -195c13 -39 23 -79 30 -119c7 41 18 82 30 122l57 192h64l-81 -249h94v-42h-108l-21 -65h129v-42z" />
    <glyph glyph-name="florin.fitted" unicode="&#xf5fa;" horiz-adv-x="382" 
d="M379 729l-10 -59c-11 10 -22 17 -38 17c-35 0 -41 -31 -47 -59l-36 -181h77l-9 -42h-76l-83 -424c-12 -61 -32 -114 -104 -114c-19 0 -34 5 -50 11l11 59c11 -10 24 -17 39 -17c33 0 41 33 46 59l84 426h-73l8 42h73s27 147 35 179c15 60 30 114 103 114
c18 0 35 -3 50 -11z" />
    <glyph glyph-name="uni20B4.fitted" unicode="&#xf5fb;" horiz-adv-x="357" 
d="M53 570v70c14 9 28 16 47 23c24 9 45 13 74 13c31 0 69 -6 98 -35c27 -27 39 -72 39 -117c0 -42 -12 -75 -34 -106h59v-42h-87l-62 -65h149v-42h-179c-51 -48 -53 -100 -53 -122c0 -27 7 -55 31 -76c19 -17 41 -21 62 -21c24 0 44 5 64 14c21 9 35 18 49 31v-70
c-15 -8 -36 -19 -52 -24c-21 -7 -49 -11 -70 -11c-46 0 -83 15 -107 37c-39 36 -43 86 -43 114c0 54 17 94 45 128h-62v42h92l62 65h-154v42h184c32 31 40 69 40 103c0 12 -1 49 -22 72c-17 19 -39 23 -54 23c-27 0 -52 -8 -70 -16s-32 -17 -46 -30z" />
    <glyph glyph-name="uni20B6.fitted" unicode="&#xf5fc;" horiz-adv-x="334" 
d="M138 216v-216h-62v216h-59v42h59v65h-59v53h59v291h73c36 0 97 -1 135 -38c33 -32 41 -87 41 -146c0 -32 -4 -86 -34 -119c-35 -38 -94 -41 -128 -41h-25v-65h100v-42h-100zM138 376h41c12 0 40 1 58 18c21 19 25 56 25 93c0 47 -3 79 -24 100s-51 23 -70 23h-30v-234z
" />
    <glyph glyph-name="uni20B8.fitted" unicode="&#xf5fd;" horiz-adv-x="276" 
d="M269 520h-100v-520h-62v520h-100v57h262v-57zM269 615h-262v52h262v-52z" />
    <glyph glyph-name="uniF639" unicode="&#xf639;" horiz-adv-x="335" 
d="M317 356c0 -102 -3 -365 -151 -365c-139 0 -149 230 -149 328c0 106 12 357 161 357c138 0 139 -225 139 -320zM257 378c0 55 -1 241 -82 241c-91 0 -98 -232 -98 -296c0 -65 5 -159 29 -219c12 -29 29 -56 64 -56c32 0 47 24 57 50c28 73 30 200 30 280z" />
    <glyph glyph-name="uniF63A" unicode="&#xf63a;" horiz-adv-x="309" 
d="M25 485c0 96 21 191 135 191c88 0 136 -64 136 -148c0 -98 -45 -183 -88 -268l-102 -201h182v-59h-273l137 282c38 77 81 158 81 246c0 45 -18 91 -70 91c-69 0 -77 -67 -77 -122v-12h-61z" />
    <glyph glyph-name="uniF63B" unicode="&#xf63b;" horiz-adv-x="311" 
d="M81 511h-57c1 83 31 165 127 165c95 0 133 -67 133 -154c0 -64 -13 -123 -76 -153c77 -33 85 -117 85 -190c0 -95 -26 -188 -139 -188c-103 0 -138 72 -138 165v27h61c0 -57 2 -132 78 -132c73 0 78 86 78 140c0 77 -22 147 -112 147h-30v55h26c34 0 59 2 82 29
c21 25 25 64 25 96c0 49 -15 98 -73 98c-63 0 -69 -56 -70 -105z" />
    <glyph glyph-name="uniF63C" unicode="&#xf63c;" horiz-adv-x="301" 
d="M289 179h-50v-179h-61v179h-175v63l175 425h61v-431h50v-57zM61 236h117c0 45 -1 90 -1 135c0 66 2 132 8 198c-10 -39 -23 -77 -38 -115z" />
    <glyph glyph-name="uniF63D" unicode="&#xf63d;" horiz-adv-x="296" 
d="M121 609l-24 -204c12 2 23 3 35 3c113 0 152 -116 152 -211c0 -98 -44 -206 -166 -206c-38 0 -74 11 -104 33l17 61c26 -20 57 -34 90 -34c79 0 100 89 100 147c0 69 -23 150 -112 150c-32 0 -59 -7 -82 -12l39 331h199v-58h-144z" />
    <glyph glyph-name="uniF63E" unicode="&#xf63e;" horiz-adv-x="298" 
d="M229 667l-87 -205c-16 -37 -21 -41 -46 -107c26 19 47 23 65 23c38 0 63 -17 76 -29c43 -41 48 -125 48 -169c0 -75 -17 -128 -46 -156c-17 -17 -47 -33 -89 -33c-36 0 -64 11 -86 32c-47 45 -53 120 -53 176c0 46 5 84 17 130c11 41 25 73 41 112l95 226h65zM71 185
c0 -40 7 -95 33 -120c11 -11 31 -20 49 -20s36 9 47 21c10 11 25 38 25 118c0 69 -13 103 -30 121c-11 11 -27 20 -47 20c-22 0 -38 -11 -47 -21c-10 -11 -30 -41 -30 -119z" />
    <glyph glyph-name="uniF63F" unicode="&#xf63f;" horiz-adv-x="289" 
d="M286 667l-205 -667h-65l188 609h-192v58h274z" />
    <glyph glyph-name="uniF640" unicode="&#xf640;" horiz-adv-x="316" 
d="M298 188c0 -95 -30 -197 -144 -197c-111 0 -137 109 -137 199c0 66 16 151 85 179c-54 34 -70 82 -70 143c0 85 39 164 134 164c94 0 126 -84 126 -165c0 -59 -16 -111 -70 -142c67 -37 76 -112 76 -181zM232 507c0 47 -12 112 -71 112c-57 0 -69 -57 -69 -103
c0 -47 10 -119 71 -119c58 0 69 64 69 110zM238 197c0 53 -10 144 -80 144s-80 -98 -80 -150s10 -143 79 -143c77 0 81 93 81 149z" />
    <glyph glyph-name="uniF641" unicode="&#xf641;" horiz-adv-x="298" 
d="M69 0l130 312c-20 -14 -41 -23 -66 -23c-101 0 -120 122 -120 200c0 89 25 187 133 187c110 0 141 -101 141 -193c0 -83 -21 -165 -53 -241l-101 -242h-64zM227 482c0 53 -12 141 -82 141c-63 0 -73 -98 -73 -145c0 -51 10 -136 78 -136s77 89 77 140z" />
    <glyph glyph-name="uniF6BA" unicode="&#xf6ba;" horiz-adv-x="238" 
d="M188 309h-138v58h138v-58z" />
    <glyph glyph-name="uniF6BB" unicode="&#xf6bb;" horiz-adv-x="574" 
d="M504 313h-434v50h434v-50z" />
    <glyph glyph-name="uniF6BC" unicode="&#xf6bc;" horiz-adv-x="820" 
d="M750 363v-50h-680v50h680z" />
    <glyph glyph-name="uniF6C3" unicode="&#xf6c3;" horiz-adv-x="185" 
d="M151 -77l-72 -154l-39 19l53 163z" />
    <glyph glyph-name="uniF6C9" unicode="&#xf6c9;" 
d="M365 817l-115 -103l-35 26l96 120z" />
    <glyph glyph-name="uniF6CA" unicode="&#xf6ca;" 
d="M363 821l-114 -107l-112 107l38 38l74 -69l74 69z" />
    <glyph glyph-name="uniF6CB" unicode="&#xf6cb;" 
d="M357 764c0 -24 -19 -44 -43 -44s-43 20 -43 44s19 43 43 43s43 -19 43 -43zM229 764c0 -24 -19 -44 -43 -44s-43 20 -43 44s19 43 43 43s43 -19 43 -43z" />
    <glyph glyph-name="uniF6CE" unicode="&#xf6ce;" 
d="M285 740l-35 -26l-115 103l54 43z" />
    <glyph glyph-name="uniF6CF" unicode="&#xf6cf;" 
d="M388 830l-70 -116l-37 13l51 125zM285 830l-69 -116l-37 13l50 125z" />
    <glyph glyph-name="uniF6D0" unicode="&#xf6d0;" 
d="M362 727h-224v55h224v-55z" />
    <glyph glyph-name="uniF6D1" unicode="&#xf6d1;" horiz-adv-x="348" 
d="M240 806l53 -22c-10 -32 -30 -51 -46 -62c-25 -16 -51 -19 -73 -19c-27 0 -50 4 -73 19c-31 20 -42 46 -46 62l53 22c6 -23 20 -34 24 -37c9 -7 23 -12 42 -12c25 0 38 9 42 12c11 8 20 24 24 37z" />
    <glyph glyph-name="uniF6D4" unicode="&#xf6d4;" horiz-adv-x="314" 
d="M217 597l47 -23c-8 -23 -24 -44 -41 -56c-24 -17 -55 -18 -66 -18s-42 1 -66 18c-17 12 -33 33 -41 56l47 23c2 -12 10 -27 21 -36c12 -10 28 -11 40 -11s26 1 38 11c10 8 18 23 21 36z" />
    <glyph glyph-name="uniF6DC" unicode="&#xf6dc;" horiz-adv-x="174" 
d="M150 0h-62v609h-86v58h148v-667z" />
    <glyph glyph-name="uniF6DE" unicode="&#xf6de;" horiz-adv-x="615" 
d="M562 287v-50h-510v50h510z" />
    <glyph glyph-name="nbspace" horiz-adv-x="233" 
 />
    <glyph glyph-name="hyphenminus" horiz-adv-x="238" 
d="M188 233h-138v58h138v-58z" />
    <glyph glyph-name="dotlessi1" horiz-adv-x="155" 
d="M106 0h-57v447h57v-447z" />
    </font>
</defs>
</svg>
